%FSLAX34Y34*%
%MOMM*%
%LNOUTLINE*%
G71*
G01*
%ADD10C,0.150*%
%ADD11C,0.100*%
%LPD*%
G54D10*
G75*
G01X2507042Y-2910108D02*
G03X2507042Y-2910108I-12700J0D01*
G01*
G54D11*
G75*
G01X556457Y-55682D02*
G03X556457Y-55682I-10000J0D01*
G01*
G54D11*
G75*
G01X655517Y-55682D02*
G03X655517Y-55682I-10000J0D01*
G01*
G54D11*
G75*
G01X606464Y-104894D02*
G03X606464Y-104894I-10000J0D01*
G01*
G54D11*
G75*
G01X556656Y-155892D02*
G03X556656Y-155892I-10000J0D01*
G01*
G54D11*
G75*
G01X656271Y-155892D02*
G03X656271Y-155892I-10000J0D01*
G01*
G54D11*
G75*
G01X163884Y-3032918D02*
G03X163884Y-3032918I-9500J0D01*
G01*
G54D11*
G75*
G01X264492Y-3032918D02*
G03X264492Y-3032918I-9500J0D01*
G01*
G54D11*
G75*
G01X407168Y-3032918D02*
G03X407168Y-3032918I-9500J0D01*
G01*
G54D11*
G75*
G01X507776Y-3032918D02*
G03X507776Y-3032918I-9500J0D01*
G01*
G54D11*
G75*
G01X100844Y-630039D02*
G03X100844Y-630039I-17500J0D01*
G01*
G54D11*
G75*
G01X101637Y-2212578D02*
G03X101637Y-2212578I-17500J0D01*
G01*
G54D11*
G75*
G01X101241Y-3058319D02*
G03X101241Y-3058319I-17500J0D01*
G01*
G54D11*
X2822575Y-35719D02*
X2744390Y-35719D01*
X2744390Y-67072D01*
X2623344Y-67072D01*
X2623344Y-35719D01*
X1531541Y-35719D01*
X1522016Y-45244D01*
X1522016Y-73819D01*
X1515269Y-80566D01*
X1507331Y-80566D01*
X1500584Y-73819D01*
X1500584Y-46831D01*
X1489472Y-35719D01*
X29369Y-35719D01*
X29369Y-3140472D01*
X1687116Y-3138884D01*
X1712516Y-3093640D01*
X1712516Y-3022203D01*
X1724025Y-3010694D01*
X1732359Y-3010694D01*
X1743869Y-3022203D01*
X1743869Y-3093640D01*
X1770459Y-3138884D01*
X2636044Y-3138884D01*
X2636044Y-2900759D01*
X2643188Y-2893616D01*
X2823369Y-2893616D01*
X2823369Y-1639094D01*
X2792016Y-1639094D01*
X2792016Y-1171575D01*
X2823369Y-1171575D01*
X2823369Y-35719D01*
X2822575Y-35719D01*
G54D11*
G75*
G01X2779750Y-118070D02*
G03X2779750Y-118070I-17500J0D01*
G01*
G54D11*
G75*
G01X2779948Y-683816D02*
G03X2779948Y-683816I-17500J0D01*
G01*
G54D11*
G75*
G01X2562389Y-520700D02*
G03X2562389Y-520700I-21000J0D01*
G01*
G54D11*
G75*
G01X2633589Y-981075D02*
G03X2633589Y-981075I-16000J0D01*
G01*
G54D11*
G75*
G01X2633589Y-1251347D02*
G03X2633589Y-1251347I-16000J0D01*
G01*
G54D11*
G75*
G01X1814152Y-1672034D02*
G03X1814152Y-1672034I-30000J0D01*
G01*
G54D11*
G75*
G01X2562984Y-2032992D02*
G03X2562984Y-2032992I-21000J0D01*
G01*
G54D11*
G75*
G01X2780147Y-2210792D02*
G03X2780147Y-2210792I-17500J0D01*
G01*
G54D11*
G75*
G01X1694026Y-1892696D02*
G03X1694026Y-1892696I-21000J0D01*
G01*
G54D11*
G75*
G01X1192376Y-1893094D02*
G03X1192376Y-1893094I-21000J0D01*
G01*
G54D11*
G75*
G01X324411Y-2035572D02*
G03X324411Y-2035572I-21000J0D01*
G01*
G54D11*
G75*
G01X323816Y-522089D02*
G03X323816Y-522089I-21000J0D01*
G01*
G54D11*
G75*
G01X100447Y-120849D02*
G03X100447Y-120849I-17500J0D01*
G01*
G54D11*
G75*
G01X1192972Y-380802D02*
G03X1192972Y-380802I-21000J0D01*
G01*
G54D11*
G75*
G01X1693828Y-379612D02*
G03X1693828Y-379612I-21000J0D01*
G01*
G54D11*
G75*
G01X291630Y-726678D02*
G03X259630Y-726678I-16000J0D01*
G01*
G54D11*
G75*
G01X259630Y-847202D02*
G03X291630Y-847202I16000J0D01*
G01*
G54D11*
X259629Y-847202D02*
X259629Y-726678D01*
G54D11*
X291629Y-726678D02*
X291629Y-847202D01*
G54D11*
G75*
G01X491655Y-726678D02*
G03X459655Y-726678I-16000J0D01*
G01*
G54D11*
G75*
G01X459655Y-847202D02*
G03X491655Y-847202I16000J0D01*
G01*
G54D11*
X459654Y-847202D02*
X459654Y-726678D01*
G54D11*
X491654Y-726678D02*
X491654Y-847202D01*
G54D11*
G75*
G01X291630Y-1614090D02*
G03X259630Y-1614090I-16000J0D01*
G01*
G54D11*
G75*
G01X259630Y-1734615D02*
G03X291630Y-1734615I16000J0D01*
G01*
G54D11*
X259629Y-1734615D02*
X259629Y-1614090D01*
G54D11*
X291629Y-1614090D02*
X291629Y-1734615D01*
G54D11*
G75*
G01X491581Y-1614090D02*
G03X459581Y-1614090I-16000J0D01*
G01*
G54D11*
G75*
G01X459581Y-1734616D02*
G03X491581Y-1734616I16000J0D01*
G01*
G54D11*
X459581Y-1734616D02*
X459581Y-1614090D01*
G54D11*
X491581Y-1614090D02*
X491581Y-1734616D01*
G54D11*
G75*
G01X291630Y-2606667D02*
G03X259630Y-2606667I-16000J0D01*
G01*
G54D11*
G75*
G01X259630Y-2727192D02*
G03X291630Y-2727192I16000J0D01*
G01*
G54D11*
X259629Y-2727192D02*
X259629Y-2606667D01*
G54D11*
X291629Y-2606667D02*
X291629Y-2727192D01*
G54D11*
G75*
G01X2588272Y-2605088D02*
G03X2556272Y-2605088I-16000J0D01*
G01*
G54D11*
G75*
G01X2556272Y-2725612D02*
G03X2588272Y-2725612I16000J0D01*
G01*
G54D11*
X2556272Y-2725612D02*
X2556272Y-2605088D01*
G54D11*
X2588272Y-2605088D02*
X2588272Y-2725612D01*
G54D11*
G75*
G01X2588350Y-726678D02*
G03X2556350Y-726678I-16000J0D01*
G01*
G54D11*
G75*
G01X2556350Y-847202D02*
G03X2588350Y-847202I16000J0D01*
G01*
G54D11*
X2556349Y-847202D02*
X2556349Y-726678D01*
G54D11*
X2588349Y-726678D02*
X2588349Y-847202D01*
M02*
