; Drill file
; Format: 2.4 (00.0000)
M48
INCH
T01C0.0157
T02C0.0197
T03C0.0283
T04C0.0394
T05C0.0425
T06C0.0472
T07C0.063
T08C0.0669
T09C0.0709
T10C0.0748
T11C0.0945
T12C0.0984
T13C0.1378
%
G05
G90
T01
X015250Y-117770
X016420Y-111660
X009580Y-114390
X016450Y-103120
X017660Y-102940
X016420Y-095090
X009280Y-092720
X009300Y-087910
X013910Y-087420
X016440Y-087000
X013300Y-083630
X014440Y-081780
X014360Y-080800
X014380Y-079810
X013780Y-079300
X014340Y-078810
X014300Y-077800
X015300Y-076810
X016640Y-076480
X017970Y-076480
X016690Y-078090
X016270Y-079780
X018360Y-081800
X020970Y-082410
X021560Y-082410
X022170Y-082500
X022270Y-083700
X022470Y-080800
X021470Y-080810
X021980Y-079270
X021880Y-078750
X022080Y-077890
X022470Y-076380
X023170Y-075280
X023280Y-073670
X023170Y-073060
X024280Y-071970
X025030Y-072270
X026340Y-072640
X028270Y-072750
X028470Y-072250
X029080Y-071770
X028860Y-071270
X029470Y-070950
X029020Y-070280
X029520Y-069640
X030060Y-069270
X030170Y-067770
X029270Y-065770
X029300Y-064780
X031250Y-065520
X032480Y-066360
X034050Y-066840
X034480Y-066550
X035000Y-066550
X035480Y-066550
X036500Y-066670
X038000Y-066230
X038250Y-066770
X038940Y-067060
X039000Y-066420
X039420Y-067780
X039410Y-068770
X039920Y-069780
X039230Y-070170
X038730Y-070170
X038250Y-069780
X038250Y-068800
X038230Y-067890
X041800Y-068270
X042640Y-068160
X042830Y-068660
X042310Y-069270
X041780Y-069280
X041830Y-069950
X042420Y-070420
X044640Y-070840
X044440Y-071530
X044230Y-072230
X043830Y-072830
X043860Y-073780
X042330Y-074630
X042330Y-075250
X042420Y-076450
X041730Y-076890
X039980Y-075940
X039500Y-075940
X039020Y-075920
X038520Y-075920
X038000Y-075920
X037500Y-075920
X037000Y-075920
X036050Y-076270
X036050Y-076860
X036050Y-078230
X036440Y-078560
X037330Y-078250
X037250Y-080750
X036230Y-080770
X034230Y-082380
X029170Y-080280
X028880Y-079670
X028080Y-079170
X028840Y-078690
X028060Y-080770
X028080Y-081800
X026450Y-082020
X024580Y-081800
X024780Y-078060
X024560Y-076470
X025970Y-076470
X030230Y-074250
X030270Y-073360
X032330Y-072640
X032500Y-075940
X032020Y-075940
X033000Y-075940
X033500Y-075940
X034000Y-075940
X034500Y-075940
X035000Y-075940
X035480Y-073830
X036500Y-073830
X040720Y-074970
X041700Y-073280
X043640Y-076140
X044060Y-078660
X044140Y-079630
X044730Y-079660
X045330Y-080270
X044870Y-080610
X044800Y-081300
X045130Y-081920
X044020Y-082140
X042840Y-082300
X042130Y-081580
X041670Y-081030
X042420Y-080780
X042420Y-079770
X041750Y-079270
X041310Y-079550
X041330Y-080310
X044810Y-084750
X044830Y-085360
X044230Y-085550
X043620Y-085660
X043560Y-087780
X044890Y-087780
X045640Y-087390
X046920Y-087270
X047520Y-086750
X047940Y-087640
X047310Y-088360
X047920Y-090750
X047700Y-091470
X048610Y-092160
X049550Y-090750
X051310Y-090750
X051020Y-091730
X051640Y-091750
X052940Y-092730
X055390Y-091730
X057030Y-089940
X057020Y-087730
X055310Y-086330
X055020Y-084720
X053110Y-084910
X052110Y-084530
X052020Y-086940
X051560Y-087770
X051530Y-088730
X052890Y-087730
X053030Y-089950
X050800Y-086940
X051590Y-081500
X052330Y-081230
X052130Y-079980
X052520Y-079330
X053500Y-080020
X055220Y-080730
X055220Y-081730
X056770Y-081310
X057080Y-081910
X057110Y-080230
X057410Y-079720
X057330Y-079220
X056590Y-078830
X055330Y-079630
X056380Y-080310
X055300Y-077910
X055230Y-077300
X057420Y-077310
X058730Y-075090
X058220Y-074730
X057020Y-074480
X056200Y-073910
X055720Y-072830
X056700Y-072800
X058220Y-072780
X059230Y-072800
X060530Y-072980
X061690Y-072830
X061690Y-071000
X060910Y-071000
X059810Y-070480
X058730Y-071120
X057720Y-070620
X057200Y-071110
X056220Y-070920
X055220Y-070920
X054300Y-070940
X053220Y-070920
X052730Y-070220
X052720Y-068730
X052610Y-067520
X052440Y-065700
X050590Y-066670
X049970Y-067580
X049220Y-067420
X049140Y-066940
X049250Y-066050
X048360Y-066220
X048120Y-065330
X048340Y-064610
X049140Y-064610
X049310Y-062200
X050420Y-062450
X050910Y-060800
X052720Y-061440
X053720Y-061380
X054720Y-061380
X055730Y-061410
X056720Y-061450
X058050Y-062470
X058140Y-063190
X056840Y-063190
X055020Y-064360
X054200Y-063720
X052720Y-062690
X054190Y-059300
X055220Y-059390
X056200Y-059360
X058200Y-059480
X059220Y-059390
X059200Y-058580
X059730Y-058420
X060220Y-059390
X061200Y-059390
X062200Y-059380
X062080Y-057610
X061220Y-057610
X060590Y-057000
X059200Y-057000
X058810Y-056000
X057800Y-056580
X056770Y-056190
X056920Y-054700
X057720Y-054980
X056530Y-053480
X055920Y-053690
X055200Y-053110
X054020Y-054120
X054420Y-054520
X054410Y-055750
X054630Y-057200
X052520Y-056110
X051830Y-056640
X050620Y-057750
X050200Y-058520
X051830Y-058800
X050250Y-055700
X050270Y-055000
X051020Y-054700
X051780Y-054660
X051830Y-053110
X053520Y-053250
X053810Y-051860
X051640Y-051110
X050620Y-050690
X051720Y-049690
X050700Y-048590
X050250Y-048280
X050700Y-047970
X051500Y-046970
X052200Y-047480
X052700Y-046390
X052970Y-044970
X053550Y-043690
X054860Y-043690
X057000Y-044170
X057000Y-044660
X058200Y-044770
X058200Y-044160
X058200Y-043190
X058200Y-042140
X058230Y-041140
X056970Y-041190
X057020Y-042690
X060090Y-042610
X060660Y-042090
X060590Y-043200
X061700Y-042470
X062370Y-042860
X064080Y-042270
X064580Y-042860
X065000Y-043670
X064390Y-044250
X064480Y-045190
X063300Y-047170
X064090Y-047590
X064590Y-047890
X062300Y-047580
X061690Y-047580
X060480Y-047580
X059520Y-046380
X058610Y-047360
X057310Y-046860
X057300Y-048160
X055890Y-047280
X055700Y-046550
X055170Y-046550
X054080Y-048670
X055890Y-049390
X056500Y-052090
X059480Y-049610
X060190Y-049780
X061520Y-049780
X062370Y-048580
X062910Y-051660
X060890Y-052160
X062890Y-054250
X063700Y-057200
X065280Y-057200
X065700Y-057590
X065000Y-058280
X066940Y-058000
X065500Y-056230
X066300Y-055280
X065000Y-051950
X065410Y-050270
X066520Y-049390
X071800Y-050670
X073310Y-050670
X074500Y-050670
X075170Y-050080
X074700Y-049280
X074300Y-048160
X074780Y-047660
X075000Y-046660
X074310Y-045670
X073280Y-045360
X073190Y-047450
X073000Y-048360
X072170Y-049190
X073730Y-051890
X074520Y-053230
X074160Y-054330
X073670Y-054870
X073300Y-057000
X072530Y-057270
X072110Y-056480
X071410Y-057280
X070920Y-055880
X072110Y-059480
X072690Y-059480
X073300Y-061080
X073300Y-061590
X075110Y-062480
X076060Y-063090
X074410Y-063500
X074200Y-065410
X075670Y-068410
X079870Y-070520
X078390Y-075000
X078000Y-076000
X077770Y-077310
X076780Y-076720
X076410Y-077110
X074520Y-076920
X073910Y-077130
X073420Y-077530
X072720Y-077940
X072230Y-078280
X071720Y-078110
X071810Y-077420
X071500Y-076060
X071410Y-075410
X071410Y-074480
X070220Y-074920
X072360Y-075660
X072720Y-076170
X073520Y-076520
X073120Y-075340
X074530Y-075110
X075000Y-075590
X076390Y-075000
X079190Y-077110
X079670Y-077110
X081890Y-076720
X082970Y-076410
X082190Y-075090
X084470Y-075610
X083380Y-078660
X082970Y-080020
X081480Y-080230
X080390Y-081330
X080190Y-081880
X079970Y-083230
X078980Y-082840
X078470Y-082420
X078980Y-080980
X077770Y-080200
X077370Y-080920
X076360Y-080030
X075970Y-079630
X074630Y-079630
X074190Y-080110
X073700Y-080110
X073200Y-080110
X072720Y-080110
X072220Y-080110
X071700Y-080110
X071770Y-079380
X070810Y-080030
X070410Y-080730
X070410Y-081250
X069480Y-079920
X070270Y-078880
X066500Y-078620
X064200Y-078020
X063310Y-077310
X063080Y-078780
X063090Y-079770
X063890Y-079910
X063090Y-080720
X063500Y-081220
X063090Y-081730
X062000Y-082530
X061200Y-082530
X059560Y-081730
X059030Y-081220
X060220Y-079390
X060830Y-077310
X061200Y-075500
X061700Y-074700
X060230Y-075500
X059940Y-074700
X063890Y-072800
X063890Y-072190
X064020Y-070720
X064020Y-069720
X064910Y-069630
X065500Y-069200
X065280Y-068700
X064500Y-068020
X064110Y-068500
X064110Y-067410
X063980Y-066200
X063700Y-065700
X064020Y-065190
X063980Y-064200
X065090Y-064720
X065300Y-066700
X064020Y-062800
X064020Y-061480
X064530Y-060480
X065300Y-060280
X065280Y-062080
X061750Y-062470
X061810Y-061270
X060770Y-061280
X059610Y-061390
X059300Y-062390
X059810Y-063170
X060920Y-063910
X058500Y-061380
X058160Y-066410
X056830Y-066420
X055020Y-066450
X050610Y-070730
X050200Y-071220
X049630Y-070130
X048520Y-069830
X048720Y-068390
X045340Y-070550
X045750Y-072910
X046610Y-072910
X047220Y-072910
X047720Y-072910
X048200Y-072910
X048700Y-072910
X049220Y-072910
X049220Y-074700
X048620Y-075330
X048530Y-076530
X048520Y-077840
X049220Y-077730
X048620Y-078730
X048520Y-079660
X048000Y-080410
X047500Y-080770
X047520Y-081700
X048120Y-081700
X049480Y-081480
X049470Y-080750
X049420Y-079230
X047720Y-078270
X047020Y-078750
X047500Y-079750
X051230Y-077230
X052030Y-077230
X052920Y-077220
X053220Y-074700
X051620Y-074690
X052190Y-072800
X052700Y-072800
X053720Y-072810
X054720Y-072810
X066310Y-071200
X066420Y-075910
X066690Y-082160
X066390Y-083050
X065590Y-082640
X065700Y-084330
X064720Y-084830
X064200Y-085120
X063670Y-084700
X062800Y-086110
X060690Y-084720
X060860Y-087730
X060920Y-088840
X059200Y-088730
X059550Y-087750
X060720Y-091730
X060700Y-092940
X059220Y-092640
X059220Y-092050
X059000Y-094120
X060020Y-094730
X060020Y-096580
X059220Y-096580
X059720Y-098230
X060520Y-099340
X059720Y-100360
X060520Y-101170
X063300Y-101280
X063300Y-099170
X063310Y-098340
X063390Y-097550
X063200Y-096730
X063520Y-094840
X063410Y-094140
X066390Y-094160
X067200Y-094270
X067220Y-095250
X066200Y-095730
X067590Y-096550
X068980Y-098640
X069390Y-099770
X068690Y-100750
X069190Y-101030
X068310Y-101750
X067340Y-102770
X066500Y-101970
X068190Y-103660
X068590Y-103160
X069590Y-102770
X071000Y-103730
X071890Y-103050
X073220Y-103140
X072480Y-104250
X071910Y-105270
X070940Y-105880
X071890Y-106730
X070910Y-107250
X069410Y-107770
X069280Y-108360
X068280Y-107250
X068580Y-106250
X069380Y-106770
X069000Y-105160
X072090Y-108450
X072670Y-109470
X072300Y-110280
X072500Y-110750
X072500Y-111270
X071590Y-110770
X071080Y-110270
X071780Y-109660
X071110Y-111830
X072300Y-112360
X071610Y-113390
X072300Y-115090
X073800Y-114670
X074200Y-113800
X073980Y-112730
X074810Y-112750
X076390Y-113270
X077020Y-112250
X076360Y-111780
X076360Y-111250
X077030Y-111250
X076390Y-110550
X074800Y-110250
X074170Y-110560
X074810Y-108750
X073980Y-107730
X074120Y-106660
X074810Y-106770
X076360Y-107250
X076380Y-105970
X076380Y-105030
X076390Y-104330
X074700Y-104250
X074110Y-104560
X074000Y-101750
X074340Y-100770
X074890Y-100770
X076470Y-101250
X076470Y-102360
X078770Y-103050
X078390Y-104230
X078060Y-105250
X078060Y-106730
X078580Y-108450
X077970Y-109170
X077370Y-108770
X078380Y-110560
X078380Y-111270
X078380Y-112060
X078380Y-112770
X078880Y-114690
X079770Y-114690
X080200Y-113780
X080780Y-112770
X082270Y-113280
X082270Y-114690
X081470Y-114690
X082080Y-116280
X083380Y-116280
X085560Y-116280
X086780Y-116280
X087580Y-116060
X088450Y-118110
X089270Y-119390
X091280Y-119280
X092750Y-119300
X093170Y-118200
X093870Y-118080
X094360Y-119270
X095360Y-119280
X096840Y-119470
X098360Y-119380
X098160Y-115800
X090750Y-116700
X087050Y-118980
X083340Y-118980
X081860Y-119060
X080360Y-116370
X077160Y-118980
X073910Y-118090
X072480Y-118110
X074800Y-115370
X076380Y-114780
X080590Y-110370
X081580Y-109560
X080970Y-108660
X079970Y-107750
X080860Y-107270
X080080Y-106250
X080880Y-105860
X080560Y-104230
X081470Y-102440
X080780Y-101270
X080020Y-101940
X078390Y-100770
X078560Y-100250
X078380Y-099250
X078480Y-098720
X078470Y-097530
X079380Y-097330
X080170Y-097340
X080170Y-096340
X081190Y-096750
X080670Y-098230
X080780Y-099950
X082330Y-100270
X082340Y-099250
X082340Y-098750
X083770Y-097140
X086060Y-098140
X086580Y-097840
X086970Y-097340
X086370Y-097030
X088170Y-096370
X089160Y-096470
X090190Y-096360
X090140Y-096940
X089550Y-097660
X091170Y-096470
X091170Y-095750
X092170Y-096470
X092640Y-094950
X094170Y-097060
X095560Y-096360
X096170Y-096340
X097700Y-094250
X099160Y-095970
X100950Y-096370
X101660Y-098770
X103860Y-097770
X105050Y-097670
X105450Y-096880
X104640Y-095970
X104660Y-094270
X105270Y-091830
X104280Y-089380
X105270Y-088670
X104450Y-087870
X105560Y-087060
X102860Y-088270
X102170Y-089060
X101660Y-089060
X101250Y-089470
X103030Y-089470
X101360Y-087670
X101660Y-087060
X101330Y-085970
X100020Y-085940
X100160Y-086670
X098340Y-087050
X095880Y-085480
X096060Y-084250
X095160Y-083250
X095670Y-082750
X096730Y-082000
X098360Y-081640
X098950Y-081660
X098950Y-082250
X101280Y-081160
X102280Y-081660
X103450Y-079840
X104170Y-078750
X105060Y-079230
X105050Y-080230
X104800Y-080770
X106560Y-083270
X101470Y-079630
X100780Y-077630
X098560Y-076120
X097670Y-076720
X096190Y-077830
X095700Y-077530
X095170Y-077750
X094190Y-078110
X093590Y-078120
X093080Y-077920
X092580Y-077730
X091980Y-077530
X090840Y-079330
X089220Y-080250
X088800Y-079120
X087780Y-079610
X086660Y-079200
X086170Y-078920
X087780Y-080980
X086670Y-081840
X086190Y-081840
X084690Y-081840
X084170Y-081840
X083670Y-081840
X083170Y-081840
X085860Y-083330
X086370Y-084970
X086160Y-086530
X085190Y-086530
X083670Y-086530
X082220Y-086690
X081440Y-087550
X082660Y-088330
X083170Y-088330
X084670Y-088330
X085690Y-088330
X086690Y-088340
X086690Y-089330
X086190Y-089360
X085690Y-089630
X085160Y-089630
X084670Y-089810
X083190Y-090160
X082660Y-090160
X082780Y-091420
X082380Y-091730
X080780Y-092950
X080980Y-093440
X079580Y-092330
X078560Y-092250
X078270Y-093140
X077580Y-092660
X076580Y-092730
X076190Y-091840
X076170Y-090940
X077580Y-091340
X077970Y-089940
X079300Y-091050
X079690Y-090620
X080090Y-090140
X079730Y-086340
X079140Y-085720
X078200Y-085440
X079470Y-084720
X080390Y-084250
X077580Y-087130
X076190Y-088230
X075220Y-088550
X075200Y-089750
X073500Y-091840
X072190Y-090340
X071300Y-089340
X070300Y-087440
X069500Y-086230
X069590Y-085720
X069500Y-084700
X071300Y-085230
X071700Y-086660
X072220Y-086660
X072700Y-086660
X073700Y-086660
X074720Y-086640
X076060Y-083830
X074980Y-082920
X072890Y-081890
X069300Y-082620
X068110Y-088140
X067700Y-090750
X068800Y-093330
X068020Y-093550
X070800Y-093940
X070480Y-094940
X071910Y-094550
X073220Y-096450
X074190Y-096440
X075560Y-096950
X076080Y-096530
X076950Y-097750
X077750Y-096940
X078140Y-096230
X078330Y-094840
X078880Y-094730
X078270Y-094120
X077130Y-095120
X075160Y-094940
X074700Y-098250
X074310Y-098660
X072480Y-098250
X071980Y-098750
X072000Y-100230
X071170Y-097140
X076390Y-098770
X076380Y-099250
X076450Y-099750
X076970Y-099750
X082660Y-103830
X082610Y-104500
X082470Y-105270
X082770Y-106250
X082770Y-106750
X084170Y-107030
X084340Y-105750
X084360Y-105250
X085190Y-103530
X085780Y-103250
X086170Y-104250
X087090Y-103770
X087980Y-103360
X088380Y-103970
X089390Y-104280
X089970Y-104750
X090360Y-105270
X090420Y-106230
X089750Y-107030
X089340Y-107550
X088560Y-107560
X086560Y-106750
X086080Y-107340
X086230Y-106000
X087160Y-109660
X087750Y-109860
X085170Y-110250
X082840Y-111780
X082340Y-111270
X082340Y-110750
X082770Y-108450
X084660Y-102250
X084450Y-100230
X087190Y-100250
X089580Y-102480
X090950Y-102270
X091640Y-102860
X092160Y-102380
X093580Y-102380
X094170Y-101370
X091950Y-100670
X090370Y-103770
X092560Y-105860
X092060Y-107250
X092620Y-107670
X094360Y-107560
X095140Y-107020
X094380Y-106270
X094270Y-105280
X094270Y-104750
X096060Y-103450
X096660Y-103450
X097980Y-103470
X096950Y-104800
X096840Y-105750
X096770Y-107270
X096300Y-100050
X098780Y-098450
X102580Y-101270
X100310Y-093450
X101560Y-093160
X097160Y-091250
X095660Y-090830
X094170Y-089160
X093560Y-089160
X092980Y-087440
X093660Y-085420
X094170Y-085420
X094060Y-083590
X092360Y-081140
X091750Y-081530
X091140Y-082440
X097160Y-080330
X096690Y-078530
X095190Y-075620
X095450Y-074920
X094470Y-075020
X097620Y-072810
X097940Y-071440
X097560Y-071030
X097160Y-071440
X096770Y-071030
X096360Y-071440
X095970Y-071030
X098360Y-071030
X098770Y-071440
X099160Y-071050
X099550Y-071440
X099950Y-071050
X100860Y-071360
X100880Y-070750
X101560Y-071050
X102270Y-070840
X102860Y-070840
X103580Y-070880
X106140Y-070360
X106660Y-070250
X106660Y-069640
X106560Y-071050
X106660Y-071550
X106640Y-072030
X106580Y-072640
X107360Y-075840
X102470Y-064020
X101370Y-063720
X101950Y-062700
X102360Y-062090
X102770Y-061480
X103170Y-061980
X103470Y-062480
X101550Y-061590
X100270Y-062890
X099860Y-063280
X100060Y-058700
X100450Y-057610
X101250Y-057000
X101050Y-055310
X098500Y-055840
X093750Y-054690
X091370Y-052920
X093170Y-051300
X093250Y-050690
X093950Y-049700
X093840Y-049090
X095450Y-047780
X093560Y-045660
X093560Y-044770
X092770Y-044170
X092140Y-043800
X092640Y-042980
X093940Y-042870
X094060Y-041980
X094060Y-040980
X093450Y-040390
X093340Y-037670
X093670Y-037170
X093470Y-036690
X093950Y-036170
X094270Y-035690
X094470Y-035080
X094770Y-034690
X094670Y-033880
X095270Y-033780
X095270Y-033170
X095580Y-032690
X095280Y-031970
X095480Y-031380
X095770Y-030950
X096170Y-029840
X097470Y-028470
X098170Y-027690
X097770Y-026840
X098050Y-025250
X100160Y-024660
X100470Y-025360
X101190Y-025340
X101160Y-024410
X102080Y-025830
X100620Y-026970
X099580Y-027050
X099470Y-029950
X103280Y-031270
X104160Y-037000
X100670Y-039700
X100560Y-040300
X099860Y-040300
X099360Y-037780
X098060Y-043390
X091140Y-045890
X090920Y-048280
X088050Y-043780
X086880Y-044170
X085560Y-044360
X085340Y-045450
X083860Y-043690
X082660Y-043450
X081670Y-044080
X081060Y-043300
X081500Y-042080
X082300Y-041890
X081910Y-040910
X081610Y-039910
X079700Y-039910
X079200Y-039910
X078190Y-039780
X077270Y-041380
X074980Y-042170
X074450Y-041690
X074310Y-042870
X071890Y-041190
X071910Y-040590
X070390Y-040080
X068020Y-041380
X068090Y-042870
X067200Y-043670
X066020Y-040880
X066390Y-039890
X066030Y-038830
X066120Y-038170
X065390Y-038170
X065020Y-038590
X064110Y-039380
X064060Y-041170
X063280Y-037190
X064090Y-036950
X066220Y-036670
X070390Y-037170
X073000Y-033690
X073300Y-032690
X073160Y-031720
X072610Y-031160
X073190Y-030220
X072690Y-029550
X072730Y-028550
X071800Y-028910
X073000Y-027530
X074420Y-027410
X075750Y-028450
X076880Y-029250
X076610Y-030870
X075720Y-030660
X075560Y-032080
X075580Y-033060
X075470Y-034000
X076270Y-034580
X077580Y-034470
X078800Y-034380
X079520Y-034380
X080840Y-034450
X081580Y-034480
X081880Y-036060
X081270Y-036890
X080860Y-037390
X079670Y-036080
X078770Y-037170
X077870Y-037170
X076670Y-038080
X075880Y-038060
X075280Y-036980
X075280Y-036230
X074530Y-038670
X074700Y-039270
X078770Y-043860
X079780Y-044470
X079950Y-045470
X076170Y-045450
X076970Y-048880
X076660Y-050080
X075690Y-052140
X076980Y-055080
X075480Y-057090
X076360Y-057730
X075470Y-061300
X080160Y-062660
X080780Y-062890
X079970Y-063890
X082090Y-063690
X082950Y-062280
X083470Y-061880
X084160Y-062270
X084170Y-063690
X084860Y-063910
X085190Y-063270
X085370Y-060270
X088550Y-061380
X089970Y-061800
X089950Y-060780
X091720Y-060480
X092360Y-060470
X093250Y-060410
X093950Y-060190
X093950Y-060890
X095450Y-060200
X093360Y-059090
X091440Y-058480
X091950Y-062980
X091470Y-063380
X090750Y-063590
X090340Y-064090
X090770Y-064910
X091280Y-065330
X090860Y-065720
X092160Y-065620
X091480Y-064520
X088300Y-062890
X086470Y-070700
X074220Y-078310
X087380Y-092220
X087310Y-093030
X087590Y-093530
X087170Y-093920
X087170Y-094420
X087170Y-094920
X088980Y-092640
X089280Y-091730
X089270Y-090830
X089780Y-090030
X091890Y-091250
X090270Y-093140
X095520Y-093440
X085160Y-114800
X069300Y-113800
X068610Y-113800
X068170Y-114200
X068020Y-112860
X066480Y-112280
X066000Y-113280
X066300Y-115580
X066910Y-115780
X066500Y-117190
X066200Y-117700
X065610Y-118020
X065390Y-117480
X064810Y-117970
X065200Y-118580
X064000Y-118500
X060220Y-117390
X059560Y-115770
X060020Y-113170
X060020Y-111250
X063390Y-110160
X063780Y-108770
X063520Y-107750
X063200Y-106750
X063690Y-105750
X063480Y-104750
X060720Y-105340
X060700Y-106360
X060020Y-106160
X060030Y-104340
X061280Y-107770
X056980Y-108750
X055390Y-108770
X056610Y-107170
X055920Y-104160
X056090Y-102360
X055200Y-102380
X057110Y-099750
X057110Y-097730
X055310Y-098750
X053200Y-097940
X052200Y-097750
X052810Y-096550
X051620Y-095770
X048880Y-096770
X048500Y-097970
X047580Y-096770
X047420Y-099560
X047440Y-100590
X047590Y-102380
X047220Y-103380
X048520Y-103170
X048830Y-105670
X047920Y-106170
X047910Y-108780
X045420Y-108780
X045110Y-107800
X044940Y-111800
X044700Y-114610
X045420Y-114810
X047200Y-115810
X048110Y-115780
X049110Y-115800
X047220Y-116810
X047890Y-113300
X051560Y-115800
X055610Y-114780
X055590Y-117380
X052800Y-111780
X051310Y-108770
X053090Y-107770
X051920Y-101770
X045330Y-099770
X043920Y-099770
X043420Y-100480
X039230Y-101200
X037050Y-102310
X036160Y-103800
X036730Y-100500
X039550Y-096770
X040910Y-096780
X040940Y-094690
X040310Y-093270
X037020Y-093170
X040610Y-089390
X043450Y-091770
X045220Y-091770
X045050Y-090170
X044420Y-090170
X043810Y-094170
X048610Y-094160
X055550Y-094750
X066000Y-109160
X066190Y-110270
X065980Y-110770
X068190Y-110750
X068190Y-110250
X068590Y-109730
X069280Y-111770
X063410Y-113280
X043560Y-115810
X037020Y-111280
X035610Y-111190
X035420Y-110000
X036120Y-110020
X035720Y-108800
X035130Y-108800
X037230Y-108780
X039310Y-108700
X039420Y-106800
X030970Y-106220
X030940Y-102800
X031160Y-098810
X031160Y-095880
X027120Y-094800
X025250Y-094910
X025300Y-096220
X025230Y-096800
X026250Y-097190
X026640Y-097700
X027270Y-099800
X027090Y-104560
X026840Y-111410
X026030Y-111830
X028140Y-111420
X026250Y-115940
X027920Y-119440
X035560Y-115830
X035420Y-114830
X029670Y-089800
X029470Y-088390
X029780Y-087780
X027110Y-088500
X025470Y-088910
X025470Y-089630
X035580Y-087780
X036890Y-087780
X034640Y-069770
X034030Y-067700
X033970Y-064550
X033480Y-064550
X033000Y-064630
X032530Y-063670
X031890Y-063500
X031060Y-062730
X030560Y-062550
X029970Y-062530
X029860Y-062060
X028970Y-062050
X028340Y-061940
X028190Y-061440
X028140Y-060410
X027750Y-060110
X028060Y-059640
X027750Y-059230
X026950Y-058730
X026950Y-057730
X026970Y-056750
X026560Y-055750
X026550Y-054750
X026970Y-053270
X026340Y-052030
X026750Y-051250
X026580Y-050750
X026750Y-049750
X026750Y-048720
X026750Y-047720
X027470Y-046720
X027160Y-046200
X026950Y-045720
X027340Y-044160
X026730Y-043140
X026380Y-042140
X027360Y-042220
X027170Y-041230
X026340Y-041140
X026770Y-040250
X026380Y-039770
X027360Y-039230
X027160Y-038730
X026860Y-038230
X028250Y-037220
X028970Y-036220
X029590Y-037630
X030920Y-037630
X032230Y-036940
X033520Y-035300
X034310Y-035720
X035980Y-036880
X036230Y-037310
X036920Y-036700
X036920Y-036190
X037220Y-035410
X038770Y-034450
X038230Y-033730
X038780Y-033450
X037520Y-033410
X037530Y-032470
X037500Y-031300
X038780Y-031300
X041030Y-030690
X041730Y-031200
X041310Y-031630
X041120Y-032170
X043420Y-032420
X043940Y-032020
X043950Y-031200
X043700Y-030690
X043200Y-028300
X043730Y-028090
X044330Y-027410
X044730Y-027890
X045220Y-027890
X043730Y-026970
X046810Y-025450
X047300Y-026580
X048920Y-026470
X049440Y-025170
X049090Y-024620
X048500Y-023270
X048500Y-022670
X047910Y-021880
X047090Y-022480
X047520Y-023080
X047310Y-020480
X046700Y-018700
X045920Y-018700
X044230Y-017310
X043610Y-018090
X042720Y-018090
X041720Y-018200
X041300Y-020090
X042230Y-020910
X042890Y-020910
X043410Y-020300
X043810Y-020890
X039670Y-022170
X038920Y-021480
X038420Y-020300
X039030Y-020110
X038830Y-022810
X038910Y-024200
X038920Y-025200
X039140Y-026910
X038640Y-027720
X038170Y-026880
X035750Y-027700
X035250Y-027810
X034750Y-027810
X034250Y-027810
X033750Y-027810
X033250Y-027810
X032730Y-027810
X033330Y-026080
X032050Y-025690
X031920Y-024190
X032720Y-023500
X033560Y-023410
X034890Y-023410
X034230Y-021700
X033730Y-021300
X032220Y-021410
X032750Y-019520
X034140Y-018700
X033750Y-018200
X033110Y-017800
X033520Y-017410
X034730Y-018090
X035230Y-018090
X035730Y-018090
X036730Y-018000
X037230Y-018000
X036730Y-016390
X037750Y-016390
X039420Y-016690
X040330Y-014250
X041230Y-014420
X041810Y-014200
X042440Y-014420
X042610Y-013390
X044340Y-014720
X044230Y-015690
X043220Y-015720
X043220Y-016500
X042420Y-016190
X040310Y-012980
X039610Y-011670
X040220Y-010970
X041200Y-009590
X040310Y-008200
X042130Y-007200
X041920Y-006300
X043500Y-005590
X044440Y-005980
X044410Y-007200
X045520Y-007200
X046200Y-007480
X046200Y-008280
X047410Y-008770
X049110Y-008270
X048200Y-011560
X047110Y-011560
X046700Y-010770
X046220Y-011770
X048110Y-012670
X048120Y-014480
X049410Y-014470
X050200Y-014480
X050720Y-014470
X052110Y-014470
X053410Y-014940
X053190Y-012940
X053800Y-012920
X052500Y-012270
X051520Y-012950
X053520Y-010840
X054200Y-009660
X055810Y-009530
X055700Y-010530
X056720Y-011550
X057390Y-010940
X056280Y-012750
X058000Y-015080
X057810Y-016440
X056410Y-016950
X055810Y-017860
X056190Y-018660
X055700Y-019450
X054590Y-019780
X053500Y-018670
X054800Y-017970
X054200Y-017170
X054610Y-016750
X051720Y-017560
X050700Y-017860
X049420Y-018870
X048480Y-018390
X048000Y-017660
X048480Y-016670
X046330Y-016470
X050520Y-020470
X052220Y-020480
X052810Y-020770
X051910Y-022770
X050720Y-022770
X050720Y-024060
X051920Y-024060
X053520Y-024720
X055090Y-025450
X057950Y-026420
X059830Y-027190
X061470Y-028390
X062310Y-031000
X063610Y-031080
X060670Y-034870
X060200Y-035480
X060300Y-036250
X059090Y-037080
X058170Y-037060
X058110Y-035950
X057090Y-034670
X056690Y-035060
X056190Y-035060
X055170Y-035060
X053690Y-035060
X053190Y-035060
X052690Y-035060
X052720Y-033670
X053060Y-032690
X053020Y-031700
X053910Y-030890
X055190Y-030270
X055700Y-030270
X056220Y-030660
X057950Y-029360
X056220Y-028450
X054690Y-028580
X054190Y-028580
X053690Y-028580
X053190Y-028580
X052690Y-028580
X050580Y-030480
X049920Y-031190
X048340Y-032170
X048310Y-033190
X047300Y-033090
X047110Y-033910
X048520Y-034840
X047480Y-035780
X047700Y-037700
X049310Y-039190
X049500Y-039720
X050110Y-039910
X048830Y-040700
X048830Y-041700
X048810Y-042670
X048020Y-043080
X048530Y-043700
X048920Y-045270
X048520Y-047480
X048500Y-048310
X046110Y-047020
X045220Y-046890
X046220Y-045610
X043620Y-048220
X041000Y-047450
X041330Y-046720
X041580Y-045920
X040220Y-044630
X038250Y-044750
X038230Y-043730
X036940Y-043720
X036730Y-044310
X037420Y-042700
X039020Y-041950
X039000Y-041310
X039530Y-041220
X039520Y-040220
X038270Y-039750
X037840Y-039250
X038230Y-038700
X039030Y-038720
X040220Y-037720
X041550Y-038720
X041360Y-039230
X041020Y-039720
X043530Y-039230
X044160Y-039200
X044310Y-038700
X043920Y-038270
X043720Y-039940
X043620Y-040410
X046810Y-040130
X047700Y-042170
X050610Y-043670
X051390Y-044190
X051190Y-045470
X051420Y-041190
X053590Y-041750
X054800Y-038780
X056020Y-039220
X056800Y-039420
X056670Y-037060
X054670Y-036780
X053780Y-037160
X052730Y-037970
X052200Y-037780
X052090Y-036780
X051520Y-035970
X050970Y-036480
X049810Y-035780
X050410Y-034190
X050200Y-037660
X054190Y-033670
X047110Y-031610
X047500Y-030060
X047200Y-029480
X047590Y-028880
X043920Y-033220
X043120Y-033810
X042720Y-034610
X042920Y-035200
X042630Y-035720
X040920Y-034720
X039520Y-036200
X037220Y-038420
X035450Y-039230
X035250Y-038700
X034920Y-038220
X033160Y-039720
X031450Y-039270
X030360Y-040140
X029660Y-040730
X029270Y-039770
X030380Y-041720
X029770Y-042220
X028950Y-043720
X029270Y-044730
X029610Y-046420
X030910Y-046420
X031530Y-046720
X031380Y-047700
X031060Y-049230
X031250Y-051340
X031390Y-052170
X031840Y-052660
X032560Y-051750
X030670Y-052160
X029280Y-051780
X029250Y-052770
X029270Y-053730
X030130Y-053840
X029270Y-054750
X029270Y-055750
X029270Y-056750
X029270Y-058750
X029270Y-060720
X031660Y-061920
X034830Y-062470
X035220Y-061620
X036610Y-062050
X037050Y-063330
X037750Y-062920
X038220Y-062720
X038000Y-064140
X040730Y-065140
X041610Y-065500
X042190Y-065140
X041640Y-066230
X041640Y-066730
X042720Y-066830
X040420Y-061830
X041390Y-060700
X042020Y-061230
X042220Y-060220
X041520Y-059780
X042230Y-059330
X041750Y-058450
X043330Y-058830
X043840Y-058220
X044030Y-057720
X044420Y-057220
X044610Y-056640
X047130Y-055620
X047110Y-055130
X047310Y-056310
X047610Y-056700
X047670Y-057480
X048060Y-057810
X048160Y-058590
X047530Y-053330
X044770Y-051720
X041380Y-050830
X041390Y-053020
X041620Y-053840
X041310Y-054560
X041230Y-055030
X041620Y-055450
X041220Y-056340
X038530Y-056220
X038230Y-055750
X038730Y-055230
X038250Y-054720
X038800Y-053780
X037480Y-053780
X036630Y-052670
X035050Y-052340
X035050Y-053140
X035140Y-053920
X035550Y-054340
X036940Y-055420
X036950Y-056420
X038250Y-056720
X038200Y-057730
X038200Y-058230
X038220Y-059730
X036610Y-059720
X035280Y-058830
X034730Y-059050
X033050Y-054730
X033050Y-053720
X031550Y-054250
X028250Y-051770
X029280Y-050770
X033030Y-047200
X035420Y-046720
X035220Y-046020
X035020Y-045520
X033020Y-043910
X033330Y-042690
X031360Y-043220
X031170Y-041220
X037440Y-040640
X037470Y-046310
X038220Y-046730
X038770Y-046310
X038220Y-047720
X038220Y-048730
X039310Y-048530
X039520Y-049220
X038750Y-049940
X039130Y-050420
X037950Y-050920
X037060Y-050620
X037030Y-050030
X037080Y-048470
X039410Y-047700
X038550Y-052250
X034810Y-051220
X026450Y-059730
X026330Y-060940
X024780Y-063660
X024080Y-064560
X023780Y-065060
X024170Y-065690
X024580Y-066770
X023950Y-067370
X024420Y-068530
X026450Y-070030
X026360Y-065800
X023670Y-064080
X021080Y-059750
X022300Y-058270
X022060Y-057170
X021880Y-056660
X021670Y-055250
X018160Y-053360
X018060Y-052780
X020670Y-051090
X019410Y-044750
X018090Y-044750
X016670Y-043360
X016890Y-039580
X016890Y-038360
X018110Y-038530
X019410Y-038550
X022050Y-036110
X021660Y-031730
X021280Y-030130
X020970Y-029700
X021580Y-029130
X021270Y-027690
X021880Y-027660
X022800Y-026950
X023190Y-028140
X022970Y-029720
X024950Y-030110
X026250Y-029910
X026840Y-030700
X027140Y-031220
X027450Y-031720
X026750Y-033720
X026750Y-034720
X027050Y-035220
X026750Y-035720
X029750Y-034700
X029840Y-031270
X030910Y-031340
X031590Y-031720
X033220Y-031940
X034110Y-032880
X034720Y-033520
X035420Y-031700
X035230Y-031200
X035030Y-030690
X030970Y-029500
X030360Y-027920
X029250Y-028890
X027170Y-028420
X025910Y-028370
X024860Y-028520
X024480Y-027050
X023940Y-024200
X024560Y-022810
X024280Y-021730
X024280Y-020730
X025500Y-019530
X025330Y-018720
X026140Y-017720
X026000Y-017120
X025500Y-017120
X024360Y-016700
X024360Y-016110
X023470Y-014640
X024950Y-013630
X027280Y-015720
X027230Y-016720
X029190Y-016970
X031190Y-018190
X030530Y-019030
X029770Y-020420
X028950Y-020160
X028270Y-021700
X027270Y-020750
X027250Y-019730
X026660Y-022220
X026660Y-022700
X027160Y-025220
X028550Y-025450
X029160Y-024950
X029560Y-026020
X029670Y-021970
X022980Y-022530
X020660Y-022530
X019160Y-021730
X017770Y-021450
X017030Y-021250
X015280Y-021770
X014780Y-020450
X015270Y-019750
X014730Y-019450
X014720Y-018750
X014670Y-017730
X015280Y-016730
X015280Y-015750
X015280Y-014750
X016690Y-015120
X017590Y-014730
X018270Y-014750
X018860Y-013700
X021380Y-013630
X023140Y-017700
X022970Y-018420
X022970Y-019530
X021920Y-019530
X019670Y-020250
X019770Y-018440
X019770Y-017830
X017450Y-017810
X017470Y-017030
X016780Y-017110
X017560Y-019230
X017480Y-023330
X018470Y-023230
X018080Y-024720
X017580Y-025420
X017190Y-025840
X016780Y-025440
X015780Y-026030
X014780Y-026640
X013190Y-027230
X012670Y-027230
X016390Y-027950
X014390Y-023030
X013870Y-022630
X013580Y-021440
X011580Y-018340
X013980Y-015840
X013190Y-014340
X012580Y-012110
X013950Y-009520
X014590Y-009520
X019050Y-008670
X024770Y-008590
X025250Y-009020
X025750Y-007470
X027910Y-006000
X029360Y-009690
X031840Y-011090
X032310Y-011690
X033220Y-010690
X034220Y-010980
X034920Y-010870
X035220Y-009670
X034230Y-009690
X034440Y-008980
X032970Y-009020
X032220Y-008200
X032630Y-005000
X034920Y-005410
X036730Y-009080
X037330Y-009080
X038120Y-008190
X036230Y-009690
X038230Y-010870
X038030Y-011770
X036940Y-012980
X036420Y-012980
X035920Y-012980
X035420Y-013080
X034620Y-013080
X034720Y-014280
X033810Y-014310
X035730Y-014280
X036230Y-014280
X037230Y-014280
X041910Y-011280
X042610Y-010480
X043110Y-011170
X043220Y-009690
X040110Y-005500
X031550Y-013090
X028270Y-013410
X028080Y-014330
X021360Y-024330
X009800Y-023940
X008580Y-024640
X008980Y-025660
X006700Y-025770
X006700Y-026470
X005090Y-027090
X003890Y-028170
X006980Y-028950
X007890Y-028950
X008280Y-033470
X008270Y-034380
X008280Y-034970
X007380Y-036170
X009160Y-040080
X009300Y-041030
X010440Y-040080
X011980Y-039530
X012480Y-039950
X012170Y-040950
X012390Y-041750
X012360Y-042250
X012530Y-043920
X012120Y-044630
X012250Y-045500
X010420Y-045470
X010380Y-046020
X009300Y-046530
X010380Y-047750
X010280Y-048520
X010300Y-050530
X009300Y-051190
X009300Y-052060
X010300Y-052610
X010300Y-054050
X009690Y-055170
X009480Y-056390
X007480Y-055530
X007390Y-058390
X009140Y-058780
X010440Y-058770
X012170Y-059160
X012190Y-057050
X012190Y-056530
X012190Y-055030
X012190Y-053980
X012190Y-052050
X012030Y-051030
X012080Y-049980
X012690Y-050170
X012560Y-049080
X012280Y-047360
X010440Y-044420
X010270Y-043020
X007780Y-042450
X007310Y-041440
X007250Y-043940
X007280Y-045890
X007520Y-046880
X007250Y-050550
X007410Y-051360
X007770Y-060360
X004590Y-063390
X004060Y-068920
X004300Y-074910
X009190Y-072090
X011690Y-072770
X011580Y-073480
X012670Y-073980
X012190Y-074590
X013800Y-076090
X014800Y-073080
X015280Y-072670
X016080Y-073280
X017580Y-073950
X018080Y-073080
X019780Y-075480
X021250Y-074190
X020280Y-077780
X020550Y-079270
X014280Y-072470
X008870Y-080920
X018090Y-058780
X019410Y-058780
X012170Y-037660
X012910Y-037140
X008280Y-021840
X005370Y-022250
X005020Y-017500
X005020Y-016950
X005020Y-016480
X007270Y-016480
X007270Y-016950
X007270Y-017500
X008280Y-015950
X008270Y-011030
X009550Y-009330
X004870Y-008840
X044340Y-034280
X059550Y-038800
X060500Y-039170
X060500Y-044870
X061890Y-044890
X058190Y-045780
X067110Y-026470
X066920Y-025660
X066410Y-025970
X064640Y-025250
X064200Y-024050
X064200Y-023270
X065800Y-022670
X066480Y-022170
X065700Y-021160
X066110Y-020660
X065700Y-020170
X065980Y-019670
X066810Y-019660
X066810Y-019160
X067700Y-017880
X068080Y-016690
X065200Y-017660
X063880Y-018160
X063300Y-017340
X062910Y-017750
X062780Y-018770
X062390Y-019270
X063200Y-019270
X061090Y-019270
X060610Y-018360
X059870Y-018700
X062190Y-016440
X062360Y-014450
X061000Y-012750
X059410Y-015080
X064390Y-012380
X065480Y-012920
X065980Y-012920
X066530Y-012920
X067480Y-012120
X067980Y-011550
X068190Y-010560
X067500Y-010250
X068980Y-010560
X069780Y-010450
X070580Y-010750
X069870Y-011360
X069190Y-011940
X068700Y-012890
X070690Y-012030
X071440Y-011890
X071950Y-011390
X072500Y-010800
X073190Y-010140
X074000Y-009940
X074890Y-009050
X073080Y-008860
X073090Y-006470
X074000Y-006560
X074590Y-006770
X075270Y-007080
X076270Y-007060
X077270Y-007550
X078190Y-007250
X078670Y-007140
X079160Y-006840
X081360Y-006660
X082970Y-006750
X082970Y-009660
X081360Y-009410
X080060Y-010330
X079190Y-010330
X078670Y-010330
X078170Y-010330
X077670Y-010330
X076270Y-010340
X075970Y-012640
X076170Y-013890
X076170Y-015030
X076690Y-015050
X077690Y-015050
X078170Y-015050
X079170Y-015050
X078840Y-013860
X077530Y-013860
X077160Y-016730
X078670Y-016730
X079670Y-016730
X080190Y-016730
X080670Y-016730
X081170Y-018560
X081580Y-019770
X079750Y-020170
X079160Y-020770
X078670Y-020970
X077660Y-021170
X077160Y-021380
X078170Y-022660
X076950Y-023860
X075270Y-023230
X075450Y-022450
X072810Y-024530
X071190Y-024940
X071090Y-025450
X071500Y-026880
X073980Y-025750
X076670Y-026580
X078170Y-028230
X078690Y-028250
X080170Y-028660
X080270Y-029910
X080670Y-030410
X079690Y-031300
X078780Y-030860
X077670Y-031420
X078970Y-032170
X078670Y-032860
X080860Y-032030
X081880Y-032670
X083770Y-032750
X085050Y-033920
X083560Y-034670
X083080Y-037560
X083080Y-038170
X084170Y-037670
X085080Y-037190
X086880Y-037190
X086920Y-038160
X085780Y-039480
X085860Y-040980
X086690Y-041190
X087470Y-041380
X088170Y-041590
X087560Y-042190
X086080Y-041970
X089060Y-041190
X088090Y-039500
X088300Y-036060
X087840Y-034870
X086890Y-033280
X087750Y-031160
X088280Y-030660
X088780Y-030160
X089950Y-031360
X090860Y-031770
X089670Y-032420
X089700Y-033780
X091060Y-033690
X091950Y-035420
X090340Y-036630
X090050Y-036170
X092160Y-031360
X092660Y-030770
X091470Y-030450
X091420Y-027950
X091940Y-027470
X093420Y-027970
X094480Y-027860
X094050Y-025410
X092770Y-025410
X091080Y-025640
X091080Y-025160
X091970Y-023660
X093160Y-023310
X093910Y-023310
X095780Y-025110
X096860Y-021160
X094560Y-020550
X093860Y-018870
X092770Y-016840
X091450Y-016860
X090370Y-018750
X089080Y-018140
X087970Y-017640
X087170Y-017160
X085670Y-016390
X087170Y-015250
X088380Y-015940
X085660Y-018360
X085640Y-020060
X087470Y-020270
X088970Y-019950
X087970Y-022060
X087720Y-022500
X086660Y-022830
X085970Y-022450
X085050Y-023660
X086450Y-025030
X086970Y-024730
X087080Y-025840
X088030Y-027640
X086880Y-028170
X085170Y-028250
X084670Y-028250
X084170Y-026530
X082770Y-026550
X082190Y-026550
X081690Y-026560
X081170Y-026560
X081770Y-025450
X080670Y-023840
X080170Y-023110
X079560Y-024060
X078660Y-025450
X079670Y-026250
X082170Y-028660
X089380Y-027160
X089170Y-026050
X089170Y-024660
X088780Y-024250
X094170Y-030950
X093970Y-031560
X093720Y-032370
X094450Y-032370
X099560Y-022170
X096360Y-017160
X097660Y-016160
X098660Y-016160
X098860Y-013330
X099660Y-013340
X100060Y-012520
X100450Y-012120
X101160Y-013530
X102670Y-014640
X103360Y-013730
X102840Y-012230
X105360Y-011440
X105860Y-011050
X105450Y-010620
X108360Y-011450
X108560Y-009560
X108550Y-008640
X108160Y-008160
X107840Y-007660
X102950Y-007050
X102170Y-007050
X101270Y-006840
X101670Y-009360
X100950Y-009770
X097450Y-009250
X096160Y-008050
X095340Y-008840
X094700Y-008140
X093750Y-008530
X093120Y-007590
X091750Y-007840
X090890Y-007750
X089270Y-007640
X088160Y-007750
X087720Y-008640
X086170Y-008940
X085160Y-008730
X080470Y-011630
X080470Y-014140
X079380Y-018360
X078170Y-018560
X076770Y-019170
X075950Y-018360
X075170Y-018140
X071980Y-018360
X072200Y-015670
X071590Y-015450
X071500Y-014750
X071550Y-013980
X070980Y-013730
X073200Y-013780
X069590Y-009550
X069780Y-008360
X068190Y-007160
X067590Y-007660
X063590Y-009730
X063020Y-009340
X062280Y-009450
X060880Y-008950
X057020Y-020870
X057310Y-022170
X058520Y-024470
X059800Y-024560
X062310Y-024560
X068590Y-021560
X083520Y-039890
X084050Y-049580
X083470Y-051190
X084830Y-051190
X087190Y-052610
X086250Y-054690
X083280Y-054590
X082300Y-054310
X082080Y-051610
X082080Y-050700
X081080Y-051610
X102840Y-058120
X108360Y-018780
X094250Y-012940
X093200Y-012220
X092270Y-012280
X090910Y-012730
T02
X015690Y-113270
X084770Y-113690
X101970Y-015160
T03
X015280Y-114860
X016280Y-114860
X017280Y-114860
X018280Y-114860
X019280Y-114860
X020280Y-114860
X021280Y-114860
X022280Y-114860
X023280Y-114860
X024280Y-114860
X025280Y-114860
X026280Y-114860
X027280Y-114860
X028280Y-114860
X034230Y-114810
X034230Y-115810
X034230Y-116810
X034230Y-113810
X034230Y-112810
X034230Y-111810
X034230Y-110810
X034230Y-109810
X034230Y-108810
X034230Y-107810
X034230Y-106810
X034230Y-105810
X034230Y-104810
X034230Y-103810
X034230Y-102810
X034230Y-101810
X034230Y-100810
X034230Y-099810
X034230Y-098810
X034230Y-097810
X034230Y-096810
X034230Y-095810
X034230Y-094810
X034230Y-093810
X034230Y-092810
X034230Y-091810
X034230Y-090810
X034230Y-089810
X034230Y-088810
X034230Y-087810
X038230Y-087810
X038230Y-088810
X038230Y-089810
X038230Y-090810
X038230Y-091810
X038230Y-092810
X038230Y-093810
X038230Y-094810
X038230Y-095810
X038230Y-096810
X038230Y-097810
X038230Y-098810
X038230Y-099810
X038230Y-100810
X038230Y-101810
X038230Y-102810
X038230Y-103810
X038230Y-104810
X038230Y-105810
X038230Y-106810
X038230Y-107810
X038230Y-108810
X038230Y-109810
X038230Y-110810
X038230Y-111810
X038230Y-112810
X038230Y-113810
X038230Y-114810
X038230Y-115810
X038230Y-116810
X042230Y-116810
X042230Y-115810
X042230Y-114810
X042230Y-113810
X042230Y-112810
X042230Y-111810
X042230Y-110810
X042230Y-109810
X042230Y-108810
X042230Y-107810
X042230Y-106810
X042230Y-105810
X042230Y-104810
X042230Y-103810
X042230Y-102810
X042230Y-101810
X042230Y-100810
X042230Y-099810
X042230Y-098810
X042230Y-097810
X042230Y-096810
X042230Y-095810
X042230Y-094810
X042230Y-093810
X042230Y-092810
X042230Y-091810
X042230Y-090810
X042230Y-089810
X042230Y-088810
X042230Y-087810
X046230Y-087810
X046230Y-088810
X046230Y-089810
X046230Y-090810
X046230Y-091810
X046230Y-092810
X046230Y-093810
X046230Y-094810
X046230Y-095810
X046230Y-096810
X046230Y-097810
X046230Y-098810
X046230Y-099810
X046230Y-100810
X046230Y-101810
X046230Y-102810
X046230Y-103810
X046230Y-104810
X046230Y-105810
X046230Y-106810
X046230Y-107810
X046230Y-108810
X046230Y-109810
X046230Y-110810
X046230Y-111810
X046230Y-112810
X046230Y-113810
X046230Y-114810
X046230Y-115810
X046230Y-116810
X050230Y-116810
X050230Y-115810
X050230Y-114810
X050230Y-113810
X050230Y-112810
X050230Y-111810
X050230Y-110810
X050230Y-109810
X050230Y-108810
X050230Y-107810
X050230Y-106810
X050230Y-105810
X050230Y-104810
X050230Y-103810
X050230Y-102810
X050230Y-101810
X050230Y-100810
X050230Y-099810
X050230Y-098810
X050230Y-097810
X050230Y-096810
X050230Y-095810
X050230Y-094810
X050230Y-093810
X050230Y-092810
X050230Y-091810
X050230Y-090810
X050230Y-089810
X050230Y-088810
X050230Y-087810
X054230Y-087810
X054230Y-088810
X054230Y-089810
X054230Y-090810
X054230Y-091810
X054230Y-092810
X054230Y-093810
X054230Y-094810
X054230Y-095810
X054230Y-096810
X054230Y-097810
X054230Y-098810
X054230Y-099810
X054230Y-100810
X054230Y-101810
X054230Y-102810
X054230Y-103810
X054230Y-104810
X054230Y-105810
X054230Y-106810
X054230Y-107810
X054230Y-108810
X054230Y-109810
X054230Y-110810
X054230Y-111810
X054230Y-112810
X054230Y-113810
X054230Y-114810
X054230Y-115810
X054230Y-116810
X058230Y-116810
X058230Y-115810
X058230Y-114810
X058230Y-113810
X058230Y-112810
X058230Y-111810
X058230Y-110810
X058230Y-109810
X058230Y-108810
X058230Y-107810
X058230Y-106810
X058230Y-105810
X058230Y-104810
X058230Y-103810
X058230Y-102810
X058230Y-101810
X058230Y-100810
X058230Y-099810
X058230Y-098810
X058230Y-097810
X058230Y-096810
X058230Y-095810
X058230Y-094810
X058230Y-093810
X058230Y-092810
X058230Y-091810
X058230Y-090810
X058230Y-089810
X058230Y-088810
X058230Y-087810
X062230Y-087810
X062230Y-088810
X062230Y-089810
X062230Y-090810
X062230Y-091810
X062230Y-092810
X062230Y-093810
X062230Y-094810
X062230Y-095810
X062230Y-096810
X062230Y-097810
X062230Y-098810
X062230Y-099810
X062230Y-100810
X062230Y-101810
X062230Y-102810
X062230Y-103810
X062230Y-104810
X062230Y-105810
X062230Y-106810
X062230Y-107810
X062230Y-108810
X062230Y-109810
X062230Y-110810
X062230Y-111810
X062230Y-112810
X062230Y-113810
X062230Y-114810
X062230Y-115810
X062230Y-116810
X028280Y-108860
X027280Y-108860
X026280Y-108860
X025280Y-108860
X024280Y-108860
X023280Y-108860
X022280Y-108860
X021280Y-108860
X020280Y-108860
X019280Y-108860
X018280Y-108860
X017280Y-108860
X016280Y-108860
X015280Y-108860
X015280Y-106850
X016280Y-106850
X017280Y-106850
X018280Y-106850
X019280Y-106850
X020280Y-106850
X021280Y-106850
X022280Y-106850
X023280Y-106850
X024280Y-106850
X025280Y-106850
X026280Y-106850
X027280Y-106850
X028280Y-106850
X028280Y-100850
X027280Y-100850
X026280Y-100850
X025280Y-100850
X024280Y-100850
X023280Y-100850
X022280Y-100850
X021280Y-100850
X020280Y-100850
X019280Y-100850
X018280Y-100850
X017280Y-100850
X016280Y-100850
X015280Y-100850
X015280Y-098810
X016280Y-098810
X017280Y-098810
X018280Y-098810
X019280Y-098810
X020280Y-098810
X021280Y-098810
X022280Y-098810
X023280Y-098810
X024280Y-098810
X025280Y-098810
X026280Y-098810
X027280Y-098810
X028280Y-098810
X028280Y-092810
X027280Y-092810
X026280Y-092810
X025280Y-092810
X024280Y-092810
X023280Y-092810
X022280Y-092810
X021280Y-092810
X020280Y-092810
X019280Y-092810
X018280Y-092810
X017280Y-092810
X016280Y-092810
X015280Y-092810
X015280Y-090810
X016280Y-090810
X017280Y-090810
X018280Y-090810
X019280Y-090810
X020280Y-090810
X021280Y-090810
X022280Y-090810
X023280Y-090810
X024280Y-090810
X025280Y-090810
X026280Y-090810
X027280Y-090810
X028280Y-090810
X028280Y-084810
X027280Y-084810
X026280Y-084810
X025280Y-084810
X024280Y-084810
X023280Y-084810
X022280Y-084810
X021280Y-084810
X020280Y-084810
X019280Y-084810
X018280Y-084810
X017280Y-084810
X016280Y-084810
X015280Y-084810
X045230Y-063190
X045230Y-062190
X045230Y-061190
X045230Y-060190
X045230Y-059190
X045230Y-058190
X045230Y-057190
X045230Y-056190
X045230Y-055190
X045230Y-054190
X045230Y-053190
X045230Y-052190
X045230Y-051190
X045230Y-050190
X045230Y-049190
X045230Y-048190
X046230Y-047690
X046230Y-048690
X046230Y-049690
X046230Y-050690
X046230Y-051690
X046230Y-052690
X046230Y-053690
X046230Y-054690
X046230Y-055690
X046230Y-056690
X046230Y-057690
X046230Y-058690
X046230Y-059690
X046230Y-060690
X046230Y-061690
X046230Y-062690
X045230Y-045190
X045230Y-044190
X045230Y-043190
X045230Y-042190
X045230Y-041190
X045230Y-040190
X045230Y-039190
X045230Y-038190
X045230Y-037190
X045230Y-036190
X045230Y-035190
X045230Y-034190
X045230Y-033190
X045230Y-032190
X045230Y-031190
X045230Y-030190
X046230Y-029690
X046230Y-030690
X046230Y-031690
X046230Y-032690
X046230Y-033690
X046230Y-034690
X046230Y-035690
X046230Y-036690
X046230Y-037690
X046230Y-038690
X046230Y-039690
X046230Y-040690
X046230Y-041690
X046230Y-042690
X046230Y-043690
X046230Y-044690
X017270Y-011720
X016270Y-011720
X015270Y-011720
X014270Y-011720
X014270Y-008720
X015270Y-008720
X016270Y-008720
X017270Y-008720
X095670Y-089250
X096670Y-089250
X097670Y-089250
X098670Y-089250
X098670Y-092250
X097670Y-092250
X096670Y-092250
X095670Y-092250
T04
X004280Y-062780
X004280Y-061780
X004280Y-060780
X004280Y-059780
X005280Y-059780
X005280Y-060780
X005280Y-061780
X006280Y-061780
X006280Y-060780
X006280Y-059780
X006280Y-058780
X005280Y-058780
X005280Y-057780
X004280Y-057780
X004280Y-058780
X004280Y-056780
X004280Y-055780
X005280Y-055780
X005280Y-056780
X006280Y-056780
X006280Y-057780
X006280Y-055780
X006280Y-054780
X005280Y-054780
X005280Y-053780
X006280Y-053780
X006280Y-052780
X005280Y-052780
X004280Y-052780
X004280Y-053780
X004280Y-054780
X004280Y-051780
X004280Y-050780
X005280Y-050780
X006280Y-050780
X006280Y-051780
X005280Y-051780
X005280Y-049780
X006280Y-049780
X006280Y-048780
X005280Y-048780
X004280Y-048780
X004280Y-049780
X004280Y-047780
X004280Y-046780
X005280Y-046780
X006280Y-046780
X006280Y-047780
X005280Y-047780
X005280Y-045780
X006280Y-045780
X006280Y-044780
X006280Y-043780
X005280Y-043780
X005280Y-044780
X004280Y-044780
X004280Y-043780
X004280Y-042780
X004280Y-041780
X004280Y-040780
X004280Y-039780
X004280Y-038780
X004280Y-037780
X004280Y-036780
X004280Y-035780
X004280Y-034780
X004280Y-033780
X004280Y-032780
X005280Y-032780
X005280Y-033780
X005280Y-034780
X005280Y-035780
X006280Y-035780
X006280Y-036780
X005280Y-036780
X005280Y-037780
X006280Y-037780
X006280Y-038780
X006280Y-039780
X005280Y-039780
X005280Y-038780
X005280Y-040780
X005280Y-041780
X005280Y-042780
X006280Y-042780
X006280Y-041780
X006280Y-040780
X004280Y-045780
X013780Y-045780
X013780Y-044780
X013780Y-043780
X014780Y-043780
X015780Y-043780
X015780Y-044780
X014780Y-044780
X014780Y-045780
X015780Y-045780
X015780Y-046780
X014780Y-046780
X014780Y-047780
X015780Y-047780
X015780Y-048780
X014780Y-048780
X014780Y-049780
X015780Y-049780
X015780Y-050780
X014780Y-050780
X014780Y-051780
X015780Y-051780
X015780Y-052780
X015780Y-053780
X014780Y-053780
X014780Y-054780
X013780Y-054780
X013780Y-055780
X014780Y-055780
X014780Y-056780
X013780Y-056780
X013780Y-057780
X014780Y-057780
X015780Y-057780
X015780Y-058780
X014780Y-058780
X014780Y-059780
X013780Y-059780
X013780Y-060780
X013780Y-061780
X013780Y-062780
X014780Y-062780
X015780Y-062780
X015780Y-061780
X014780Y-061780
X014780Y-060780
X015780Y-060780
X015780Y-059780
X013780Y-058780
X015780Y-056780
X015780Y-055780
X015780Y-054780
X014780Y-052780
X013780Y-052780
X013780Y-053780
X013780Y-051780
X013780Y-050780
X013780Y-049780
X013780Y-048780
X013780Y-047780
X013780Y-046780
X013780Y-042780
X013780Y-041780
X013780Y-040780
X013780Y-039780
X013780Y-038780
X013780Y-037780
X013780Y-036780
X013780Y-035780
X013780Y-034780
X013780Y-033780
X013780Y-032780
X014780Y-032780
X014780Y-033780
X014780Y-034780
X014780Y-035780
X015780Y-035780
X015780Y-036780
X014780Y-036780
X014780Y-037780
X015780Y-037780
X015780Y-038780
X015780Y-039780
X014780Y-039780
X014780Y-038780
X014780Y-040780
X014780Y-041780
X014780Y-042780
X015780Y-042780
X015780Y-041780
X015780Y-040780
X015780Y-034780
X015780Y-033780
X015780Y-032780
X015780Y-031780
X014780Y-031780
X013780Y-031780
X006280Y-031780
X005280Y-031780
X004280Y-031780
X006280Y-032780
X006280Y-033780
X006280Y-034780
X007870Y-025440
X009810Y-020600
X004810Y-020600
X007680Y-005460
X007680Y-004470
X010280Y-004470
X010280Y-005460
X015260Y-005460
X015260Y-004470
X017860Y-004470
X017860Y-005460
X022480Y-006130
X023480Y-006130
X024480Y-006130
X024500Y-007130
X023500Y-007130
X022500Y-007130
X029080Y-005400
X029870Y-005400
X030660Y-005400
X030900Y-004410
X031680Y-004410
X031680Y-005400
X029870Y-004410
X029080Y-004410
X036650Y-004410
X037430Y-004410
X037430Y-005400
X036650Y-005400
X038220Y-005400
X038460Y-004410
X039250Y-004410
X039250Y-005400
X040440Y-018920
X040440Y-019920
X054590Y-021180
X054590Y-022180
X054590Y-023180
X062230Y-027140
X062230Y-030140
X062230Y-033190
X062230Y-036190
X068230Y-036190
X068230Y-033190
X068230Y-030140
X068230Y-027140
X074450Y-023150
X074450Y-018150
X088170Y-038690
X088160Y-046700
X089160Y-046700
X090160Y-046700
X090160Y-047700
X089160Y-047700
X089160Y-048700
X090160Y-048700
X090160Y-049700
X089160Y-049700
X089160Y-050700
X088160Y-050700
X088160Y-049700
X088160Y-048700
X088160Y-047700
X087160Y-047700
X086160Y-047700
X086160Y-046700
X087160Y-046700
X087160Y-048700
X087160Y-049700
X087160Y-050700
X088160Y-051700
X089160Y-051700
X090160Y-051700
X090160Y-050700
X090160Y-052700
X089160Y-052700
X088160Y-052700
X088160Y-053700
X088160Y-054700
X089160Y-054700
X089160Y-053700
X090160Y-053700
X090160Y-054700
X090160Y-055700
X089160Y-055700
X089160Y-056700
X090160Y-056700
X090160Y-057700
X089160Y-057700
X089160Y-058700
X090160Y-058700
X088160Y-058700
X088160Y-057700
X088160Y-056700
X088160Y-055700
X087160Y-055700
X087160Y-056700
X086160Y-056700
X086160Y-057700
X087160Y-057700
X087160Y-058700
X086160Y-058700
X085160Y-058700
X085160Y-057700
X084160Y-057700
X083160Y-057700
X083160Y-058700
X084160Y-058700
X084160Y-056700
X085160Y-056700
X085160Y-055700
X083160Y-056700
X082160Y-056700
X081160Y-056700
X080160Y-056700
X080160Y-055700
X081160Y-055700
X080160Y-054700
X079160Y-054700
X079160Y-053700
X080160Y-053700
X080160Y-052700
X079160Y-052700
X079160Y-051700
X080160Y-051700
X080160Y-050700
X081160Y-050700
X081160Y-049700
X080160Y-049700
X080160Y-048700
X081160Y-048700
X082160Y-048700
X082160Y-047700
X082160Y-046700
X081160Y-046700
X080160Y-046700
X079160Y-046700
X079160Y-047700
X080160Y-047700
X081160Y-047700
X083160Y-047700
X083160Y-048700
X084160Y-048700
X085160Y-048700
X085160Y-047700
X085160Y-046700
X084160Y-046700
X083160Y-046700
X084160Y-047700
X085160Y-049700
X086160Y-048700
X079160Y-048700
X079160Y-049700
X079160Y-050700
X078160Y-050700
X078160Y-049700
X078160Y-048700
X078160Y-047700
X078160Y-046700
X078160Y-051700
X078160Y-052700
X078160Y-053700
X078160Y-054700
X078160Y-055700
X079160Y-055700
X079160Y-056700
X079160Y-057700
X080160Y-057700
X081160Y-057700
X082160Y-057700
X082160Y-058700
X081160Y-058700
X080160Y-058700
X079160Y-058700
X078160Y-058700
X078160Y-057700
X078160Y-056700
X079930Y-066620
X080930Y-066620
X081930Y-066620
X082930Y-066620
X083930Y-066620
X084930Y-066620
X085930Y-066620
X086930Y-066620
X087930Y-066620
X088930Y-066620
X089930Y-066620
X090930Y-066620
X091930Y-066620
X092930Y-066620
X093930Y-066620
X094930Y-066620
X095930Y-066620
X096930Y-066620
X097930Y-066620
X098930Y-066620
X099930Y-066620
X100930Y-066620
X101930Y-066620
X102930Y-066620
X103930Y-066620
X103930Y-067620
X102930Y-067620
X101930Y-067620
X100930Y-067620
X099930Y-067620
X098930Y-067620
X097930Y-067620
X096930Y-067620
X095930Y-067620
X094930Y-067620
X093930Y-067620
X092930Y-067620
X091930Y-067620
X090930Y-067620
X089930Y-067620
X088930Y-067620
X087930Y-067620
X086930Y-067620
X085930Y-067620
X084930Y-067620
X083930Y-067620
X082930Y-067620
X081930Y-067620
X080930Y-067620
X079930Y-067620
X079980Y-072600
X079980Y-073600
X080980Y-073600
X080980Y-072600
X081980Y-072600
X082980Y-072600
X082980Y-073600
X081980Y-073600
X083980Y-073600
X083980Y-072600
X078980Y-072600
X078980Y-073600
X077980Y-073600
X076980Y-073600
X075980Y-073600
X074980Y-073600
X074980Y-072600
X075980Y-072600
X076980Y-072600
X077980Y-072600
X092160Y-062220
X092160Y-057220
X105160Y-057220
X105160Y-062220
X101170Y-038690
X106660Y-092760
X106660Y-097760
X094180Y-094330
X093180Y-094330
X099760Y-117310
X099760Y-118310
X025280Y-062780
X024280Y-062780
X023280Y-062780
X023280Y-061780
X023280Y-060780
X023280Y-059780
X024280Y-059780
X024280Y-060780
X024280Y-061780
X025280Y-061780
X025280Y-060780
X025280Y-059780
X025280Y-058780
X024280Y-058780
X024280Y-057780
X023280Y-057780
X023280Y-056780
X024280Y-056780
X024280Y-055780
X023280Y-055780
X023280Y-054780
X024280Y-054780
X024280Y-053780
X025280Y-053780
X025280Y-052780
X024280Y-052780
X023280Y-052780
X023280Y-053780
X023280Y-051780
X023280Y-050780
X024280Y-050780
X025280Y-050780
X025280Y-051780
X024280Y-051780
X024280Y-049780
X025280Y-049780
X025280Y-048780
X024280Y-048780
X023280Y-048780
X023280Y-049780
X023280Y-047780
X023280Y-046780
X024280Y-046780
X025280Y-046780
X025280Y-047780
X024280Y-047780
X024280Y-045780
X025280Y-045780
X025280Y-044780
X025280Y-043780
X024280Y-043780
X024280Y-044780
X023280Y-044780
X023280Y-043780
X023280Y-042780
X023280Y-041780
X023280Y-040780
X023280Y-039780
X023280Y-038780
X023280Y-037780
X023280Y-036780
X023280Y-035780
X023280Y-034780
X023280Y-033780
X023280Y-032780
X024280Y-032780
X024280Y-033780
X024280Y-034780
X024280Y-035780
X025280Y-035780
X025280Y-036780
X024280Y-036780
X024280Y-037780
X025280Y-037780
X025280Y-038780
X025280Y-039780
X024280Y-039780
X024280Y-038780
X024280Y-040780
X024280Y-041780
X024280Y-042780
X025280Y-042780
X025280Y-041780
X025280Y-040780
X023280Y-045780
X025280Y-054780
X025280Y-055780
X025280Y-056780
X025280Y-057780
X023280Y-058780
X006280Y-062780
X005280Y-062780
X025280Y-034780
X025280Y-033780
X025280Y-032780
X025280Y-031780
X024280Y-031780
X023280Y-031780
X020870Y-025440
T05
X064320Y-005340
X065410Y-005340
X066490Y-005340
X067580Y-005340
X068680Y-005340
X069770Y-005340
X070860Y-005340
X071950Y-005340
X073040Y-005340
X074120Y-005340
X075210Y-005340
X076310Y-005340
X077400Y-005340
X076860Y-004220
X075770Y-004220
X074680Y-004220
X073590Y-004220
X072490Y-004220
X071410Y-004220
X070320Y-004220
X069230Y-004220
X068140Y-004220
X067080Y-004220
X065960Y-004220
X064860Y-004220
X087130Y-005340
X088220Y-005340
X089310Y-005340
X090400Y-005340
X091490Y-005340
X092580Y-005340
X093670Y-005340
X094760Y-005340
X095850Y-005340
X096940Y-005340
X096400Y-004220
X095310Y-004220
X094220Y-004220
X093130Y-004220
X092040Y-004220
X090950Y-004220
X089900Y-004220
X088770Y-004220
X087680Y-004220
T06
X007030Y-120780
X009030Y-120780
X016610Y-120780
X018610Y-120780
X030230Y-120630
X031230Y-120630
X031230Y-080280
X032230Y-080280
X033230Y-080280
X020340Y-073480
X019340Y-073480
X019210Y-003550
X019210Y-003510
X019210Y-003480
X019210Y-003440
X019210Y-003400
X019210Y-003360
X019210Y-003320
X019210Y-003280
X019210Y-003240
X019210Y-003200
X019210Y-003160
X019210Y-003120
X019210Y-003080
X019210Y-003040
X019210Y-003000
X016830Y-002970
X016790Y-002970
X016750Y-002970
X016710Y-002970
X016670Y-002970
X016630Y-002970
X016590Y-002970
X016550Y-002970
X016510Y-002970
X016470Y-002970
X016430Y-002970
X016400Y-002970
X016360Y-002970
X016320Y-002970
X016280Y-002970
X013900Y-003000
X013900Y-003040
X013900Y-003080
X013900Y-003120
X013900Y-003160
X013900Y-003200
X013900Y-003240
X013900Y-003280
X013900Y-003320
X013900Y-003360
X013900Y-003400
X013900Y-003440
X013900Y-003480
X013900Y-003510
X013900Y-003550
X011630Y-003550
X011630Y-003510
X011630Y-003480
X011630Y-003440
X011630Y-003400
X011630Y-003360
X011630Y-003320
X011630Y-003280
X011630Y-003240
X011630Y-003200
X011630Y-003160
X011630Y-003120
X011630Y-003080
X011630Y-003040
X011630Y-003000
X009250Y-002970
X009210Y-002970
X009170Y-002970
X009130Y-002970
X009090Y-002970
X009050Y-002970
X009010Y-002970
X008970Y-002970
X008940Y-002970
X008900Y-002970
X008860Y-002970
X008820Y-002970
X008780Y-002970
X008740Y-002970
X008700Y-002970
X006320Y-003000
X006320Y-003040
X006320Y-003080
X006320Y-003120
X006320Y-003160
X006320Y-003200
X006320Y-003240
X006320Y-003280
X006320Y-003320
X006320Y-003360
X006320Y-003400
X006320Y-003440
X006320Y-003480
X006320Y-003510
X006320Y-003550
X027720Y-003490
X027720Y-003450
X027720Y-003410
X027720Y-003370
X027720Y-003330
X027720Y-003290
X027720Y-003260
X027720Y-003220
X027720Y-003180
X027720Y-003140
X027720Y-003100
X027720Y-003060
X027720Y-003020
X027720Y-002980
X027720Y-002940
X030110Y-002900
X030140Y-002900
X030180Y-002900
X030220Y-002900
X030260Y-002900
X030300Y-002900
X030340Y-002900
X030380Y-002900
X030420Y-002900
X030460Y-002900
X030500Y-002900
X030540Y-002900
X030580Y-002900
X030620Y-002900
X030660Y-002900
X033040Y-002940
X033040Y-002980
X033040Y-003020
X033040Y-003060
X033040Y-003100
X033040Y-003140
X033040Y-003180
X033040Y-003220
X033040Y-003260
X033040Y-003290
X033040Y-003330
X033040Y-003370
X033040Y-003410
X033040Y-003450
X033040Y-003490
X035290Y-003490
X035290Y-003450
X035290Y-003410
X035290Y-003370
X035290Y-003330
X035290Y-003290
X035290Y-003260
X035290Y-003220
X035290Y-003180
X035290Y-003140
X035290Y-003100
X035290Y-003060
X035290Y-003020
X035290Y-002980
X035290Y-002940
X037670Y-002900
X037710Y-002900
X037750Y-002900
X037790Y-002900
X037830Y-002900
X037860Y-002900
X037900Y-002900
X037940Y-002900
X037980Y-002900
X038020Y-002900
X038060Y-002900
X038100Y-002900
X038140Y-002900
X038180Y-002900
X038220Y-002900
X040600Y-002940
X040600Y-002980
X040600Y-003020
X040600Y-003060
X040600Y-003100
X040600Y-003140
X040600Y-003180
X040600Y-003220
X040600Y-003260
X040600Y-003290
X040600Y-003330
X040600Y-003370
X040600Y-003410
X040600Y-003450
X040600Y-003490
X089200Y-042690
X089200Y-043690
X090200Y-043690
X090200Y-042690
X086580Y-111760
X098200Y-111760
T07
X034230Y-120560
X038230Y-120560
X042230Y-120560
X046230Y-120560
X050230Y-120560
X054230Y-120560
X058230Y-120560
X062230Y-120560
X090010Y-072880
X090010Y-071260
X092140Y-071260
X092140Y-072880
X102890Y-047230
X102890Y-045580
X102890Y-043930
X102890Y-042280
X102890Y-040630
X105060Y-040630
X105060Y-042280
X105060Y-043930
X105060Y-045580
X105060Y-047230
T08
X104550Y-009750
X104550Y-007950
X104550Y-006160
X106790Y-006160
X106790Y-007950
X106790Y-009750
T09
X045770Y-026490
X025450Y-004160
X023490Y-002210
X021500Y-004160
T10
X099160Y-072630
X101160Y-072630
X103160Y-072630
X105160Y-072630
T11
X045770Y-066490
T12
X034230Y-084130
X038230Y-084130
X042230Y-084130
X046230Y-084130
X050230Y-084130
X054230Y-084130
X058230Y-084130
X062230Y-084130
T13
X061650Y-004770
X080150Y-004770
X084460Y-004770
X099600Y-004770
M30
