%FSLAX34Y34*%
%MOMM*%
%LNSILK_TOP*%
G71*
G01*
%ADD10C,0.150*%
%ADD11C,0.254*%
%ADD12C,0.250*%
%ADD13C,0.300*%
%ADD14C,0.200*%
%ADD15C,0.278*%
%ADD16C,0.206*%
%ADD17C,0.100*%
%ADD18C,0.190*%
%ADD19C,0.290*%
%ADD20C,0.178*%
%ADD21C,0.400*%
%ADD22C,0.222*%
%LPD*%
G54D10*
X375444Y-2166938D02*
X375444Y-2293938D01*
X731044Y-2293938D01*
X731044Y-2166938D01*
X375444Y-2166938D01*
G54D10*
X375444Y-2217738D02*
X375444Y-2243138D01*
X388144Y-2243138D01*
X388144Y-2217738D01*
X375444Y-2217738D01*
G54D11*
X740948Y-2206053D02*
X752504Y-2206053D01*
X754282Y-2204987D01*
X755170Y-2202853D01*
X755170Y-2200720D01*
X754282Y-2198587D01*
X752504Y-2197520D01*
X740948Y-2197520D01*
G54D11*
X755170Y-2192542D02*
X740948Y-2187209D01*
X755170Y-2181876D01*
G54D11*
X749837Y-2190409D02*
X749837Y-2184009D01*
G54D11*
X740948Y-2168364D02*
X740948Y-2176898D01*
X747170Y-2176898D01*
X747170Y-2175831D01*
X746282Y-2173698D01*
X746282Y-2171564D01*
X747170Y-2169431D01*
X748948Y-2168364D01*
X752504Y-2168364D01*
X754282Y-2169431D01*
X755170Y-2171564D01*
X755170Y-2173698D01*
X754282Y-2175831D01*
X752504Y-2176898D01*
G54D10*
X375444Y-2370154D02*
X375444Y-2497154D01*
X731044Y-2497154D01*
X731044Y-2370154D01*
X375444Y-2370154D01*
G54D10*
X375444Y-2420954D02*
X375444Y-2446354D01*
X388144Y-2446354D01*
X388144Y-2420954D01*
X375444Y-2420954D01*
G54D11*
X740653Y-2410071D02*
X752208Y-2410071D01*
X753986Y-2409004D01*
X754875Y-2406871D01*
X754875Y-2404738D01*
X753986Y-2402604D01*
X752208Y-2401538D01*
X740653Y-2401538D01*
G54D11*
X754875Y-2396560D02*
X740653Y-2391227D01*
X754875Y-2385894D01*
G54D11*
X749542Y-2394427D02*
X749542Y-2388027D01*
G54D11*
X754875Y-2374515D02*
X740653Y-2374515D01*
X749542Y-2380915D01*
X751320Y-2380915D01*
X751320Y-2372382D01*
G54D10*
X375444Y-2574164D02*
X375444Y-2701164D01*
X731044Y-2701164D01*
X731044Y-2574164D01*
X375444Y-2574164D01*
G54D10*
X375444Y-2624964D02*
X375444Y-2650364D01*
X388144Y-2650364D01*
X388144Y-2624964D01*
X375444Y-2624964D01*
G54D11*
X740837Y-2613572D02*
X752392Y-2613572D01*
X754170Y-2612505D01*
X755059Y-2610372D01*
X755059Y-2608238D01*
X754170Y-2606105D01*
X752392Y-2605038D01*
X740837Y-2605038D01*
G54D11*
X755059Y-2600061D02*
X740837Y-2594728D01*
X755059Y-2589394D01*
G54D11*
X749726Y-2597928D02*
X749726Y-2591528D01*
G54D11*
X755059Y-2575882D02*
X755059Y-2584416D01*
X754170Y-2584416D01*
X752392Y-2583349D01*
X747059Y-2576949D01*
X745281Y-2575882D01*
X743504Y-2575882D01*
X741726Y-2576949D01*
X740837Y-2579082D01*
X740837Y-2581216D01*
X741726Y-2583349D01*
X743504Y-2584416D01*
G54D10*
X375444Y-2777776D02*
X375444Y-2904776D01*
X731044Y-2904776D01*
X731044Y-2777776D01*
X375444Y-2777776D01*
G54D10*
X375444Y-2828576D02*
X375444Y-2853976D01*
X388144Y-2853976D01*
X388144Y-2828576D01*
X375444Y-2828576D01*
G54D11*
X740222Y-2811529D02*
X751777Y-2811529D01*
X753555Y-2810462D01*
X754444Y-2808329D01*
X754444Y-2806196D01*
X753555Y-2804062D01*
X751777Y-2802996D01*
X740222Y-2802996D01*
G54D11*
X754444Y-2798018D02*
X740222Y-2792685D01*
X754444Y-2787352D01*
G54D11*
X749110Y-2795885D02*
X749110Y-2789485D01*
G54D11*
X745555Y-2782373D02*
X740222Y-2777040D01*
X754444Y-2777040D01*
G54D12*
X82550Y-1676003D02*
X134938Y-1676003D01*
X134938Y-1645840D01*
X188119Y-1645840D01*
X188119Y-755650D01*
X135731Y-755650D01*
X135731Y-725090D01*
X82550Y-725090D01*
X82550Y-1676003D01*
G54D11*
X100806Y-718344D02*
X106140Y-704122D01*
X111473Y-718344D01*
G54D11*
X102940Y-713010D02*
X109340Y-713010D01*
G54D11*
X132024Y-718344D02*
X132024Y-704122D01*
X137358Y-704122D01*
X139491Y-705010D01*
X140558Y-706788D01*
X140558Y-708566D01*
X139491Y-710344D01*
X137358Y-711232D01*
X139491Y-712122D01*
X140558Y-713900D01*
X140558Y-715677D01*
X139491Y-717455D01*
X137358Y-718344D01*
X132024Y-718344D01*
G54D11*
X132024Y-711232D02*
X137358Y-711232D01*
G54D11*
X164450Y-715677D02*
X163384Y-717455D01*
X161250Y-718344D01*
X159117Y-718344D01*
X156984Y-717455D01*
X155917Y-715677D01*
X155917Y-706788D01*
X156984Y-705010D01*
X159117Y-704122D01*
X161250Y-704122D01*
X163384Y-705010D01*
X164450Y-706788D01*
G54D11*
X198042Y-772666D02*
X209598Y-772666D01*
X211376Y-773733D01*
X212264Y-775866D01*
X212264Y-778000D01*
X211376Y-780133D01*
X209598Y-781200D01*
G54D11*
X203376Y-767688D02*
X198042Y-762355D01*
X212264Y-762355D01*
G54D12*
X323850Y-1676003D02*
X376238Y-1676003D01*
X376238Y-1645840D01*
X429419Y-1645840D01*
X429419Y-755650D01*
X377031Y-755650D01*
X377031Y-725090D01*
X323850Y-725090D01*
X323850Y-1676003D01*
G54D11*
X342106Y-718344D02*
X347440Y-704122D01*
X352773Y-718344D01*
G54D11*
X344240Y-713010D02*
X350640Y-713010D01*
G54D11*
X373324Y-718344D02*
X373324Y-704122D01*
X378658Y-704122D01*
X380791Y-705010D01*
X381858Y-706788D01*
X381858Y-708566D01*
X380791Y-710344D01*
X378658Y-711232D01*
X380791Y-712122D01*
X381858Y-713900D01*
X381858Y-715677D01*
X380791Y-717455D01*
X378658Y-718344D01*
X373324Y-718344D01*
G54D11*
X373324Y-711232D02*
X378658Y-711232D01*
G54D11*
X405750Y-715677D02*
X404684Y-717455D01*
X402550Y-718344D01*
X400417Y-718344D01*
X398284Y-717455D01*
X397217Y-715677D01*
X397217Y-706788D01*
X398284Y-705010D01*
X400417Y-704122D01*
X402550Y-704122D01*
X404684Y-705010D01*
X405750Y-706788D01*
G54D11*
X437900Y-768989D02*
X449456Y-768989D01*
X451233Y-770056D01*
X452122Y-772189D01*
X452122Y-774322D01*
X451233Y-776456D01*
X449456Y-777522D01*
G54D11*
X440566Y-764011D02*
X438789Y-762944D01*
X437900Y-760811D01*
X437900Y-758678D01*
X438789Y-756544D01*
X440566Y-755478D01*
X442344Y-755478D01*
X444122Y-756544D01*
X445011Y-758678D01*
X445900Y-756544D01*
X447678Y-755478D01*
X449456Y-755478D01*
X451233Y-756544D01*
X452122Y-758678D01*
X452122Y-760811D01*
X451233Y-762944D01*
X449456Y-764011D01*
G54D12*
X565150Y-1676003D02*
X617538Y-1676003D01*
X617538Y-1645840D01*
X670719Y-1645840D01*
X670719Y-755650D01*
X618331Y-755650D01*
X618331Y-725090D01*
X565150Y-725090D01*
X565150Y-1676003D01*
G54D11*
X583406Y-718344D02*
X588740Y-704122D01*
X594073Y-718344D01*
G54D11*
X585540Y-713010D02*
X591940Y-713010D01*
G54D11*
X614624Y-718344D02*
X614624Y-704122D01*
X619958Y-704122D01*
X622091Y-705010D01*
X623158Y-706788D01*
X623158Y-708566D01*
X622091Y-710344D01*
X619958Y-711232D01*
X622091Y-712122D01*
X623158Y-713900D01*
X623158Y-715677D01*
X622091Y-717455D01*
X619958Y-718344D01*
X614624Y-718344D01*
G54D11*
X614624Y-711232D02*
X619958Y-711232D01*
G54D11*
X647050Y-715677D02*
X645984Y-717455D01*
X643850Y-718344D01*
X641717Y-718344D01*
X639584Y-717455D01*
X638517Y-715677D01*
X638517Y-706788D01*
X639584Y-705010D01*
X641717Y-704122D01*
X643850Y-704122D01*
X645984Y-705010D01*
X647050Y-706788D01*
G54D11*
X672453Y-743192D02*
X684008Y-743192D01*
X685786Y-744259D01*
X686675Y-746392D01*
X686675Y-748526D01*
X685786Y-750659D01*
X684008Y-751726D01*
G54D11*
X675120Y-729682D02*
X673342Y-730748D01*
X672453Y-732882D01*
X672453Y-735015D01*
X673342Y-737148D01*
X675120Y-738215D01*
X679564Y-738215D01*
X680453Y-738215D01*
X678675Y-735015D01*
X678675Y-732882D01*
X679564Y-730748D01*
X681342Y-729682D01*
X684008Y-729682D01*
X685786Y-730748D01*
X686675Y-732882D01*
X686675Y-735015D01*
X685786Y-737148D01*
X684008Y-738215D01*
X679564Y-738215D01*
G54D10*
X773950Y-505700D02*
X773950Y-697702D01*
X965951Y-697702D01*
X965951Y-505700D01*
X773950Y-505700D01*
G54D10*
X945951Y-697702D02*
X965951Y-677702D01*
G54D11*
X999074Y-653566D02*
X1010630Y-653566D01*
X1012408Y-652499D01*
X1013297Y-650366D01*
X1013297Y-648232D01*
X1012408Y-646099D01*
X1010630Y-645032D01*
X999074Y-645032D01*
G54D11*
X1013297Y-640054D02*
X999074Y-640054D01*
X999074Y-634721D01*
X999964Y-632588D01*
X1001741Y-631521D01*
X1010630Y-631521D01*
X1012408Y-632588D01*
X1013297Y-634721D01*
X1013297Y-640054D01*
G54D11*
X1004408Y-626544D02*
X999074Y-621210D01*
X1013297Y-621210D01*
G54D11*
X1013297Y-609832D02*
X999074Y-609832D01*
X1007964Y-616232D01*
X1009741Y-616232D01*
X1009741Y-607699D01*
G54D11*
X1031072Y-655250D02*
X1032850Y-654183D01*
X1033738Y-652050D01*
X1033738Y-649916D01*
X1032850Y-647783D01*
X1031072Y-646716D01*
X1029294Y-646716D01*
X1027516Y-647783D01*
X1026628Y-649916D01*
X1026628Y-652050D01*
X1025738Y-654183D01*
X1023961Y-655250D01*
X1022183Y-655250D01*
X1020405Y-654183D01*
X1019516Y-652050D01*
X1019516Y-649916D01*
X1020405Y-647783D01*
X1022183Y-646716D01*
G54D11*
X1022183Y-633206D02*
X1031072Y-633206D01*
X1032850Y-634272D01*
X1033738Y-636406D01*
X1033738Y-638539D01*
X1032850Y-640672D01*
X1031072Y-641739D01*
X1022183Y-641739D01*
X1020405Y-640672D01*
X1019516Y-638539D01*
X1019516Y-636406D01*
X1020405Y-634272D01*
X1022183Y-633206D01*
G54D11*
X1019516Y-628228D02*
X1031072Y-628228D01*
X1032850Y-627161D01*
X1033738Y-625028D01*
X1033738Y-622894D01*
X1032850Y-620761D01*
X1031072Y-619694D01*
X1019516Y-619694D01*
G54D11*
X1033738Y-614717D02*
X1019516Y-614717D01*
X1033738Y-606184D01*
X1019516Y-606184D01*
G54D11*
X1033738Y-601206D02*
X1019516Y-601206D01*
X1019516Y-595872D01*
X1020405Y-593739D01*
X1022183Y-592672D01*
X1031072Y-592672D01*
X1032850Y-593739D01*
X1033738Y-595872D01*
X1033738Y-601206D01*
G54D10*
X703000Y-528972D02*
X703000Y-396972D01*
X605000Y-396972D01*
X605000Y-528972D01*
X703000Y-528972D01*
G54D11*
X712603Y-421799D02*
X724158Y-421799D01*
X725936Y-420732D01*
X726825Y-418599D01*
X726825Y-416466D01*
X725936Y-414332D01*
X724158Y-413266D01*
X712603Y-413266D01*
G54D11*
X726825Y-408288D02*
X712603Y-408288D01*
X712603Y-402954D01*
X713492Y-400821D01*
X715270Y-399754D01*
X717047Y-399754D01*
X718825Y-400821D01*
X719714Y-402954D01*
X720603Y-400821D01*
X722380Y-399754D01*
X724158Y-399754D01*
X725936Y-400821D01*
X726825Y-402954D01*
X726825Y-408288D01*
G54D11*
X719714Y-408288D02*
X719714Y-402954D01*
G54D11*
X717936Y-394777D02*
X712603Y-389444D01*
X726825Y-389444D01*
G54D11*
X712603Y-375932D02*
X712603Y-384466D01*
X718825Y-384466D01*
X718825Y-383399D01*
X717936Y-381266D01*
X717936Y-379132D01*
X718825Y-376999D01*
X720603Y-375932D01*
X724158Y-375932D01*
X725936Y-376999D01*
X726825Y-379132D01*
X726825Y-381266D01*
X725936Y-383399D01*
X724158Y-384466D01*
G54D11*
X734736Y-481037D02*
X748958Y-481037D01*
X748958Y-473570D01*
G54D11*
X748958Y-461126D02*
X748958Y-468592D01*
X734736Y-468592D01*
X734736Y-461126D01*
G54D11*
X741847Y-468592D02*
X741847Y-461126D01*
G54D11*
X748958Y-456147D02*
X734736Y-456147D01*
X734736Y-448680D01*
G54D11*
X741847Y-456147D02*
X741847Y-448680D01*
G54D11*
X748958Y-439436D02*
X734736Y-439436D01*
G54D11*
X734736Y-443702D02*
X734736Y-435169D01*
G54D11*
X746292Y-425000D02*
X748070Y-423934D01*
X748958Y-421800D01*
X748958Y-419667D01*
X748070Y-417534D01*
X746292Y-416467D01*
X744514Y-416467D01*
X742736Y-417534D01*
X741847Y-419667D01*
X741847Y-421800D01*
X740958Y-423934D01*
X739180Y-425000D01*
X737403Y-425000D01*
X735625Y-423934D01*
X734736Y-421800D01*
X734736Y-419667D01*
X735625Y-417534D01*
X737403Y-416467D01*
G54D11*
X737403Y-402956D02*
X746292Y-402956D01*
X748070Y-404022D01*
X748958Y-406156D01*
X748958Y-408289D01*
X748070Y-410422D01*
X746292Y-411489D01*
X737403Y-411489D01*
X735625Y-410422D01*
X734736Y-408289D01*
X734736Y-406156D01*
X735625Y-404022D01*
X737403Y-402956D01*
G54D11*
X734736Y-397978D02*
X746292Y-397978D01*
X748070Y-396912D01*
X748958Y-394778D01*
X748958Y-392645D01*
X748070Y-390512D01*
X746292Y-389445D01*
X734736Y-389445D01*
G54D11*
X748958Y-384467D02*
X734736Y-384467D01*
X748958Y-375934D01*
X734736Y-375934D01*
G54D11*
X748958Y-370956D02*
X734736Y-370956D01*
X734736Y-365623D01*
X735625Y-363490D01*
X737403Y-362423D01*
X746292Y-362423D01*
X748070Y-363490D01*
X748958Y-365623D01*
X748958Y-370956D01*
G54D10*
G75*
G01X615950Y-406797D02*
G03X615950Y-406797I-3175J0D01*
G01*
G54D10*
X487894Y-528972D02*
X487894Y-396972D01*
X389894Y-396972D01*
X389894Y-528972D01*
X487894Y-528972D01*
G54D11*
X499357Y-437551D02*
X510912Y-437551D01*
X512690Y-436484D01*
X513579Y-434351D01*
X513579Y-432218D01*
X512690Y-430084D01*
X510912Y-429018D01*
X499357Y-429018D01*
G54D11*
X513579Y-424040D02*
X499357Y-418706D01*
X513579Y-413373D01*
G54D11*
X508246Y-421906D02*
X508246Y-415506D01*
G54D11*
X504690Y-408395D02*
X499357Y-403062D01*
X513579Y-403062D01*
G54D11*
X499357Y-389550D02*
X499357Y-398084D01*
X505579Y-398084D01*
X505579Y-397017D01*
X504690Y-394884D01*
X504690Y-392750D01*
X505579Y-390617D01*
X507357Y-389550D01*
X510912Y-389550D01*
X512690Y-390617D01*
X513579Y-392750D01*
X513579Y-394884D01*
X512690Y-397017D01*
X510912Y-398084D01*
G54D11*
X529520Y-502567D02*
X531298Y-499367D01*
X533076Y-498300D01*
X536632Y-498300D01*
G54D11*
X536632Y-506834D02*
X522410Y-506834D01*
X522410Y-501500D01*
X523298Y-499367D01*
X525076Y-498300D01*
X526854Y-498300D01*
X528632Y-499367D01*
X529520Y-501500D01*
X529520Y-506834D01*
G54D11*
X536632Y-493322D02*
X522410Y-493322D01*
G54D11*
X529520Y-484078D02*
X529520Y-479811D01*
X533965Y-479811D01*
X535743Y-480878D01*
X536632Y-483011D01*
X536632Y-485144D01*
X535743Y-487278D01*
X533965Y-488344D01*
X525076Y-488344D01*
X523298Y-487278D01*
X522410Y-485144D01*
X522410Y-483011D01*
X523298Y-480878D01*
X525076Y-479811D01*
G54D11*
X536632Y-474834D02*
X522410Y-474834D01*
G54D11*
X536632Y-466300D02*
X522410Y-466300D01*
G54D11*
X529520Y-474834D02*
X529520Y-466300D01*
G54D11*
X536632Y-457056D02*
X522410Y-457056D01*
G54D11*
X522410Y-461322D02*
X522410Y-452789D01*
G54D11*
X533965Y-442620D02*
X535743Y-441554D01*
X536632Y-439420D01*
X536632Y-437287D01*
X535743Y-435154D01*
X533965Y-434087D01*
X532187Y-434087D01*
X530410Y-435154D01*
X529520Y-437287D01*
X529520Y-439420D01*
X528632Y-441554D01*
X526854Y-442620D01*
X525076Y-442620D01*
X523298Y-441554D01*
X522410Y-439420D01*
X522410Y-437287D01*
X523298Y-435154D01*
X525076Y-434087D01*
G54D11*
X525076Y-420576D02*
X533965Y-420576D01*
X535743Y-421643D01*
X536632Y-423776D01*
X536632Y-425910D01*
X535743Y-428043D01*
X533965Y-429110D01*
X525076Y-429110D01*
X523298Y-428043D01*
X522410Y-425910D01*
X522410Y-423776D01*
X523298Y-421643D01*
X525076Y-420576D01*
G54D11*
X522410Y-415598D02*
X533965Y-415598D01*
X535743Y-414532D01*
X536632Y-412398D01*
X536632Y-410265D01*
X535743Y-408132D01*
X533965Y-407065D01*
X522410Y-407065D01*
G54D11*
X536632Y-402088D02*
X522410Y-402088D01*
X536632Y-393554D01*
X522410Y-393554D01*
G54D11*
X536632Y-388576D02*
X522410Y-388576D01*
X522410Y-383243D01*
X523298Y-381110D01*
X525076Y-380043D01*
X533965Y-380043D01*
X535743Y-381110D01*
X536632Y-383243D01*
X536632Y-388576D01*
G54D10*
G75*
G01X400844Y-406797D02*
G03X400844Y-406797I-3175J0D01*
G01*
G54D10*
X1293062Y-925904D02*
X1485064Y-925904D01*
X1485064Y-733903D01*
X1293062Y-733903D01*
X1293062Y-925904D01*
G54D10*
X1485064Y-753903D02*
X1465064Y-733903D01*
G54D11*
X1494687Y-807616D02*
X1506242Y-807616D01*
X1508020Y-806549D01*
X1508909Y-804416D01*
X1508909Y-802282D01*
X1508020Y-800149D01*
X1506242Y-799082D01*
X1494687Y-799082D01*
G54D11*
X1508909Y-794104D02*
X1494687Y-794104D01*
X1494687Y-786638D01*
G54D11*
X1501798Y-794104D02*
X1501798Y-786638D01*
G54D11*
X1500020Y-781660D02*
X1494687Y-776326D01*
X1508909Y-776326D01*
G54D11*
X1497354Y-771348D02*
X1495576Y-770282D01*
X1494687Y-768148D01*
X1494687Y-766015D01*
X1495576Y-763882D01*
X1497354Y-762815D01*
X1499131Y-762815D01*
X1500909Y-763882D01*
X1501798Y-766015D01*
X1502687Y-763882D01*
X1504465Y-762815D01*
X1506242Y-762815D01*
X1508020Y-763882D01*
X1508909Y-766015D01*
X1508909Y-768148D01*
X1508020Y-770282D01*
X1506242Y-771348D01*
G54D11*
X1520901Y-804267D02*
X1520901Y-806400D01*
X1520012Y-808534D01*
X1518234Y-809600D01*
X1516457Y-809600D01*
X1514679Y-808534D01*
X1513790Y-806400D01*
X1513790Y-804267D01*
X1514679Y-802134D01*
X1516457Y-801067D01*
X1518234Y-801067D01*
X1520012Y-802134D01*
X1520901Y-804267D01*
X1521790Y-802134D01*
X1523568Y-801067D01*
X1525346Y-801067D01*
X1527123Y-802134D01*
X1528012Y-804267D01*
X1528012Y-806400D01*
X1527123Y-808534D01*
X1525346Y-809600D01*
X1523568Y-809600D01*
X1521790Y-808534D01*
X1520901Y-806400D01*
G54D11*
X1513790Y-787556D02*
X1513790Y-796090D01*
X1520012Y-796090D01*
X1520012Y-795023D01*
X1519123Y-792890D01*
X1519123Y-790756D01*
X1520012Y-788623D01*
X1521790Y-787556D01*
X1525346Y-787556D01*
X1527123Y-788623D01*
X1528012Y-790756D01*
X1528012Y-792890D01*
X1527123Y-795023D01*
X1525346Y-796090D01*
G54D11*
X1516457Y-782578D02*
X1514679Y-781512D01*
X1513790Y-779378D01*
X1513790Y-777245D01*
X1514679Y-775112D01*
X1516457Y-774045D01*
X1518234Y-774045D01*
X1520012Y-775112D01*
X1520901Y-777245D01*
X1521790Y-775112D01*
X1523568Y-774045D01*
X1525346Y-774045D01*
X1527123Y-775112D01*
X1528012Y-777245D01*
X1528012Y-779378D01*
X1527123Y-781512D01*
X1525346Y-782578D01*
G54D11*
X1516457Y-760534D02*
X1525346Y-760534D01*
X1527123Y-761601D01*
X1528012Y-763734D01*
X1528012Y-765868D01*
X1527123Y-768001D01*
X1525346Y-769068D01*
X1516457Y-769068D01*
X1514679Y-768001D01*
X1513790Y-765868D01*
X1513790Y-763734D01*
X1514679Y-761601D01*
X1516457Y-760534D01*
G54D10*
X2081567Y-417111D02*
X2081566Y-225109D01*
X1889566Y-225109D01*
X1889566Y-417111D01*
X2081567Y-417111D01*
G54D10*
X1909565Y-225109D02*
X1889565Y-245109D01*
G54D11*
X2103037Y-358082D02*
X2114592Y-358082D01*
X2116370Y-357015D01*
X2117259Y-354882D01*
X2117259Y-352748D01*
X2116370Y-350615D01*
X2114592Y-349548D01*
X2103037Y-349548D01*
G54D11*
X2103037Y-336037D02*
X2114592Y-336037D01*
X2116370Y-337104D01*
X2117259Y-339237D01*
X2117259Y-341370D01*
X2116370Y-343504D01*
X2114592Y-344570D01*
G54D11*
X2108370Y-331060D02*
X2103037Y-325726D01*
X2117259Y-325726D01*
G54D11*
X2103037Y-312215D02*
X2103037Y-320748D01*
X2109259Y-320748D01*
X2109259Y-319682D01*
X2108370Y-317548D01*
X2108370Y-315415D01*
X2109259Y-313282D01*
X2111037Y-312215D01*
X2114592Y-312215D01*
X2116370Y-313282D01*
X2117259Y-315415D01*
X2117259Y-317548D01*
X2116370Y-319682D01*
X2114592Y-320748D01*
G54D11*
X2136712Y-358146D02*
X2138490Y-357079D01*
X2139379Y-354946D01*
X2139379Y-352813D01*
X2138490Y-350679D01*
X2136712Y-349613D01*
X2134934Y-349613D01*
X2133157Y-350679D01*
X2132268Y-352813D01*
X2132268Y-354946D01*
X2131379Y-357079D01*
X2129601Y-358146D01*
X2127824Y-358146D01*
X2126046Y-357079D01*
X2125157Y-354946D01*
X2125157Y-352813D01*
X2126046Y-350679D01*
X2127824Y-349613D01*
G54D11*
X2136712Y-336102D02*
X2138490Y-337168D01*
X2139379Y-339302D01*
X2139379Y-341435D01*
X2138490Y-343568D01*
X2136712Y-344635D01*
X2127824Y-344635D01*
X2126046Y-343568D01*
X2125157Y-341435D01*
X2125157Y-339302D01*
X2126046Y-337168D01*
X2127824Y-336102D01*
G54D11*
X2136712Y-331124D02*
X2138490Y-330057D01*
X2139379Y-327924D01*
X2139379Y-325791D01*
X2138490Y-323657D01*
X2136712Y-322591D01*
X2134934Y-322591D01*
X2133157Y-323657D01*
X2132268Y-325791D01*
X2132268Y-327924D01*
X2131379Y-330057D01*
X2129601Y-331124D01*
X2127824Y-331124D01*
X2126046Y-330057D01*
X2125157Y-327924D01*
X2125157Y-325791D01*
X2126046Y-323657D01*
X2127824Y-322591D01*
G54D11*
X2139379Y-317613D02*
X2125157Y-317613D01*
G54D10*
X2276915Y-747707D02*
X2468916Y-747708D01*
X2468917Y-555706D01*
X2276914Y-555706D01*
X2276915Y-747707D01*
G54D10*
X2468917Y-575707D02*
X2448917Y-555707D01*
G54D11*
X2493620Y-629022D02*
X2505176Y-629022D01*
X2506954Y-627956D01*
X2507843Y-625822D01*
X2507843Y-623689D01*
X2506954Y-621556D01*
X2505176Y-620489D01*
X2493620Y-620489D01*
G54D11*
X2493620Y-615512D02*
X2507843Y-615512D01*
X2507843Y-608044D01*
G54D11*
X2498954Y-603066D02*
X2493620Y-597733D01*
X2507843Y-597733D01*
G54D11*
X2507843Y-586356D02*
X2493620Y-586356D01*
X2502510Y-592756D01*
X2504287Y-592756D01*
X2504287Y-584222D01*
G54D11*
X2528248Y-629022D02*
X2530026Y-627956D01*
X2530915Y-625822D01*
X2530915Y-623689D01*
X2530026Y-621556D01*
X2528248Y-620489D01*
X2526470Y-620489D01*
X2524693Y-621556D01*
X2523804Y-623689D01*
X2523804Y-625822D01*
X2522915Y-627956D01*
X2521137Y-629022D01*
X2519360Y-629022D01*
X2517582Y-627956D01*
X2516693Y-625822D01*
X2516693Y-623689D01*
X2517582Y-621556D01*
X2519360Y-620489D01*
G54D11*
X2516693Y-615512D02*
X2530915Y-615512D01*
X2522026Y-610178D01*
X2530915Y-604844D01*
X2516693Y-604844D01*
G54D11*
X2530915Y-599866D02*
X2516693Y-599866D01*
G54D11*
X2530915Y-594888D02*
X2516693Y-594888D01*
X2525582Y-589555D01*
X2516693Y-584222D01*
X2530915Y-584222D01*
G54D10*
X2398906Y-378166D02*
X2282906Y-378166D01*
X2282906Y-494166D01*
X2398906Y-494166D01*
X2398906Y-378166D01*
G54D10*
X2282906Y-474166D02*
X2302906Y-494166D01*
G54D11*
X2429319Y-421134D02*
X2440875Y-421134D01*
X2442653Y-420068D01*
X2443542Y-417934D01*
X2443542Y-415801D01*
X2442653Y-413668D01*
X2440875Y-412601D01*
X2429319Y-412601D01*
G54D11*
X2429319Y-407624D02*
X2443542Y-407624D01*
X2443542Y-400157D01*
G54D11*
X2434653Y-395178D02*
X2429319Y-389845D01*
X2443542Y-389845D01*
G54D11*
X2429319Y-376334D02*
X2429319Y-384868D01*
X2435542Y-384868D01*
X2435542Y-383801D01*
X2434653Y-381668D01*
X2434653Y-379534D01*
X2435542Y-377401D01*
X2437319Y-376334D01*
X2440875Y-376334D01*
X2442653Y-377401D01*
X2443542Y-379534D01*
X2443542Y-381668D01*
X2442653Y-383801D01*
X2440875Y-384868D01*
G54D11*
X2460344Y-425117D02*
X2455011Y-419784D01*
X2469233Y-419784D01*
G54D11*
X2457678Y-406273D02*
X2455900Y-407340D01*
X2455011Y-409473D01*
X2455011Y-411606D01*
X2455900Y-413740D01*
X2457678Y-414806D01*
X2462122Y-414806D01*
X2463011Y-414806D01*
X2461233Y-411606D01*
X2461233Y-409473D01*
X2462122Y-407340D01*
X2463900Y-406273D01*
X2466566Y-406273D01*
X2468344Y-407340D01*
X2469233Y-409473D01*
X2469233Y-411606D01*
X2468344Y-413740D01*
X2466566Y-414806D01*
X2462122Y-414806D01*
G54D11*
X2455011Y-401295D02*
X2469233Y-401295D01*
X2469233Y-393828D01*
G54D11*
X2462122Y-383517D02*
X2462122Y-385650D01*
X2461233Y-387784D01*
X2459456Y-388850D01*
X2457678Y-388850D01*
X2455900Y-387784D01*
X2455011Y-385650D01*
X2455011Y-383517D01*
X2455900Y-381384D01*
X2457678Y-380317D01*
X2459456Y-380317D01*
X2461233Y-381384D01*
X2462122Y-383517D01*
X2463011Y-381384D01*
X2464789Y-380317D01*
X2466566Y-380317D01*
X2468344Y-381384D01*
X2469233Y-383517D01*
X2469233Y-385650D01*
X2468344Y-387784D01*
X2466566Y-388850D01*
X2464789Y-388850D01*
X2463011Y-387784D01*
X2462122Y-385650D01*
G54D11*
X2469233Y-375339D02*
X2455011Y-375339D01*
X2455011Y-370006D01*
X2455900Y-367872D01*
X2457678Y-366806D01*
X2466566Y-366806D01*
X2468344Y-367872D01*
X2469233Y-370006D01*
X2469233Y-375339D01*
G54D10*
X1358560Y-647100D02*
X1358560Y-531100D01*
X1242560Y-531100D01*
X1242560Y-647100D01*
X1358560Y-647100D01*
G54D10*
X1262560Y-531100D02*
X1242560Y-551100D01*
G54D11*
X1262844Y-652006D02*
X1262844Y-663562D01*
X1263910Y-665339D01*
X1266044Y-666228D01*
X1268177Y-666228D01*
X1270310Y-665339D01*
X1271377Y-663562D01*
X1271377Y-652006D01*
G54D11*
X1276354Y-666228D02*
X1276354Y-652006D01*
X1283821Y-652006D01*
G54D11*
X1276354Y-659117D02*
X1283821Y-659117D01*
G54D11*
X1288800Y-657339D02*
X1294133Y-652006D01*
X1294133Y-666228D01*
G54D11*
X1307644Y-652006D02*
X1299110Y-652006D01*
X1299110Y-658228D01*
X1300177Y-658228D01*
X1302310Y-657339D01*
X1304444Y-657339D01*
X1306577Y-658228D01*
X1307644Y-660006D01*
X1307644Y-663562D01*
X1306577Y-665339D01*
X1304444Y-666228D01*
X1302310Y-666228D01*
X1300177Y-665339D01*
X1299110Y-663562D01*
G54D11*
X1269789Y-684275D02*
X1261256Y-684275D01*
X1261256Y-683386D01*
X1262322Y-681608D01*
X1268722Y-676275D01*
X1269789Y-674497D01*
X1269789Y-672720D01*
X1268722Y-670942D01*
X1266589Y-670053D01*
X1264456Y-670053D01*
X1262322Y-670942D01*
X1261256Y-672720D01*
G54D11*
X1283300Y-672720D02*
X1282234Y-670942D01*
X1280100Y-670053D01*
X1277967Y-670053D01*
X1275834Y-670942D01*
X1274767Y-672720D01*
X1274767Y-677164D01*
X1274767Y-678053D01*
X1277967Y-676275D01*
X1280100Y-676275D01*
X1282234Y-677164D01*
X1283300Y-678942D01*
X1283300Y-681608D01*
X1282234Y-683386D01*
X1280100Y-684275D01*
X1277967Y-684275D01*
X1275834Y-683386D01*
X1274767Y-681608D01*
X1274767Y-677164D01*
G54D11*
X1288278Y-670053D02*
X1288278Y-684275D01*
X1295744Y-684275D01*
G54D11*
X1300723Y-681608D02*
X1301790Y-683386D01*
X1303923Y-684275D01*
X1306056Y-684275D01*
X1308190Y-683386D01*
X1309256Y-681608D01*
X1309256Y-679830D01*
X1308190Y-678053D01*
X1306056Y-677164D01*
X1303923Y-677164D01*
X1301790Y-676275D01*
X1300723Y-674497D01*
X1300723Y-672720D01*
X1301790Y-670942D01*
X1303923Y-670053D01*
X1306056Y-670053D01*
X1308190Y-670942D01*
X1309256Y-672720D01*
G54D11*
X1314234Y-672720D02*
X1315300Y-670942D01*
X1317434Y-670053D01*
X1319567Y-670053D01*
X1321700Y-670942D01*
X1322767Y-672720D01*
X1322767Y-674497D01*
X1321700Y-676275D01*
X1319567Y-677164D01*
X1321700Y-678053D01*
X1322767Y-679830D01*
X1322767Y-681608D01*
X1321700Y-683386D01*
X1319567Y-684275D01*
X1317434Y-684275D01*
X1315300Y-683386D01*
X1314234Y-681608D01*
G54D11*
X1336278Y-672720D02*
X1336278Y-681608D01*
X1335212Y-683386D01*
X1333078Y-684275D01*
X1330945Y-684275D01*
X1328812Y-683386D01*
X1327745Y-681608D01*
X1327745Y-672720D01*
X1328812Y-670942D01*
X1330945Y-670053D01*
X1333078Y-670053D01*
X1335212Y-670942D01*
X1336278Y-672720D01*
G54D10*
X1358560Y-494700D02*
X1358560Y-378700D01*
X1242560Y-378700D01*
X1242560Y-494700D01*
X1358560Y-494700D01*
G54D10*
X1262560Y-378700D02*
X1242560Y-398700D01*
G54D11*
X1396116Y-435162D02*
X1407672Y-435162D01*
X1409450Y-434096D01*
X1410338Y-431962D01*
X1410338Y-429829D01*
X1409450Y-427696D01*
X1407672Y-426629D01*
X1396116Y-426629D01*
G54D11*
X1410338Y-421652D02*
X1396116Y-421652D01*
X1396116Y-414185D01*
G54D11*
X1403227Y-421652D02*
X1403227Y-414185D01*
G54D11*
X1401450Y-409206D02*
X1396116Y-403873D01*
X1410338Y-403873D01*
G54D11*
X1396116Y-390362D02*
X1396116Y-398896D01*
X1402338Y-398896D01*
X1402338Y-397829D01*
X1401450Y-395696D01*
X1401450Y-393562D01*
X1402338Y-391429D01*
X1404116Y-390362D01*
X1407672Y-390362D01*
X1409450Y-391429D01*
X1410338Y-393562D01*
X1410338Y-395696D01*
X1409450Y-397829D01*
X1407672Y-398896D01*
G54D11*
X1428311Y-447470D02*
X1428311Y-456003D01*
X1427422Y-456003D01*
X1425644Y-454936D01*
X1420311Y-448536D01*
X1418533Y-447470D01*
X1416755Y-447470D01*
X1414977Y-448536D01*
X1414088Y-450670D01*
X1414088Y-452803D01*
X1414977Y-454936D01*
X1416755Y-456003D01*
G54D11*
X1416755Y-433958D02*
X1414977Y-435025D01*
X1414088Y-437158D01*
X1414088Y-439292D01*
X1414977Y-441425D01*
X1416755Y-442492D01*
X1421200Y-442492D01*
X1422088Y-442492D01*
X1420311Y-439292D01*
X1420311Y-437158D01*
X1421200Y-435025D01*
X1422977Y-433958D01*
X1425644Y-433958D01*
X1427422Y-435025D01*
X1428311Y-437158D01*
X1428311Y-439292D01*
X1427422Y-441425D01*
X1425644Y-442492D01*
X1421200Y-442492D01*
G54D11*
X1414088Y-428981D02*
X1428311Y-428981D01*
X1428311Y-421514D01*
G54D11*
X1425644Y-416536D02*
X1427422Y-415469D01*
X1428311Y-413336D01*
X1428311Y-411202D01*
X1427422Y-409069D01*
X1425644Y-408002D01*
X1423866Y-408002D01*
X1422088Y-409069D01*
X1421200Y-411202D01*
X1421200Y-413336D01*
X1420311Y-415469D01*
X1418533Y-416536D01*
X1416755Y-416536D01*
X1414977Y-415469D01*
X1414088Y-413336D01*
X1414088Y-411202D01*
X1414977Y-409069D01*
X1416755Y-408002D01*
G54D11*
X1416755Y-403025D02*
X1414977Y-401958D01*
X1414088Y-399825D01*
X1414088Y-397692D01*
X1414977Y-395558D01*
X1416755Y-394492D01*
X1418533Y-394492D01*
X1420311Y-395558D01*
X1421200Y-397692D01*
X1422088Y-395558D01*
X1423866Y-394492D01*
X1425644Y-394492D01*
X1427422Y-395558D01*
X1428311Y-397692D01*
X1428311Y-399825D01*
X1427422Y-401958D01*
X1425644Y-403025D01*
G54D11*
X1416755Y-380980D02*
X1425644Y-380980D01*
X1427422Y-382047D01*
X1428311Y-384180D01*
X1428311Y-386314D01*
X1427422Y-388447D01*
X1425644Y-389514D01*
X1416755Y-389514D01*
X1414977Y-388447D01*
X1414088Y-386314D01*
X1414088Y-384180D01*
X1414977Y-382047D01*
X1416755Y-380980D01*
G54D10*
X1968060Y-2235592D02*
X1968060Y-2043591D01*
X1776059Y-2043591D01*
X1776059Y-2235592D01*
X1968060Y-2235592D01*
G54D10*
X1796060Y-2043591D02*
X1776060Y-2063591D01*
G54D11*
X1977823Y-2154828D02*
X1989378Y-2154828D01*
X1991156Y-2153762D01*
X1992045Y-2151628D01*
X1992045Y-2149495D01*
X1991156Y-2147362D01*
X1989378Y-2146295D01*
X1977823Y-2146295D01*
G54D11*
X1992045Y-2141318D02*
X1977823Y-2141318D01*
G54D11*
X1992045Y-2132784D02*
X1977823Y-2132784D01*
G54D11*
X1984934Y-2141318D02*
X1984934Y-2132784D01*
G54D11*
X1980490Y-2119273D02*
X1978712Y-2120340D01*
X1977823Y-2122473D01*
X1977823Y-2124606D01*
X1978712Y-2126740D01*
X1980490Y-2127806D01*
X1984934Y-2127806D01*
X1985823Y-2127806D01*
X1984045Y-2124606D01*
X1984045Y-2122473D01*
X1984934Y-2120340D01*
X1986712Y-2119273D01*
X1989378Y-2119273D01*
X1991156Y-2120340D01*
X1992045Y-2122473D01*
X1992045Y-2124606D01*
X1991156Y-2126740D01*
X1989378Y-2127806D01*
X1984934Y-2127806D01*
G54D11*
X2001153Y-2162366D02*
X1999375Y-2163432D01*
X1998486Y-2165566D01*
X1998486Y-2167699D01*
X1999375Y-2169832D01*
X2001153Y-2170899D01*
X2005597Y-2170899D01*
X2006486Y-2170899D01*
X2004708Y-2167699D01*
X2004708Y-2165566D01*
X2005597Y-2163432D01*
X2007375Y-2162366D01*
X2010042Y-2162366D01*
X2011819Y-2163432D01*
X2012708Y-2165566D01*
X2012708Y-2167699D01*
X2011819Y-2169832D01*
X2010042Y-2170899D01*
X2005597Y-2170899D01*
G54D11*
X1998486Y-2148855D02*
X1998486Y-2157388D01*
X2004708Y-2157388D01*
X2004708Y-2156322D01*
X2003819Y-2154188D01*
X2003819Y-2152055D01*
X2004708Y-2149922D01*
X2006486Y-2148855D01*
X2010042Y-2148855D01*
X2011819Y-2149922D01*
X2012708Y-2152055D01*
X2012708Y-2154188D01*
X2011819Y-2156322D01*
X2010042Y-2157388D01*
G54D11*
X2010042Y-2135344D02*
X2011819Y-2136410D01*
X2012708Y-2138544D01*
X2012708Y-2140677D01*
X2011819Y-2142810D01*
X2010042Y-2143877D01*
X2001153Y-2143877D01*
X1999375Y-2142810D01*
X1998486Y-2140677D01*
X1998486Y-2138544D01*
X1999375Y-2136410D01*
X2001153Y-2135344D01*
G54D11*
X2012708Y-2121833D02*
X2012708Y-2130366D01*
X2011819Y-2130366D01*
X2010042Y-2129300D01*
X2004708Y-2122900D01*
X2002931Y-2121833D01*
X2001153Y-2121833D01*
X1999375Y-2122900D01*
X1998486Y-2125033D01*
X1998486Y-2127166D01*
X1999375Y-2129300D01*
X2001153Y-2130366D01*
G54D11*
X2012708Y-2108322D02*
X2012708Y-2116855D01*
X2011819Y-2116855D01*
X2010042Y-2115788D01*
X2004708Y-2109388D01*
X2002931Y-2108322D01*
X2001153Y-2108322D01*
X1999375Y-2109388D01*
X1998486Y-2111522D01*
X1998486Y-2113655D01*
X1999375Y-2115788D01*
X2001153Y-2116855D01*
G54D11*
X1998486Y-2098153D02*
X2012708Y-2092820D01*
X1998486Y-2087486D01*
G54D11*
X2012708Y-2082508D02*
X1998486Y-2082508D01*
G54D11*
X2012708Y-2077530D02*
X1998486Y-2072197D01*
X2012708Y-2066864D01*
G54D11*
X2007375Y-2075397D02*
X2007375Y-2068997D01*
G54D11*
X2012708Y-2053352D02*
X2012708Y-2061885D01*
X2011819Y-2061885D01*
X2010042Y-2060818D01*
X2004708Y-2054418D01*
X2002931Y-2053352D01*
X2001153Y-2053352D01*
X1999375Y-2054418D01*
X1998486Y-2056552D01*
X1998486Y-2058685D01*
X1999375Y-2060818D01*
X2001153Y-2061885D01*
G54D10*
X2246670Y-2235592D02*
X2246670Y-2043591D01*
X2054666Y-2043591D01*
X2054666Y-2235592D01*
X2246670Y-2235592D01*
G54D10*
X2074666Y-2043591D02*
X2054666Y-2063591D01*
G54D11*
X2254049Y-2166338D02*
X2265604Y-2166338D01*
X2267382Y-2165271D01*
X2268271Y-2163138D01*
X2268271Y-2161005D01*
X2267382Y-2158871D01*
X2265604Y-2157805D01*
X2254049Y-2157805D01*
G54D11*
X2268271Y-2152827D02*
X2254049Y-2152827D01*
G54D11*
X2263826Y-2152827D02*
X2254049Y-2144294D01*
G54D11*
X2261160Y-2149627D02*
X2268271Y-2144294D01*
G54D11*
X2256716Y-2130783D02*
X2254938Y-2131849D01*
X2254049Y-2133983D01*
X2254049Y-2136116D01*
X2254938Y-2138249D01*
X2256716Y-2139316D01*
X2261160Y-2139316D01*
X2262049Y-2139316D01*
X2260271Y-2136116D01*
X2260271Y-2133983D01*
X2261160Y-2131849D01*
X2262938Y-2130783D01*
X2265604Y-2130783D01*
X2267382Y-2131849D01*
X2268271Y-2133983D01*
X2268271Y-2136116D01*
X2267382Y-2138249D01*
X2265604Y-2139316D01*
X2261160Y-2139316D01*
G54D11*
X2278250Y-2180651D02*
X2276473Y-2181718D01*
X2275584Y-2183851D01*
X2275584Y-2185984D01*
X2276473Y-2188118D01*
X2278250Y-2189184D01*
X2282695Y-2189184D01*
X2283584Y-2189184D01*
X2281806Y-2185984D01*
X2281806Y-2183851D01*
X2282695Y-2181718D01*
X2284473Y-2180651D01*
X2287139Y-2180651D01*
X2288917Y-2181718D01*
X2289806Y-2183851D01*
X2289806Y-2185984D01*
X2288917Y-2188118D01*
X2287139Y-2189184D01*
X2282695Y-2189184D01*
G54D11*
X2275584Y-2167140D02*
X2275584Y-2175673D01*
X2281806Y-2175673D01*
X2281806Y-2174606D01*
X2280917Y-2172473D01*
X2280917Y-2170340D01*
X2281806Y-2168206D01*
X2283584Y-2167140D01*
X2287139Y-2167140D01*
X2288917Y-2168206D01*
X2289806Y-2170340D01*
X2289806Y-2172473D01*
X2288917Y-2174606D01*
X2287139Y-2175673D01*
G54D11*
X2287139Y-2153629D02*
X2288917Y-2154696D01*
X2289806Y-2156829D01*
X2289806Y-2158962D01*
X2288917Y-2161096D01*
X2287139Y-2162162D01*
X2278250Y-2162162D01*
X2276473Y-2161096D01*
X2275584Y-2158962D01*
X2275584Y-2156829D01*
X2276473Y-2154696D01*
X2278250Y-2153629D01*
G54D11*
X2289806Y-2140118D02*
X2289806Y-2148651D01*
X2288917Y-2148651D01*
X2287139Y-2147584D01*
X2281806Y-2141184D01*
X2280028Y-2140118D01*
X2278250Y-2140118D01*
X2276473Y-2141184D01*
X2275584Y-2143318D01*
X2275584Y-2145451D01*
X2276473Y-2147584D01*
X2278250Y-2148651D01*
G54D11*
X2289806Y-2126607D02*
X2289806Y-2135140D01*
X2288917Y-2135140D01*
X2287139Y-2134074D01*
X2281806Y-2127674D01*
X2280028Y-2126607D01*
X2278250Y-2126607D01*
X2276473Y-2127674D01*
X2275584Y-2129807D01*
X2275584Y-2131940D01*
X2276473Y-2134074D01*
X2278250Y-2135140D01*
G54D11*
X2275584Y-2116438D02*
X2289806Y-2111105D01*
X2275584Y-2105772D01*
G54D11*
X2289806Y-2100793D02*
X2275584Y-2100793D01*
G54D11*
X2289806Y-2095815D02*
X2275584Y-2090482D01*
X2289806Y-2085148D01*
G54D11*
X2284473Y-2093682D02*
X2284473Y-2087282D01*
G54D11*
X2280917Y-2080170D02*
X2275584Y-2074837D01*
X2289806Y-2074837D01*
G54D10*
X2475666Y-2211385D02*
X2475666Y-2069388D01*
X2333666Y-2069388D01*
X2333666Y-2211385D01*
X2475666Y-2211385D01*
G54D10*
X2353666Y-2069388D02*
X2333666Y-2089387D01*
G54D11*
X2492471Y-2161434D02*
X2504026Y-2161434D01*
X2505804Y-2160367D01*
X2506693Y-2158234D01*
X2506693Y-2156101D01*
X2505804Y-2153967D01*
X2504026Y-2152901D01*
X2492471Y-2152901D01*
G54D11*
X2492471Y-2147923D02*
X2506693Y-2147923D01*
X2506693Y-2140456D01*
G54D11*
X2495138Y-2126945D02*
X2493360Y-2128011D01*
X2492471Y-2130145D01*
X2492471Y-2132278D01*
X2493360Y-2134411D01*
X2495138Y-2135478D01*
X2499582Y-2135478D01*
X2500471Y-2135478D01*
X2498693Y-2132278D01*
X2498693Y-2130145D01*
X2499582Y-2128011D01*
X2501360Y-2126945D01*
X2504026Y-2126945D01*
X2505804Y-2128011D01*
X2506693Y-2130145D01*
X2506693Y-2132278D01*
X2505804Y-2134411D01*
X2504026Y-2135478D01*
X2499582Y-2135478D01*
G54D11*
X2530166Y-2163668D02*
X2515944Y-2158334D01*
X2530166Y-2153001D01*
G54D11*
X2524832Y-2161534D02*
X2524832Y-2155134D01*
G54D11*
X2530166Y-2148023D02*
X2515944Y-2148023D01*
X2515944Y-2142690D01*
X2516832Y-2140556D01*
X2518610Y-2139490D01*
X2527499Y-2139490D01*
X2529277Y-2140556D01*
X2530166Y-2142690D01*
X2530166Y-2148023D01*
G54D11*
X2530166Y-2134512D02*
X2515944Y-2134512D01*
X2515944Y-2129178D01*
X2516832Y-2127045D01*
X2518610Y-2125978D01*
X2520388Y-2125978D01*
X2522166Y-2127045D01*
X2523055Y-2129178D01*
X2523944Y-2127045D01*
X2525721Y-2125978D01*
X2527499Y-2125978D01*
X2529277Y-2127045D01*
X2530166Y-2129178D01*
X2530166Y-2134512D01*
G54D11*
X2523055Y-2134512D02*
X2523055Y-2129178D01*
G54D10*
X1292960Y-1521700D02*
X1292960Y-1841700D01*
X1612960Y-1841700D01*
X1612960Y-1521700D01*
X1292960Y-1521700D01*
G54D10*
X1592960Y-1841700D02*
X1612960Y-1821700D01*
G54D11*
X1640527Y-1623636D02*
X1652082Y-1623636D01*
X1653860Y-1622570D01*
X1654749Y-1620436D01*
X1654749Y-1618303D01*
X1653860Y-1616170D01*
X1652082Y-1615103D01*
X1640527Y-1615103D01*
G54D11*
X1647638Y-1605858D02*
X1647638Y-1601592D01*
X1652082Y-1601592D01*
X1653860Y-1602658D01*
X1654749Y-1604792D01*
X1654749Y-1606925D01*
X1653860Y-1609058D01*
X1652082Y-1610125D01*
X1643194Y-1610125D01*
X1641416Y-1609058D01*
X1640527Y-1606925D01*
X1640527Y-1604792D01*
X1641416Y-1602658D01*
X1643194Y-1601592D01*
G54D11*
X1647638Y-1591281D02*
X1647638Y-1593414D01*
X1646749Y-1595548D01*
X1644971Y-1596614D01*
X1643194Y-1596614D01*
X1641416Y-1595548D01*
X1640527Y-1593414D01*
X1640527Y-1591281D01*
X1641416Y-1589148D01*
X1643194Y-1588081D01*
X1644971Y-1588081D01*
X1646749Y-1589148D01*
X1647638Y-1591281D01*
X1648527Y-1589148D01*
X1650305Y-1588081D01*
X1652082Y-1588081D01*
X1653860Y-1589148D01*
X1654749Y-1591281D01*
X1654749Y-1593414D01*
X1653860Y-1595548D01*
X1652082Y-1596614D01*
X1650305Y-1596614D01*
X1648527Y-1595548D01*
X1647638Y-1593414D01*
G54D11*
X1681601Y-1626930D02*
X1667379Y-1626930D01*
X1681601Y-1618396D01*
X1667379Y-1618396D01*
G54D11*
X1667379Y-1613418D02*
X1678934Y-1613418D01*
X1680712Y-1612352D01*
X1681601Y-1610218D01*
X1681601Y-1608085D01*
X1680712Y-1605952D01*
X1678934Y-1604885D01*
X1667379Y-1604885D01*
G54D11*
X1678934Y-1591374D02*
X1680712Y-1592441D01*
X1681601Y-1594574D01*
X1681601Y-1596708D01*
X1680712Y-1598841D01*
X1678934Y-1599908D01*
X1670046Y-1599908D01*
X1668268Y-1598841D01*
X1667379Y-1596708D01*
X1667379Y-1594574D01*
X1668268Y-1592441D01*
X1670046Y-1591374D01*
G54D11*
X1681601Y-1586396D02*
X1667379Y-1586396D01*
G54D11*
X1681601Y-1577863D02*
X1667379Y-1577863D01*
G54D11*
X1674490Y-1586396D02*
X1674490Y-1577863D01*
G54D11*
X1681601Y-1572886D02*
X1667379Y-1572886D01*
G54D11*
X1681601Y-1567908D02*
X1667379Y-1567908D01*
X1667379Y-1562574D01*
X1668268Y-1560441D01*
X1670046Y-1559374D01*
X1671823Y-1559374D01*
X1673601Y-1560441D01*
X1674490Y-1562574D01*
X1674490Y-1567908D01*
G54D10*
X1876764Y-1003104D02*
X2196764Y-1003104D01*
X2196764Y-683102D01*
X1876764Y-683102D01*
X1876764Y-1003104D01*
G54D10*
X2196764Y-703102D02*
X2176764Y-683102D01*
G54D11*
X2214808Y-827641D02*
X2226364Y-827641D01*
X2228142Y-826574D01*
X2229031Y-824441D01*
X2229031Y-822308D01*
X2228142Y-820174D01*
X2226364Y-819108D01*
X2214808Y-819108D01*
G54D11*
X2229031Y-814130D02*
X2214808Y-814130D01*
G54D11*
X2224586Y-814130D02*
X2214808Y-805596D01*
G54D11*
X2221919Y-810930D02*
X2229031Y-805596D01*
G54D11*
X2220142Y-800619D02*
X2214808Y-795286D01*
X2229031Y-795286D01*
G54D11*
X2217475Y-790308D02*
X2215697Y-789242D01*
X2214808Y-787108D01*
X2214808Y-784974D01*
X2215697Y-782842D01*
X2217475Y-781774D01*
X2219253Y-781774D01*
X2221030Y-782842D01*
X2221919Y-784974D01*
X2222808Y-782842D01*
X2224586Y-781774D01*
X2226364Y-781774D01*
X2228142Y-782842D01*
X2229031Y-784974D01*
X2229031Y-787108D01*
X2228142Y-789242D01*
X2226364Y-790308D01*
G54D11*
X2244594Y-824962D02*
X2244594Y-820695D01*
X2249039Y-820695D01*
X2250817Y-821762D01*
X2251706Y-823895D01*
X2251706Y-826028D01*
X2250817Y-828162D01*
X2249039Y-829228D01*
X2240150Y-829228D01*
X2238372Y-828162D01*
X2237484Y-826028D01*
X2237484Y-823895D01*
X2238372Y-821762D01*
X2240150Y-820695D01*
G54D11*
X2237484Y-815718D02*
X2251706Y-815718D01*
X2251706Y-808251D01*
G54D11*
X2237484Y-803272D02*
X2249039Y-803272D01*
X2250817Y-802206D01*
X2251706Y-800072D01*
X2251706Y-797939D01*
X2250817Y-795806D01*
X2249039Y-794739D01*
X2237484Y-794739D01*
G54D11*
X2249039Y-781228D02*
X2250817Y-782295D01*
X2251706Y-784428D01*
X2251706Y-786562D01*
X2250817Y-788695D01*
X2249039Y-789762D01*
X2240150Y-789762D01*
X2238372Y-788695D01*
X2237484Y-786562D01*
X2237484Y-784428D01*
X2238372Y-782295D01*
X2240150Y-781228D01*
G54D11*
X2251706Y-776250D02*
X2237484Y-776250D01*
G54D11*
X2251706Y-767717D02*
X2237484Y-767717D01*
G54D11*
X2244594Y-776250D02*
X2244594Y-767717D01*
G54D11*
X2251706Y-762740D02*
X2237484Y-762740D01*
G54D11*
X2251706Y-757762D02*
X2237484Y-757762D01*
X2237484Y-752428D01*
X2238372Y-750295D01*
X2240150Y-749228D01*
X2241928Y-749228D01*
X2243706Y-750295D01*
X2244594Y-752428D01*
X2244594Y-757762D01*
G54D10*
X780400Y-1917892D02*
X1048400Y-1917891D01*
X1048400Y-1649891D01*
X780400Y-1649892D01*
X780400Y-1917892D01*
G54D10*
X1048400Y-1669891D02*
X1028400Y-1649892D01*
G54D11*
X1063672Y-1844299D02*
X1075228Y-1844299D01*
X1077006Y-1843232D01*
X1077895Y-1841099D01*
X1077895Y-1838966D01*
X1077006Y-1836832D01*
X1075228Y-1835766D01*
X1063672Y-1835766D01*
G54D11*
X1075228Y-1822255D02*
X1077006Y-1823322D01*
X1077895Y-1825455D01*
X1077895Y-1827588D01*
X1077006Y-1829722D01*
X1075228Y-1830788D01*
X1066339Y-1830788D01*
X1064562Y-1829722D01*
X1063672Y-1827588D01*
X1063672Y-1825455D01*
X1064562Y-1823322D01*
X1066339Y-1822255D01*
G54D11*
X1070784Y-1811944D02*
X1070784Y-1814077D01*
X1069895Y-1816210D01*
X1068117Y-1817277D01*
X1066339Y-1817277D01*
X1064562Y-1816210D01*
X1063672Y-1814077D01*
X1063672Y-1811944D01*
X1064562Y-1809810D01*
X1066339Y-1808744D01*
X1068117Y-1808744D01*
X1069895Y-1809810D01*
X1070784Y-1811944D01*
X1071672Y-1809810D01*
X1073450Y-1808744D01*
X1075228Y-1808744D01*
X1077006Y-1809810D01*
X1077895Y-1811944D01*
X1077895Y-1814077D01*
X1077006Y-1816210D01*
X1075228Y-1817277D01*
X1073450Y-1817277D01*
X1071672Y-1816210D01*
X1070784Y-1814077D01*
G54D11*
X1088763Y-1842328D02*
X1086985Y-1843394D01*
X1086096Y-1845528D01*
X1086096Y-1847661D01*
X1086985Y-1849794D01*
X1088763Y-1850861D01*
X1093207Y-1850861D01*
X1094096Y-1850861D01*
X1092318Y-1847661D01*
X1092318Y-1845528D01*
X1093207Y-1843394D01*
X1094985Y-1842328D01*
X1097652Y-1842328D01*
X1099430Y-1843394D01*
X1100318Y-1845528D01*
X1100318Y-1847661D01*
X1099430Y-1849794D01*
X1097652Y-1850861D01*
X1093207Y-1850861D01*
G54D11*
X1093207Y-1832016D02*
X1093207Y-1834150D01*
X1092318Y-1836283D01*
X1090540Y-1837350D01*
X1088763Y-1837350D01*
X1086985Y-1836283D01*
X1086096Y-1834150D01*
X1086096Y-1832016D01*
X1086985Y-1829883D01*
X1088763Y-1828816D01*
X1090540Y-1828816D01*
X1092318Y-1829883D01*
X1093207Y-1832016D01*
X1094096Y-1829883D01*
X1095874Y-1828816D01*
X1097652Y-1828816D01*
X1099430Y-1829883D01*
X1100318Y-1832016D01*
X1100318Y-1834150D01*
X1099430Y-1836283D01*
X1097652Y-1837350D01*
X1095874Y-1837350D01*
X1094096Y-1836283D01*
X1093207Y-1834150D01*
G54D11*
X1093207Y-1818506D02*
X1093207Y-1820639D01*
X1092318Y-1822772D01*
X1090540Y-1823839D01*
X1088763Y-1823839D01*
X1086985Y-1822772D01*
X1086096Y-1820639D01*
X1086096Y-1818506D01*
X1086985Y-1816372D01*
X1088763Y-1815306D01*
X1090540Y-1815306D01*
X1092318Y-1816372D01*
X1093207Y-1818506D01*
X1094096Y-1816372D01*
X1095874Y-1815306D01*
X1097652Y-1815306D01*
X1099430Y-1816372D01*
X1100318Y-1818506D01*
X1100318Y-1820639D01*
X1099430Y-1822772D01*
X1097652Y-1823839D01*
X1095874Y-1823839D01*
X1094096Y-1822772D01*
X1093207Y-1820639D01*
G54D11*
X1093207Y-1804994D02*
X1093207Y-1807128D01*
X1092318Y-1809261D01*
X1090540Y-1810328D01*
X1088763Y-1810328D01*
X1086985Y-1809261D01*
X1086096Y-1807128D01*
X1086096Y-1804994D01*
X1086985Y-1802861D01*
X1088763Y-1801794D01*
X1090540Y-1801794D01*
X1092318Y-1802861D01*
X1093207Y-1804994D01*
X1094096Y-1802861D01*
X1095874Y-1801794D01*
X1097652Y-1801794D01*
X1099430Y-1802861D01*
X1100318Y-1804994D01*
X1100318Y-1807128D01*
X1099430Y-1809261D01*
X1097652Y-1810328D01*
X1095874Y-1810328D01*
X1094096Y-1809261D01*
X1093207Y-1807128D01*
G54D11*
X1100318Y-1788284D02*
X1100318Y-1796817D01*
X1099430Y-1796817D01*
X1097652Y-1795750D01*
X1092318Y-1789350D01*
X1090540Y-1788284D01*
X1088763Y-1788284D01*
X1086985Y-1789350D01*
X1086096Y-1791484D01*
X1086096Y-1793617D01*
X1086985Y-1795750D01*
X1088763Y-1796817D01*
G54D13*
X832644Y-2128440D02*
X832644Y-2116138D01*
X845344Y-2116138D01*
G54D13*
X1197372Y-2116534D02*
X1211262Y-2116534D01*
X1211262Y-2128440D01*
G54D13*
X829866Y-3070622D02*
X829866Y-3082925D01*
X842566Y-3082925D01*
G54D13*
X992188Y-3083322D02*
X1004888Y-3083322D01*
X1004888Y-3070622D01*
G54D13*
X1033066Y-3070622D02*
X1033066Y-3083322D01*
X1045766Y-3083322D01*
G54D13*
X1195784Y-3083322D02*
X1208088Y-3083322D01*
X1208088Y-3070622D01*
G54D13*
X994569Y-2116534D02*
X1008062Y-2116534D01*
X1008062Y-2128440D01*
G54D13*
X1035844Y-2128838D02*
X1035844Y-2116534D01*
X1049338Y-2116534D01*
G54D12*
X825103Y-2110184D02*
X825103Y-3089275D01*
X1215628Y-3089275D01*
X1215628Y-2110184D01*
X825103Y-2110184D01*
G54D13*
X1239044Y-2128440D02*
X1239044Y-2116138D01*
X1251744Y-2116138D01*
G54D13*
X1603772Y-2116534D02*
X1617662Y-2116534D01*
X1617662Y-2128440D01*
G54D13*
X1236266Y-3070622D02*
X1236266Y-3082925D01*
X1248966Y-3082925D01*
G54D13*
X1398588Y-3083322D02*
X1411288Y-3083322D01*
X1411288Y-3070622D01*
G54D13*
X1439466Y-3070622D02*
X1439466Y-3083322D01*
X1452166Y-3083322D01*
G54D13*
X1602184Y-3083322D02*
X1614488Y-3083322D01*
X1614488Y-3070622D01*
G54D13*
X1400969Y-2116534D02*
X1414462Y-2116534D01*
X1414462Y-2128440D01*
G54D13*
X1442244Y-2128838D02*
X1442244Y-2116534D01*
X1455738Y-2116534D01*
G54D12*
X1231503Y-2110184D02*
X1231503Y-3089275D01*
X1622028Y-3089275D01*
X1622028Y-2110184D01*
X1231503Y-2110184D01*
G54D12*
X1125934Y-691356D02*
X1125934Y-640556D01*
X1201738Y-640556D01*
X1201738Y-692150D01*
G54D12*
X1125934Y-1670676D02*
X1125934Y-1721476D01*
X1201738Y-1721476D01*
X1201738Y-1669883D01*
G54D11*
X1207527Y-884236D02*
X1219083Y-884236D01*
X1220860Y-885302D01*
X1221750Y-887436D01*
X1221750Y-889569D01*
X1220860Y-891702D01*
X1219083Y-892769D01*
G54D11*
X1212860Y-879258D02*
X1207527Y-873924D01*
X1221750Y-873924D01*
G54D11*
X1221750Y-860414D02*
X1221750Y-868947D01*
X1220860Y-868947D01*
X1219083Y-867880D01*
X1213750Y-861480D01*
X1211972Y-860414D01*
X1210194Y-860414D01*
X1208416Y-861480D01*
X1207527Y-863614D01*
X1207527Y-865747D01*
X1208416Y-867880D01*
X1210194Y-868947D01*
G54D11*
X1217233Y-828160D02*
X1219010Y-824960D01*
X1220788Y-823894D01*
X1224344Y-823894D01*
G54D11*
X1224344Y-832427D02*
X1210122Y-832427D01*
X1210122Y-827094D01*
X1211010Y-824960D01*
X1212788Y-823894D01*
X1214566Y-823894D01*
X1216344Y-824960D01*
X1217233Y-827094D01*
X1217233Y-832427D01*
G54D11*
X1212788Y-810382D02*
X1221678Y-810382D01*
X1223455Y-811450D01*
X1224344Y-813582D01*
X1224344Y-815716D01*
X1223455Y-817850D01*
X1221678Y-818916D01*
X1212788Y-818916D01*
X1211010Y-817850D01*
X1210122Y-815716D01*
X1210122Y-813582D01*
X1211010Y-811450D01*
X1212788Y-810382D01*
G54D11*
X1224344Y-805405D02*
X1210122Y-805405D01*
X1219010Y-800072D01*
X1210122Y-794738D01*
X1224344Y-794738D01*
G54D11*
X1221678Y-784569D02*
X1223455Y-783502D01*
X1224344Y-781369D01*
X1224344Y-779236D01*
X1223455Y-777102D01*
X1221678Y-776036D01*
X1219900Y-776036D01*
X1218122Y-777102D01*
X1217233Y-779236D01*
X1217233Y-781369D01*
X1216344Y-783502D01*
X1214566Y-784569D01*
X1212788Y-784569D01*
X1211010Y-783502D01*
X1210122Y-781369D01*
X1210122Y-779236D01*
X1211010Y-777102D01*
X1212788Y-776036D01*
G54D11*
X1224344Y-771058D02*
X1210122Y-771058D01*
G54D11*
X1224344Y-766080D02*
X1210122Y-766080D01*
X1219010Y-760746D01*
X1210122Y-755414D01*
X1224344Y-755414D01*
G54D11*
X1224344Y-750435D02*
X1210122Y-750435D01*
X1219010Y-745102D01*
X1210122Y-739768D01*
X1224344Y-739768D01*
G54D12*
X1464866Y-621110D02*
X1464866Y-508000D01*
X1618059Y-508000D01*
X1618059Y-621110D01*
X1464866Y-621110D01*
G54D14*
X1484405Y-590310D02*
X1482405Y-589110D01*
X1481405Y-586710D01*
X1481405Y-584310D01*
X1482405Y-581910D01*
X1484405Y-580710D01*
X1486405Y-580710D01*
X1488405Y-581910D01*
X1489405Y-584310D01*
X1490405Y-581910D01*
X1492405Y-580710D01*
X1494405Y-580710D01*
X1496405Y-581910D01*
X1497405Y-584310D01*
X1497405Y-586710D01*
X1496405Y-589110D01*
X1494405Y-590310D01*
G54D14*
X1497405Y-557430D02*
X1497405Y-567030D01*
X1496405Y-567030D01*
X1494405Y-565830D01*
X1488405Y-558630D01*
X1486405Y-557430D01*
X1484405Y-557430D01*
X1482405Y-558630D01*
X1481405Y-561030D01*
X1481405Y-563430D01*
X1482405Y-565830D01*
X1484405Y-567030D01*
G54D14*
X1487405Y-543750D02*
X1481405Y-537750D01*
X1497405Y-537750D01*
G54D11*
X1626908Y-645252D02*
X1629575Y-639919D01*
G54D11*
X1618019Y-640986D02*
X1626908Y-640986D01*
X1628686Y-642052D01*
X1629575Y-644186D01*
X1629575Y-646319D01*
X1628686Y-648452D01*
X1626908Y-649519D01*
X1618019Y-649519D01*
X1616242Y-648452D01*
X1615353Y-646319D01*
X1615353Y-644186D01*
X1616242Y-642052D01*
X1618019Y-640986D01*
G54D11*
X1620686Y-634941D02*
X1615353Y-629608D01*
X1629575Y-629608D01*
G54D13*
X1460730Y-335810D02*
X1460730Y-315970D01*
X1460874Y-315824D01*
X1513904Y-315824D01*
X1518738Y-320658D01*
X1518738Y-335450D01*
X1518883Y-335594D01*
G54D13*
X1460730Y-353924D02*
X1460730Y-373766D01*
X1460874Y-373910D01*
X1513904Y-373910D01*
X1518738Y-369076D01*
X1518738Y-354286D01*
X1518883Y-354142D01*
G54D15*
X1536479Y-320619D02*
X1536480Y-307286D01*
G54D15*
X1530924Y-313952D02*
X1542035Y-313952D01*
G54D11*
X1504993Y-294927D02*
X1506771Y-295994D01*
X1507660Y-298127D01*
X1507660Y-300260D01*
X1506771Y-302394D01*
X1504993Y-303460D01*
X1496104Y-303460D01*
X1494326Y-302394D01*
X1493438Y-300260D01*
X1493438Y-298127D01*
X1494326Y-295994D01*
X1496104Y-294927D01*
G54D11*
X1493438Y-289949D02*
X1493438Y-281416D01*
X1495215Y-282483D01*
X1497882Y-284616D01*
X1501438Y-286749D01*
X1504104Y-287816D01*
X1507660Y-287816D01*
G54D13*
X286290Y-306562D02*
X306130Y-306562D01*
X306276Y-306706D01*
X306276Y-359736D01*
X301441Y-364570D01*
X286650Y-364570D01*
X286506Y-364714D01*
G54D13*
X268175Y-306562D02*
X248334Y-306562D01*
X248190Y-306706D01*
X248190Y-359736D01*
X253024Y-364570D01*
X267814Y-364570D01*
X267958Y-364714D01*
G54D15*
X293940Y-393820D02*
X307273Y-393820D01*
G54D15*
X300607Y-388265D02*
X300607Y-399376D01*
G54D11*
X270069Y-406554D02*
X271847Y-407621D01*
X272736Y-409754D01*
X272736Y-411888D01*
X271847Y-414021D01*
X270069Y-415088D01*
X261180Y-415088D01*
X259402Y-414021D01*
X258514Y-411888D01*
X258514Y-409754D01*
X259402Y-407621D01*
X261180Y-406554D01*
G54D11*
X258514Y-393043D02*
X258514Y-401576D01*
X264736Y-401576D01*
X264736Y-400510D01*
X263847Y-398376D01*
X263847Y-396243D01*
X264736Y-394110D01*
X266514Y-393043D01*
X270069Y-393043D01*
X271847Y-394110D01*
X272736Y-396243D01*
X272736Y-398376D01*
X271847Y-400510D01*
X270069Y-401576D01*
G54D13*
X210884Y-306562D02*
X230724Y-306562D01*
X230869Y-306706D01*
X230869Y-359736D01*
X226035Y-364570D01*
X211244Y-364570D01*
X211100Y-364714D01*
G54D13*
X192769Y-306562D02*
X172928Y-306562D01*
X172784Y-306706D01*
X172784Y-359736D01*
X177618Y-364570D01*
X192408Y-364570D01*
X192552Y-364714D01*
G54D15*
X226074Y-396598D02*
X239408Y-396598D01*
G54D15*
X232741Y-391043D02*
X232741Y-402154D01*
G54D11*
X194663Y-400998D02*
X196440Y-402064D01*
X197330Y-404198D01*
X197330Y-406331D01*
X196440Y-408464D01*
X194663Y-409531D01*
X185774Y-409531D01*
X183996Y-408464D01*
X183107Y-406331D01*
X183107Y-404198D01*
X183996Y-402064D01*
X185774Y-400998D01*
G54D11*
X197330Y-387487D02*
X197330Y-396020D01*
X196440Y-396020D01*
X194663Y-394954D01*
X189330Y-388554D01*
X187552Y-387487D01*
X185774Y-387487D01*
X183996Y-388554D01*
X183107Y-390687D01*
X183107Y-392820D01*
X183996Y-394954D01*
X185774Y-396020D01*
G54D13*
X134684Y-306562D02*
X154524Y-306562D01*
X154669Y-306706D01*
X154669Y-359736D01*
X149835Y-364570D01*
X135044Y-364570D01*
X134900Y-364714D01*
G54D13*
X116569Y-306562D02*
X96728Y-306562D01*
X96584Y-306706D01*
X96584Y-359736D01*
X101418Y-364570D01*
X116208Y-364570D01*
X116352Y-364714D01*
G54D15*
X149478Y-399376D02*
X162811Y-399376D01*
G54D15*
X156144Y-393821D02*
X156144Y-404932D01*
G54D11*
X129575Y-401792D02*
X131353Y-402858D01*
X132242Y-404992D01*
X132242Y-407125D01*
X131353Y-409258D01*
X129575Y-410325D01*
X120686Y-410325D01*
X118909Y-409258D01*
X118020Y-407125D01*
X118020Y-404992D01*
X118909Y-402858D01*
X120686Y-401792D01*
G54D11*
X123353Y-396814D02*
X118020Y-391480D01*
X132242Y-391480D01*
G54D10*
X349647Y-234156D02*
X349647Y-284956D01*
X451246Y-284956D01*
X451246Y-234156D01*
X349647Y-234156D01*
G54D10*
X349647Y-246856D02*
X349647Y-272256D01*
X362347Y-272256D01*
X362347Y-246856D01*
X349647Y-246856D01*
G54D11*
X435975Y-333068D02*
X450197Y-333068D01*
X450197Y-325602D01*
G54D11*
X441308Y-320623D02*
X435975Y-315290D01*
X450197Y-315290D01*
G54D12*
X1994297Y-1664494D02*
X1980406Y-1664494D01*
X1980406Y-1676797D01*
G54D12*
X1994297Y-1750052D02*
X1980406Y-1750052D01*
X1980406Y-1737749D01*
G54D12*
X2677944Y-1664494D02*
X2691834Y-1664494D01*
X2691834Y-1676797D01*
G54D12*
X2677944Y-1750052D02*
X2691834Y-1750052D01*
X2691834Y-1737749D01*
G54D12*
X2310210Y-1749822D02*
X2322512Y-1749822D01*
X2322512Y-1737916D01*
X2349103Y-1737916D01*
X2349103Y-1749822D01*
X2361010Y-1749822D01*
G54D11*
X1984815Y-1780384D02*
X1996371Y-1780384D01*
X1998148Y-1781450D01*
X1999037Y-1783584D01*
X1999037Y-1785717D01*
X1998148Y-1787850D01*
X1996371Y-1788917D01*
G54D11*
X1990148Y-1775406D02*
X1984815Y-1770072D01*
X1999037Y-1770072D01*
G54D11*
X1991926Y-1759762D02*
X1991926Y-1761895D01*
X1991037Y-1764028D01*
X1989260Y-1765095D01*
X1987482Y-1765095D01*
X1985704Y-1764028D01*
X1984815Y-1761895D01*
X1984815Y-1759762D01*
X1985704Y-1757628D01*
X1987482Y-1756562D01*
X1989260Y-1756562D01*
X1991037Y-1757628D01*
X1991926Y-1759762D01*
X1992815Y-1757628D01*
X1994593Y-1756562D01*
X1996371Y-1756562D01*
X1998148Y-1757628D01*
X1999037Y-1759762D01*
X1999037Y-1761895D01*
X1998148Y-1764028D01*
X1996371Y-1765095D01*
X1994593Y-1765095D01*
X1992815Y-1764028D01*
X1991926Y-1761895D01*
G54D12*
X1868488Y-1816894D02*
X1854994Y-1816894D01*
X1854994Y-1829594D01*
G54D12*
X1868488Y-1901658D02*
X1854994Y-1901658D01*
X1854994Y-1888958D01*
G54D12*
X2172328Y-1816894D02*
X2185821Y-1816894D01*
X2185821Y-1829594D01*
G54D12*
X2172328Y-1901658D02*
X2185821Y-1901658D01*
X2185821Y-1888958D01*
G54D12*
X1994297Y-1901825D02*
X2006997Y-1901825D01*
X2006997Y-1889125D01*
X2032794Y-1889125D01*
X2032794Y-1901825D01*
X2046288Y-1901825D01*
G54D11*
X1833127Y-1803616D02*
X1844682Y-1803616D01*
X1846460Y-1804682D01*
X1847349Y-1806816D01*
X1847349Y-1808949D01*
X1846460Y-1811082D01*
X1844682Y-1812149D01*
G54D11*
X1838460Y-1798638D02*
X1833127Y-1793304D01*
X1847349Y-1793304D01*
G54D11*
X1835794Y-1779794D02*
X1834016Y-1780860D01*
X1833127Y-1782994D01*
X1833127Y-1785127D01*
X1834016Y-1787260D01*
X1835794Y-1788327D01*
X1840238Y-1788327D01*
X1841127Y-1788327D01*
X1839349Y-1785127D01*
X1839349Y-1782994D01*
X1840238Y-1780860D01*
X1842016Y-1779794D01*
X1844682Y-1779794D01*
X1846460Y-1780860D01*
X1847349Y-1782994D01*
X1847349Y-1785127D01*
X1846460Y-1787260D01*
X1844682Y-1788327D01*
X1840238Y-1788327D01*
G54D10*
X2417366Y-2279646D02*
X2417366Y-2330446D01*
X2518966Y-2330446D01*
X2518966Y-2279646D01*
X2417366Y-2279646D01*
G54D10*
X2417366Y-2292346D02*
X2417366Y-2317746D01*
X2430066Y-2317746D01*
X2430066Y-2292346D01*
X2417366Y-2292346D01*
G54D11*
X2519818Y-2378208D02*
X2531374Y-2378208D01*
X2533152Y-2377141D01*
X2534041Y-2375008D01*
X2534041Y-2372874D01*
X2533152Y-2370741D01*
X2531374Y-2369674D01*
X2519818Y-2369674D01*
G54D11*
X2534041Y-2364696D02*
X2519818Y-2364696D01*
X2528708Y-2359364D01*
X2519818Y-2354030D01*
X2534041Y-2354030D01*
G54D11*
X2519818Y-2340518D02*
X2519818Y-2349052D01*
X2526041Y-2349052D01*
X2526041Y-2347985D01*
X2525152Y-2345852D01*
X2525152Y-2343718D01*
X2526041Y-2341585D01*
X2527818Y-2340518D01*
X2531374Y-2340518D01*
X2533152Y-2341585D01*
X2534041Y-2343718D01*
X2534041Y-2345852D01*
X2533152Y-2347985D01*
X2531374Y-2349052D01*
G54D11*
X2553808Y-2395810D02*
X2555586Y-2396876D01*
X2556475Y-2399010D01*
X2556475Y-2401143D01*
X2555586Y-2403276D01*
X2553808Y-2404343D01*
X2544920Y-2404343D01*
X2543142Y-2403276D01*
X2542253Y-2401143D01*
X2542253Y-2399010D01*
X2543142Y-2396876D01*
X2544920Y-2395810D01*
G54D11*
X2542253Y-2390832D02*
X2556475Y-2390832D01*
X2556475Y-2383365D01*
G54D11*
X2544920Y-2369854D02*
X2553808Y-2369854D01*
X2555586Y-2370920D01*
X2556475Y-2373054D01*
X2556475Y-2375187D01*
X2555586Y-2377320D01*
X2553808Y-2378387D01*
X2544920Y-2378387D01*
X2543142Y-2377320D01*
X2542253Y-2375187D01*
X2542253Y-2373054D01*
X2543142Y-2370920D01*
X2544920Y-2369854D01*
G54D11*
X2553808Y-2356342D02*
X2555586Y-2357409D01*
X2556475Y-2359542D01*
X2556475Y-2361676D01*
X2555586Y-2363809D01*
X2553808Y-2364876D01*
X2544920Y-2364876D01*
X2543142Y-2363809D01*
X2542253Y-2361676D01*
X2542253Y-2359542D01*
X2543142Y-2357409D01*
X2544920Y-2356342D01*
G54D11*
X2556475Y-2351365D02*
X2542253Y-2351365D01*
G54D11*
X2552031Y-2351365D02*
X2542253Y-2342832D01*
G54D11*
X2549364Y-2348165D02*
X2556475Y-2342832D01*
G54D13*
X2367199Y-2371219D02*
X2367199Y-2358710D01*
X2366969Y-2358478D01*
X2364283Y-2358478D01*
X2364283Y-2346584D01*
X2364360Y-2346506D01*
G54D13*
X2392858Y-2371218D02*
X2392858Y-2358710D01*
X2393088Y-2358478D01*
X2395774Y-2358478D01*
X2395774Y-2346584D01*
X2395697Y-2346506D01*
G54D13*
X2364139Y-2287770D02*
X2364139Y-2275070D01*
X2395889Y-2275070D01*
X2395889Y-2287770D01*
G54D16*
X2391222Y-2431235D02*
X2397000Y-2426902D01*
X2402778Y-2426902D01*
G54D16*
X2397000Y-2426902D02*
X2391222Y-2422568D01*
G54D16*
X2402778Y-2413324D02*
X2391222Y-2413324D01*
X2398445Y-2418524D01*
X2399889Y-2418524D01*
X2399889Y-2411590D01*
G54D16*
X2348112Y-2362178D02*
X2346668Y-2361312D01*
X2345945Y-2359578D01*
X2345945Y-2357845D01*
X2346668Y-2356112D01*
X2348112Y-2355245D01*
X2349556Y-2355245D01*
X2351001Y-2356112D01*
X2351723Y-2357845D01*
X2352445Y-2356112D01*
X2353890Y-2355245D01*
X2355334Y-2355245D01*
X2356778Y-2356112D01*
X2357501Y-2357845D01*
X2357501Y-2359578D01*
X2356778Y-2361312D01*
X2355334Y-2362178D01*
G54D16*
X2357501Y-2344268D02*
X2357501Y-2351201D01*
X2356778Y-2351201D01*
X2355334Y-2350334D01*
X2351001Y-2345134D01*
X2349556Y-2344268D01*
X2348112Y-2344268D01*
X2346668Y-2345134D01*
X2345945Y-2346868D01*
X2345945Y-2348601D01*
X2346668Y-2350334D01*
X2348112Y-2351201D01*
G54D16*
X2357501Y-2340224D02*
X2357501Y-2340224D01*
G54D16*
X2345945Y-2336180D02*
X2345945Y-2329247D01*
X2347390Y-2330114D01*
X2349556Y-2331847D01*
X2352445Y-2333580D01*
X2354612Y-2334447D01*
X2357501Y-2334447D01*
G54D16*
X2348112Y-2318270D02*
X2346668Y-2319136D01*
X2345945Y-2320870D01*
X2345945Y-2322603D01*
X2346668Y-2324336D01*
X2348112Y-2325203D01*
X2351723Y-2325203D01*
X2352445Y-2325203D01*
X2351001Y-2322603D01*
X2351001Y-2320870D01*
X2351723Y-2319136D01*
X2353168Y-2318270D01*
X2355334Y-2318270D01*
X2356778Y-2319136D01*
X2357501Y-2320870D01*
X2357501Y-2322603D01*
X2356778Y-2324336D01*
X2355334Y-2325203D01*
X2351723Y-2325203D01*
G54D16*
X2351723Y-2309893D02*
X2351723Y-2311626D01*
X2351001Y-2313360D01*
X2349556Y-2314226D01*
X2348112Y-2314226D01*
X2346668Y-2313360D01*
X2345945Y-2311626D01*
X2345945Y-2309893D01*
X2346668Y-2308160D01*
X2348112Y-2307293D01*
X2349556Y-2307293D01*
X2351001Y-2308160D01*
X2351723Y-2309893D01*
X2352445Y-2308160D01*
X2353890Y-2307293D01*
X2355334Y-2307293D01*
X2356778Y-2308160D01*
X2357501Y-2309893D01*
X2357501Y-2311626D01*
X2356778Y-2313360D01*
X2355334Y-2314226D01*
X2353890Y-2314226D01*
X2352445Y-2313360D01*
X2351723Y-2311626D01*
G54D16*
X2357501Y-2303249D02*
X2345945Y-2303249D01*
G54D16*
X2353890Y-2303249D02*
X2345945Y-2296316D01*
G54D16*
X2351723Y-2300649D02*
X2357501Y-2296316D01*
G54D16*
X2357501Y-2292272D02*
X2345945Y-2292272D01*
G54D16*
X2357501Y-2285339D02*
X2345945Y-2285339D01*
G54D16*
X2351723Y-2292272D02*
X2351723Y-2285339D01*
G54D16*
X2345945Y-2281295D02*
X2345945Y-2274362D01*
X2357501Y-2281295D01*
X2357501Y-2274362D01*
G54D10*
X1765753Y-2488550D02*
X1722753Y-2488550D01*
X1722753Y-2590450D01*
X1765753Y-2590450D01*
X1765753Y-2488550D01*
G54D10*
X1760753Y-2488550D02*
X1727753Y-2488550D01*
X1727753Y-2493550D01*
X1760753Y-2493550D01*
X1760753Y-2488550D01*
G54D11*
X1805625Y-2547195D02*
X1807403Y-2543995D01*
X1809181Y-2542929D01*
X1812736Y-2542929D01*
G54D11*
X1812736Y-2551462D02*
X1798514Y-2551462D01*
X1798514Y-2546129D01*
X1799403Y-2543995D01*
X1801181Y-2542929D01*
X1802959Y-2542929D01*
X1804736Y-2543995D01*
X1805625Y-2546129D01*
X1805625Y-2551462D01*
G54D11*
X1812736Y-2537951D02*
X1798514Y-2537951D01*
X1798514Y-2532618D01*
X1799403Y-2530484D01*
X1801181Y-2529418D01*
X1802959Y-2529418D01*
X1804736Y-2530484D01*
X1805625Y-2532618D01*
X1805625Y-2537951D01*
G54D11*
X1803847Y-2524440D02*
X1798514Y-2519107D01*
X1812736Y-2519107D01*
G54D11*
X1812736Y-2505596D02*
X1812736Y-2514129D01*
X1811847Y-2514129D01*
X1810070Y-2513062D01*
X1804736Y-2506662D01*
X1802959Y-2505596D01*
X1801181Y-2505596D01*
X1799403Y-2506662D01*
X1798514Y-2508796D01*
X1798514Y-2510929D01*
X1799403Y-2513062D01*
X1801181Y-2514129D01*
G54D10*
X1906644Y-2488550D02*
X1876344Y-2488550D01*
X1876344Y-2590450D01*
X1906644Y-2590450D01*
X1906644Y-2488550D01*
G54D10*
X1901644Y-2488550D02*
X1881344Y-2488550D01*
X1881344Y-2493550D01*
X1901644Y-2493550D01*
X1901644Y-2488550D01*
G54D11*
X1948647Y-2526171D02*
X1960203Y-2526171D01*
X1961981Y-2525104D01*
X1962870Y-2522971D01*
X1962870Y-2520838D01*
X1961981Y-2518704D01*
X1960203Y-2517638D01*
X1948647Y-2517638D01*
G54D11*
X1962870Y-2512660D02*
X1948647Y-2512660D01*
G54D11*
X1962870Y-2504127D02*
X1948647Y-2504127D01*
G54D11*
X1955759Y-2512660D02*
X1955759Y-2504127D01*
G54D11*
X1951314Y-2499149D02*
X1949536Y-2498082D01*
X1948647Y-2495949D01*
X1948647Y-2493816D01*
X1949536Y-2491682D01*
X1951314Y-2490616D01*
X1953092Y-2490616D01*
X1954870Y-2491682D01*
X1955759Y-2493816D01*
X1956647Y-2491682D01*
X1958425Y-2490616D01*
X1960203Y-2490616D01*
X1961981Y-2491682D01*
X1962870Y-2493816D01*
X1962870Y-2495949D01*
X1961981Y-2498082D01*
X1960203Y-2499149D01*
G54D10*
X2059044Y-2488550D02*
X2028744Y-2488550D01*
X2028744Y-2590450D01*
X2059044Y-2590450D01*
X2059044Y-2488550D01*
G54D10*
X2054044Y-2488550D02*
X2033744Y-2488550D01*
X2033744Y-2493550D01*
X2054044Y-2493550D01*
X2054044Y-2488550D01*
G54D11*
X2089142Y-2606737D02*
X2100697Y-2606737D01*
X2102475Y-2605670D01*
X2103364Y-2603537D01*
X2103364Y-2601404D01*
X2102475Y-2599270D01*
X2100697Y-2598204D01*
X2089142Y-2598204D01*
G54D11*
X2089142Y-2584692D02*
X2100697Y-2584692D01*
X2102475Y-2585759D01*
X2103364Y-2587892D01*
X2103364Y-2590026D01*
X2102475Y-2592159D01*
X2100697Y-2593226D01*
G54D11*
X2091808Y-2579715D02*
X2090030Y-2578648D01*
X2089142Y-2576515D01*
X2089142Y-2574382D01*
X2090030Y-2572248D01*
X2091808Y-2571182D01*
X2093586Y-2571182D01*
X2095364Y-2572248D01*
X2096253Y-2574382D01*
X2097142Y-2572248D01*
X2098919Y-2571182D01*
X2100697Y-2571182D01*
X2102475Y-2572248D01*
X2103364Y-2574382D01*
X2103364Y-2576515D01*
X2102475Y-2578648D01*
X2100697Y-2579715D01*
G54D10*
X1765753Y-2641347D02*
X1722753Y-2641347D01*
X1722753Y-2743247D01*
X1765753Y-2743247D01*
X1765753Y-2641347D01*
G54D10*
X1760753Y-2641347D02*
X1727753Y-2641347D01*
X1727753Y-2646347D01*
X1760753Y-2646347D01*
X1760753Y-2641347D01*
G54D11*
X1806321Y-2678038D02*
X1808099Y-2674838D01*
X1809877Y-2673771D01*
X1813432Y-2673771D01*
G54D11*
X1813432Y-2682304D02*
X1799210Y-2682304D01*
X1799210Y-2676971D01*
X1800099Y-2674838D01*
X1801877Y-2673771D01*
X1803654Y-2673771D01*
X1805432Y-2674838D01*
X1806321Y-2676971D01*
X1806321Y-2682304D01*
G54D11*
X1813432Y-2668794D02*
X1799210Y-2668794D01*
X1799210Y-2663460D01*
X1800099Y-2661327D01*
X1801877Y-2660260D01*
X1803654Y-2660260D01*
X1805432Y-2661327D01*
X1806321Y-2663460D01*
X1806321Y-2668794D01*
G54D11*
X1804543Y-2655282D02*
X1799210Y-2649949D01*
X1813432Y-2649949D01*
G54D11*
X1804543Y-2644972D02*
X1799210Y-2639638D01*
X1813432Y-2639638D01*
G54D10*
X1906644Y-2641347D02*
X1876344Y-2641347D01*
X1876344Y-2743247D01*
X1906644Y-2743247D01*
X1906644Y-2641347D01*
G54D10*
X1901644Y-2641347D02*
X1881344Y-2641347D01*
X1881344Y-2646347D01*
X1901644Y-2646347D01*
X1901644Y-2641347D01*
G54D11*
X1947151Y-2642658D02*
X1958706Y-2642658D01*
X1960484Y-2641591D01*
X1961373Y-2639458D01*
X1961373Y-2637324D01*
X1960484Y-2635191D01*
X1958706Y-2634124D01*
X1947151Y-2634124D01*
G54D11*
X1961373Y-2629147D02*
X1947151Y-2629147D01*
G54D11*
X1961373Y-2620613D02*
X1947151Y-2620613D01*
G54D11*
X1954262Y-2629147D02*
X1954262Y-2620613D01*
G54D11*
X1961373Y-2607102D02*
X1961373Y-2615636D01*
X1960484Y-2615636D01*
X1958706Y-2614569D01*
X1953373Y-2608169D01*
X1951595Y-2607102D01*
X1949817Y-2607102D01*
X1948040Y-2608169D01*
X1947151Y-2610302D01*
X1947151Y-2612436D01*
X1948040Y-2614569D01*
X1949817Y-2615636D01*
G54D10*
X2059044Y-2641347D02*
X2028744Y-2641347D01*
X2028744Y-2743247D01*
X2059044Y-2743247D01*
X2059044Y-2641347D01*
G54D10*
X2054044Y-2641347D02*
X2033744Y-2641347D01*
X2033744Y-2646347D01*
X2054044Y-2646347D01*
X2054044Y-2641347D01*
G54D11*
X2105504Y-2765292D02*
X2117060Y-2765292D01*
X2118837Y-2764225D01*
X2119726Y-2762092D01*
X2119726Y-2759959D01*
X2118837Y-2757825D01*
X2117060Y-2756759D01*
X2105504Y-2756759D01*
G54D11*
X2105504Y-2743248D02*
X2117060Y-2743248D01*
X2118837Y-2744314D01*
X2119726Y-2746448D01*
X2119726Y-2748581D01*
X2118837Y-2750714D01*
X2117060Y-2751781D01*
G54D11*
X2119726Y-2729737D02*
X2119726Y-2738270D01*
X2118837Y-2738270D01*
X2117060Y-2737203D01*
X2111726Y-2730803D01*
X2109948Y-2729737D01*
X2108171Y-2729737D01*
X2106393Y-2730803D01*
X2105504Y-2732937D01*
X2105504Y-2735070D01*
X2106393Y-2737203D01*
X2108171Y-2738270D01*
G54D10*
X1765753Y-2793747D02*
X1722753Y-2793747D01*
X1722753Y-2895647D01*
X1765753Y-2895647D01*
X1765753Y-2793747D01*
G54D10*
X1760753Y-2793747D02*
X1727753Y-2793747D01*
X1727753Y-2798747D01*
X1760753Y-2798747D01*
X1760753Y-2793747D01*
G54D11*
X1802756Y-2902992D02*
X1804534Y-2899792D01*
X1806312Y-2898724D01*
X1809867Y-2898724D01*
G54D11*
X1809867Y-2907258D02*
X1795645Y-2907258D01*
X1795645Y-2901924D01*
X1796534Y-2899792D01*
X1798312Y-2898724D01*
X1800090Y-2898724D01*
X1801867Y-2899792D01*
X1802756Y-2901924D01*
X1802756Y-2907258D01*
G54D11*
X1809867Y-2893747D02*
X1795645Y-2893747D01*
X1795645Y-2888414D01*
X1796534Y-2886280D01*
X1798312Y-2885214D01*
X1800090Y-2885214D01*
X1801867Y-2886280D01*
X1802756Y-2888414D01*
X1802756Y-2893747D01*
G54D11*
X1800978Y-2880236D02*
X1795645Y-2874902D01*
X1809867Y-2874902D01*
G54D11*
X1798312Y-2861392D02*
X1807201Y-2861392D01*
X1808978Y-2862458D01*
X1809867Y-2864592D01*
X1809867Y-2866725D01*
X1808978Y-2868858D01*
X1807201Y-2869925D01*
X1798312Y-2869925D01*
X1796534Y-2868858D01*
X1795645Y-2866725D01*
X1795645Y-2864592D01*
X1796534Y-2862458D01*
X1798312Y-2861392D01*
G54D10*
X1906644Y-2793747D02*
X1876344Y-2793747D01*
X1876344Y-2895647D01*
X1906644Y-2895647D01*
X1906644Y-2793747D01*
G54D10*
X1901644Y-2793747D02*
X1881344Y-2793747D01*
X1881344Y-2798747D01*
X1901644Y-2798747D01*
X1901644Y-2793747D01*
G54D11*
X1937391Y-2799724D02*
X1948947Y-2799724D01*
X1950724Y-2798657D01*
X1951613Y-2796524D01*
X1951613Y-2794390D01*
X1950724Y-2792257D01*
X1948947Y-2791190D01*
X1937391Y-2791190D01*
G54D11*
X1951613Y-2786212D02*
X1937391Y-2786212D01*
G54D11*
X1951613Y-2777679D02*
X1937391Y-2777679D01*
G54D11*
X1944502Y-2786212D02*
X1944502Y-2777679D01*
G54D11*
X1942724Y-2772702D02*
X1937391Y-2767368D01*
X1951613Y-2767368D01*
G54D10*
X2059047Y-2793747D02*
X2028746Y-2793747D01*
X2028746Y-2895647D01*
X2059047Y-2895647D01*
X2059047Y-2793747D01*
G54D10*
X2054047Y-2793747D02*
X2033746Y-2793747D01*
X2033746Y-2798747D01*
X2054047Y-2798747D01*
X2054047Y-2793747D01*
G54D11*
X2098524Y-2831076D02*
X2110080Y-2831076D01*
X2111858Y-2830010D01*
X2112746Y-2827876D01*
X2112746Y-2825743D01*
X2111858Y-2823610D01*
X2110080Y-2822543D01*
X2098524Y-2822543D01*
G54D11*
X2098524Y-2809032D02*
X2110080Y-2809032D01*
X2111858Y-2810099D01*
X2112746Y-2812232D01*
X2112746Y-2814366D01*
X2111858Y-2816499D01*
X2110080Y-2817566D01*
G54D11*
X2103858Y-2804054D02*
X2098524Y-2798721D01*
X2112746Y-2798721D01*
G54D10*
X2205942Y-2641347D02*
X2182940Y-2641347D01*
X2182940Y-2730547D01*
X2205942Y-2730547D01*
X2205942Y-2641347D01*
G54D10*
X2200942Y-2641347D02*
X2187941Y-2641347D01*
X2187941Y-2646347D01*
X2200942Y-2646347D01*
X2200942Y-2641347D01*
G54D11*
X2239393Y-2722208D02*
X2250949Y-2722208D01*
X2252726Y-2721141D01*
X2253616Y-2719008D01*
X2253616Y-2716875D01*
X2252726Y-2714741D01*
X2250949Y-2713675D01*
X2239393Y-2713675D01*
G54D11*
X2253616Y-2708697D02*
X2239393Y-2708697D01*
G54D11*
X2249171Y-2708697D02*
X2239393Y-2700164D01*
G54D11*
X2246504Y-2705497D02*
X2253616Y-2700164D01*
G54D11*
X2253616Y-2686653D02*
X2253616Y-2695186D01*
X2252726Y-2695186D01*
X2250949Y-2694119D01*
X2245616Y-2687719D01*
X2243838Y-2686653D01*
X2242060Y-2686653D01*
X2240282Y-2687719D01*
X2239393Y-2689853D01*
X2239393Y-2691986D01*
X2240282Y-2694119D01*
X2242060Y-2695186D01*
G54D11*
X2150084Y-2735888D02*
X2158617Y-2735888D01*
X2157551Y-2737666D01*
X2155417Y-2740332D01*
X2153284Y-2743888D01*
X2152217Y-2746555D01*
X2152217Y-2750110D01*
G54D11*
X2169995Y-2750110D02*
X2169995Y-2735888D01*
X2163595Y-2744777D01*
X2163595Y-2746555D01*
X2172128Y-2746555D01*
G54D11*
X2177106Y-2750110D02*
X2177106Y-2735888D01*
G54D11*
X2185639Y-2750110D02*
X2185639Y-2735888D01*
G54D11*
X2177106Y-2742999D02*
X2185639Y-2742999D01*
G54D11*
X2199150Y-2747443D02*
X2198084Y-2749221D01*
X2195950Y-2750110D01*
X2193817Y-2750110D01*
X2191684Y-2749221D01*
X2190617Y-2747444D01*
X2190617Y-2738555D01*
X2191684Y-2736777D01*
X2193817Y-2735888D01*
X2195950Y-2735888D01*
X2198084Y-2736777D01*
X2199150Y-2738554D01*
G54D11*
X2204128Y-2741221D02*
X2209461Y-2735888D01*
X2209461Y-2750110D01*
G54D11*
X2214439Y-2738554D02*
X2215506Y-2736777D01*
X2217639Y-2735888D01*
X2219772Y-2735888D01*
X2221906Y-2736777D01*
X2222972Y-2738554D01*
X2222972Y-2740332D01*
X2221906Y-2742110D01*
X2219772Y-2742999D01*
X2221906Y-2743888D01*
X2222972Y-2745666D01*
X2222972Y-2747444D01*
X2221906Y-2749221D01*
X2219772Y-2750110D01*
X2217639Y-2750110D01*
X2215506Y-2749221D01*
X2214439Y-2747444D01*
G54D11*
X2236483Y-2750110D02*
X2227950Y-2750110D01*
X2227950Y-2749221D01*
X2229017Y-2747444D01*
X2235416Y-2742110D01*
X2236483Y-2740332D01*
X2236483Y-2738555D01*
X2235416Y-2736777D01*
X2233283Y-2735888D01*
X2231150Y-2735888D01*
X2229016Y-2736777D01*
X2227950Y-2738554D01*
G54D10*
X2358342Y-2641347D02*
X2335340Y-2641347D01*
X2335340Y-2730547D01*
X2358342Y-2730547D01*
X2358342Y-2641347D01*
G54D10*
X2353342Y-2641347D02*
X2340341Y-2641347D01*
X2340341Y-2646347D01*
X2353342Y-2646347D01*
X2353342Y-2641347D01*
G54D11*
X2331517Y-2622310D02*
X2331517Y-2633865D01*
X2332584Y-2635642D01*
X2334717Y-2636532D01*
X2336850Y-2636532D01*
X2338984Y-2635642D01*
X2340050Y-2633865D01*
X2340050Y-2622309D01*
G54D11*
X2345028Y-2622309D02*
X2345028Y-2636532D01*
X2352495Y-2636532D01*
G54D11*
X2366006Y-2636532D02*
X2357473Y-2636532D01*
X2357473Y-2635642D01*
X2358540Y-2633865D01*
X2364940Y-2628532D01*
X2366006Y-2626754D01*
X2366006Y-2624976D01*
X2364940Y-2623198D01*
X2362806Y-2622310D01*
X2360673Y-2622310D01*
X2358540Y-2623198D01*
X2357473Y-2624976D01*
G54D11*
X2311674Y-2741028D02*
X2320208Y-2741028D01*
X2319142Y-2742806D01*
X2317008Y-2745472D01*
X2314874Y-2749028D01*
X2313808Y-2751694D01*
X2313808Y-2755250D01*
G54D11*
X2331586Y-2755250D02*
X2331586Y-2741028D01*
X2325186Y-2749917D01*
X2325186Y-2751694D01*
X2333719Y-2751694D01*
G54D11*
X2338696Y-2755250D02*
X2338696Y-2741028D01*
G54D11*
X2347230Y-2755250D02*
X2347230Y-2741028D01*
G54D11*
X2338696Y-2748139D02*
X2347230Y-2748139D01*
G54D11*
X2360741Y-2752584D02*
X2359674Y-2754361D01*
X2357541Y-2755250D01*
X2355408Y-2755250D01*
X2353274Y-2754361D01*
X2352208Y-2752584D01*
X2352208Y-2743694D01*
X2353274Y-2741917D01*
X2355408Y-2741028D01*
X2357541Y-2741028D01*
X2359674Y-2741917D01*
X2360741Y-2743694D01*
G54D11*
X2365718Y-2741028D02*
X2374252Y-2741028D01*
X2373186Y-2742806D01*
X2371052Y-2745472D01*
X2368918Y-2749028D01*
X2367852Y-2751694D01*
X2367852Y-2755250D01*
G54D11*
X2385630Y-2755250D02*
X2385630Y-2741028D01*
X2379230Y-2749917D01*
X2379230Y-2751694D01*
X2387763Y-2751694D01*
G54D10*
X2478992Y-2641347D02*
X2455990Y-2641347D01*
X2455990Y-2730547D01*
X2478992Y-2730547D01*
X2478992Y-2641347D01*
G54D10*
X2473992Y-2641347D02*
X2460991Y-2641347D01*
X2460991Y-2646347D01*
X2473992Y-2646347D01*
X2473992Y-2641347D01*
G54D11*
X2508748Y-2688350D02*
X2520303Y-2688350D01*
X2522081Y-2687283D01*
X2522970Y-2685150D01*
X2522970Y-2683016D01*
X2522081Y-2680883D01*
X2520303Y-2679816D01*
X2508748Y-2679816D01*
G54D11*
X2522970Y-2674839D02*
X2508748Y-2674839D01*
X2517636Y-2669506D01*
X2508748Y-2664172D01*
X2522970Y-2664172D01*
G54D11*
X2522970Y-2650660D02*
X2522970Y-2659194D01*
X2522081Y-2659194D01*
X2520303Y-2658127D01*
X2514970Y-2651727D01*
X2513192Y-2650660D01*
X2511414Y-2650660D01*
X2509636Y-2651727D01*
X2508748Y-2653860D01*
X2508748Y-2655994D01*
X2509636Y-2658127D01*
X2511414Y-2659194D01*
G54D11*
X2424786Y-2740631D02*
X2433319Y-2740631D01*
X2432252Y-2742409D01*
X2430119Y-2745076D01*
X2427986Y-2748631D01*
X2426919Y-2751298D01*
X2426919Y-2754853D01*
G54D11*
X2444696Y-2754853D02*
X2444696Y-2740631D01*
X2438296Y-2749520D01*
X2438296Y-2751298D01*
X2446830Y-2751298D01*
G54D11*
X2451808Y-2754853D02*
X2451808Y-2740631D01*
G54D11*
X2460341Y-2754853D02*
X2460341Y-2740631D01*
G54D11*
X2451808Y-2747742D02*
X2460341Y-2747742D01*
G54D11*
X2473852Y-2752186D02*
X2472786Y-2753964D01*
X2470652Y-2754853D01*
X2468518Y-2754853D01*
X2466386Y-2753964D01*
X2465318Y-2752186D01*
X2465318Y-2743298D01*
X2466386Y-2741520D01*
X2468518Y-2740631D01*
X2470652Y-2740631D01*
X2472786Y-2741520D01*
X2473852Y-2743298D01*
G54D11*
X2478830Y-2745964D02*
X2484163Y-2740631D01*
X2484163Y-2754853D01*
G54D11*
X2489140Y-2743298D02*
X2490208Y-2741520D01*
X2492340Y-2740631D01*
X2494474Y-2740631D01*
X2496608Y-2741520D01*
X2497674Y-2743298D01*
X2497674Y-2745076D01*
X2496608Y-2746853D01*
X2494474Y-2747742D01*
X2496608Y-2748631D01*
X2497674Y-2750409D01*
X2497674Y-2752186D01*
X2496608Y-2753964D01*
X2494474Y-2754853D01*
X2492340Y-2754853D01*
X2490208Y-2753964D01*
X2489140Y-2752186D01*
G54D11*
X2511185Y-2754853D02*
X2502652Y-2754853D01*
X2502652Y-2753964D01*
X2503718Y-2752186D01*
X2510118Y-2746853D01*
X2511185Y-2745076D01*
X2511185Y-2743298D01*
X2510118Y-2741520D01*
X2507985Y-2740631D01*
X2505852Y-2740631D01*
X2503718Y-2741520D01*
X2502652Y-2743298D01*
G54D13*
X2153767Y-2552164D02*
X2133927Y-2552164D01*
X2133782Y-2552020D01*
X2133782Y-2498990D01*
X2138616Y-2494156D01*
X2153408Y-2494156D01*
X2153551Y-2494011D01*
G54D13*
X2171882Y-2552164D02*
X2191724Y-2552164D01*
X2191868Y-2552020D01*
X2191867Y-2498990D01*
X2187033Y-2494156D01*
X2172243Y-2494156D01*
X2172100Y-2494011D01*
G54D15*
X2157230Y-2462128D02*
X2143897Y-2462128D01*
G54D15*
X2150564Y-2467682D02*
X2150564Y-2456572D01*
G54D11*
X2191974Y-2590499D02*
X2193752Y-2591566D01*
X2194640Y-2593699D01*
X2194640Y-2595832D01*
X2193752Y-2597966D01*
X2191974Y-2599032D01*
X2183085Y-2599032D01*
X2181307Y-2597966D01*
X2180418Y-2595832D01*
X2180418Y-2593699D01*
X2181307Y-2591566D01*
X2183085Y-2590499D01*
G54D11*
X2187530Y-2580188D02*
X2187530Y-2582322D01*
X2186640Y-2584455D01*
X2184863Y-2585522D01*
X2183085Y-2585522D01*
X2181307Y-2584455D01*
X2180418Y-2582322D01*
X2180418Y-2580188D01*
X2181307Y-2578055D01*
X2183085Y-2576988D01*
X2184863Y-2576988D01*
X2186640Y-2578055D01*
X2187530Y-2580188D01*
X2188418Y-2578055D01*
X2190196Y-2576988D01*
X2191974Y-2576988D01*
X2193752Y-2578055D01*
X2194640Y-2580188D01*
X2194640Y-2582322D01*
X2193752Y-2584455D01*
X2191974Y-2585522D01*
X2190196Y-2585522D01*
X2188418Y-2584455D01*
X2187530Y-2582322D01*
G54D13*
X2229174Y-2552164D02*
X2209334Y-2552164D01*
X2209188Y-2552020D01*
X2209189Y-2498990D01*
X2214023Y-2494156D01*
X2228814Y-2494156D01*
X2228958Y-2494011D01*
G54D13*
X2247289Y-2552164D02*
X2267130Y-2552164D01*
X2267274Y-2552020D01*
X2267274Y-2498990D01*
X2262440Y-2494156D01*
X2247650Y-2494156D01*
X2247506Y-2494011D01*
G54D15*
X2225889Y-2464906D02*
X2212557Y-2464906D01*
G54D15*
X2219223Y-2470460D02*
X2219223Y-2459350D01*
G54D11*
X2249522Y-2591293D02*
X2251300Y-2592360D01*
X2252188Y-2594493D01*
X2252188Y-2596626D01*
X2251300Y-2598760D01*
X2249522Y-2599826D01*
X2240633Y-2599826D01*
X2238855Y-2598760D01*
X2237966Y-2596626D01*
X2237966Y-2594493D01*
X2238855Y-2592360D01*
X2240633Y-2591293D01*
G54D11*
X2249522Y-2586316D02*
X2251300Y-2585249D01*
X2252188Y-2583116D01*
X2252188Y-2580982D01*
X2251300Y-2578849D01*
X2249522Y-2577782D01*
X2245078Y-2577782D01*
X2244188Y-2577782D01*
X2245966Y-2580982D01*
X2245966Y-2583116D01*
X2245078Y-2585249D01*
X2243300Y-2586316D01*
X2240633Y-2586316D01*
X2238855Y-2585249D01*
X2237966Y-2583116D01*
X2237966Y-2580982D01*
X2238855Y-2578849D01*
X2240633Y-2577782D01*
X2245078Y-2577782D01*
G54D13*
X2305374Y-2552164D02*
X2285534Y-2552164D01*
X2285389Y-2552020D01*
X2285389Y-2498990D01*
X2290222Y-2494156D01*
X2305014Y-2494156D01*
X2305158Y-2494011D01*
G54D13*
X2323489Y-2552164D02*
X2343330Y-2552164D01*
X2343474Y-2552020D01*
X2343474Y-2498990D01*
X2338640Y-2494156D01*
X2323850Y-2494156D01*
X2323706Y-2494011D01*
G54D15*
X2340190Y-2467684D02*
X2326856Y-2467684D01*
G54D15*
X2333523Y-2473239D02*
X2333523Y-2462128D01*
G54D11*
X2361440Y-2607142D02*
X2363218Y-2608209D01*
X2364107Y-2610342D01*
X2364107Y-2612476D01*
X2363218Y-2614609D01*
X2361440Y-2615676D01*
X2352551Y-2615676D01*
X2350774Y-2614609D01*
X2349884Y-2612476D01*
X2349884Y-2610342D01*
X2350774Y-2608209D01*
X2352551Y-2607142D01*
G54D11*
X2355218Y-2602165D02*
X2349884Y-2596832D01*
X2364107Y-2596832D01*
G54D11*
X2352551Y-2583320D02*
X2361440Y-2583320D01*
X2363218Y-2584387D01*
X2364107Y-2586520D01*
X2364107Y-2588654D01*
X2363218Y-2590787D01*
X2361440Y-2591854D01*
X2352551Y-2591854D01*
X2350774Y-2590787D01*
X2349884Y-2588654D01*
X2349884Y-2586520D01*
X2350774Y-2584387D01*
X2352551Y-2583320D01*
G54D13*
X2381574Y-2552164D02*
X2361734Y-2552164D01*
X2361589Y-2552020D01*
X2361589Y-2498990D01*
X2366422Y-2494156D01*
X2381214Y-2494156D01*
X2381358Y-2494011D01*
G54D13*
X2399689Y-2552164D02*
X2419530Y-2552164D01*
X2419674Y-2552020D01*
X2419674Y-2498990D01*
X2414840Y-2494156D01*
X2400050Y-2494156D01*
X2399906Y-2494011D01*
G54D15*
X2423930Y-2470065D02*
X2410597Y-2470065D01*
G54D15*
X2417264Y-2475620D02*
X2417264Y-2464509D01*
G54D11*
X2431687Y-2589680D02*
X2433465Y-2590746D01*
X2434354Y-2592880D01*
X2434354Y-2595013D01*
X2433465Y-2597146D01*
X2431687Y-2598213D01*
X2422798Y-2598213D01*
X2421020Y-2597146D01*
X2420132Y-2595013D01*
X2420132Y-2592880D01*
X2421020Y-2590746D01*
X2422798Y-2589680D01*
G54D11*
X2425465Y-2584702D02*
X2420132Y-2579369D01*
X2434354Y-2579369D01*
G54D11*
X2425465Y-2574391D02*
X2420132Y-2569058D01*
X2434354Y-2569058D01*
G54D13*
X2457966Y-2549056D02*
X2446180Y-2549056D01*
X2446148Y-2549089D01*
X2446148Y-2536614D01*
X2446180Y-2536581D01*
G54D13*
X2477898Y-2549056D02*
X2489684Y-2549056D01*
X2489716Y-2549089D01*
X2489716Y-2536614D01*
X2489684Y-2536581D01*
G54D13*
X2446148Y-2510589D02*
X2446148Y-2500609D01*
X2448544Y-2498212D01*
X2457834Y-2498212D01*
X2457868Y-2498245D01*
G54D13*
X2489618Y-2510589D02*
X2489618Y-2500609D01*
X2487222Y-2498212D01*
X2477930Y-2498212D01*
X2477898Y-2498245D01*
G54D15*
X2447338Y-2492359D02*
X2447338Y-2479026D01*
G54D15*
X2441782Y-2485692D02*
X2452892Y-2485692D01*
G54D11*
X2485351Y-2468887D02*
X2487129Y-2469954D01*
X2488018Y-2472087D01*
X2488018Y-2474220D01*
X2487129Y-2476354D01*
X2485351Y-2477420D01*
X2476462Y-2477420D01*
X2474684Y-2476354D01*
X2473796Y-2474220D01*
X2473796Y-2472087D01*
X2474684Y-2469954D01*
X2476462Y-2468887D01*
G54D11*
X2479129Y-2463910D02*
X2473796Y-2458576D01*
X2488018Y-2458576D01*
G54D11*
X2473796Y-2445065D02*
X2473796Y-2453598D01*
X2480018Y-2453598D01*
X2480018Y-2452532D01*
X2479129Y-2450398D01*
X2479129Y-2448265D01*
X2480018Y-2446132D01*
X2481796Y-2445065D01*
X2485351Y-2445065D01*
X2487129Y-2446132D01*
X2488018Y-2448265D01*
X2488018Y-2450398D01*
X2487129Y-2452532D01*
X2485351Y-2453598D01*
G54D13*
X2534588Y-2549056D02*
X2522802Y-2549056D01*
X2522768Y-2549089D01*
X2522768Y-2536614D01*
X2522802Y-2536581D01*
G54D13*
X2554518Y-2549056D02*
X2566304Y-2549056D01*
X2566338Y-2549089D01*
X2566338Y-2536614D01*
X2566304Y-2536581D01*
G54D13*
X2522768Y-2510589D02*
X2522768Y-2500609D01*
X2525164Y-2498212D01*
X2534456Y-2498212D01*
X2534488Y-2498245D01*
G54D13*
X2566238Y-2510589D02*
X2566238Y-2500609D01*
X2563842Y-2498212D01*
X2554552Y-2498212D01*
X2554518Y-2498245D01*
G54D15*
X2523958Y-2492359D02*
X2523958Y-2479026D01*
G54D15*
X2518402Y-2485692D02*
X2529514Y-2485692D01*
G54D11*
X2551256Y-2469681D02*
X2553034Y-2470748D01*
X2553923Y-2472881D01*
X2553923Y-2475014D01*
X2553034Y-2477148D01*
X2551256Y-2478214D01*
X2542368Y-2478214D01*
X2540590Y-2477148D01*
X2539701Y-2475014D01*
X2539701Y-2472881D01*
X2540590Y-2470748D01*
X2542368Y-2469681D01*
G54D11*
X2545034Y-2464704D02*
X2539701Y-2459370D01*
X2553923Y-2459370D01*
G54D11*
X2542368Y-2445859D02*
X2540590Y-2446926D01*
X2539701Y-2449059D01*
X2539701Y-2451192D01*
X2540590Y-2453326D01*
X2542368Y-2454392D01*
X2546812Y-2454392D01*
X2547701Y-2454392D01*
X2545923Y-2451192D01*
X2545923Y-2449059D01*
X2546812Y-2446926D01*
X2548590Y-2445859D01*
X2551256Y-2445859D01*
X2553034Y-2446926D01*
X2553923Y-2449059D01*
X2553923Y-2451192D01*
X2553034Y-2453326D01*
X2551256Y-2454392D01*
X2546812Y-2454392D01*
G54D10*
X2014486Y-2419904D02*
X2009248Y-2419904D01*
X2009248Y-2410079D01*
G54D10*
X2034550Y-2419904D02*
X2039786Y-2419904D01*
X2039786Y-2410079D01*
G54D11*
X2029794Y-2374810D02*
X2015572Y-2374810D01*
X2015572Y-2369476D01*
X2016461Y-2367344D01*
X2018239Y-2366276D01*
X2027128Y-2366276D01*
X2028905Y-2367344D01*
X2029794Y-2369476D01*
X2029794Y-2374810D01*
G54D11*
X2029794Y-2354899D02*
X2015572Y-2354899D01*
X2024461Y-2361299D01*
X2026239Y-2361299D01*
X2026239Y-2352766D01*
G54D10*
X2090686Y-2419904D02*
X2085448Y-2419904D01*
X2085448Y-2410079D01*
G54D10*
X2110750Y-2419904D02*
X2115986Y-2419904D01*
X2115986Y-2410079D01*
G54D11*
X2112344Y-2368460D02*
X2098122Y-2368460D01*
X2098122Y-2363127D01*
X2099011Y-2360993D01*
X2100789Y-2359927D01*
X2109678Y-2359927D01*
X2111455Y-2360993D01*
X2112344Y-2363127D01*
X2112344Y-2368460D01*
G54D11*
X2098122Y-2346416D02*
X2098122Y-2354949D01*
X2104344Y-2354949D01*
X2104344Y-2353882D01*
X2103455Y-2351749D01*
X2103455Y-2349616D01*
X2104344Y-2347482D01*
X2106122Y-2346416D01*
X2109678Y-2346416D01*
X2111455Y-2347482D01*
X2112344Y-2349616D01*
X2112344Y-2351749D01*
X2111455Y-2353882D01*
X2109678Y-2354949D01*
G54D10*
X2166886Y-2419904D02*
X2161648Y-2419904D01*
X2161648Y-2410079D01*
G54D10*
X2186950Y-2419904D02*
X2192186Y-2419904D01*
X2192186Y-2410079D01*
G54D11*
X2183782Y-2369651D02*
X2169560Y-2369651D01*
X2169560Y-2364318D01*
X2170448Y-2362184D01*
X2172226Y-2361118D01*
X2181115Y-2361118D01*
X2182893Y-2362184D01*
X2183782Y-2364318D01*
X2183782Y-2369651D01*
G54D11*
X2172226Y-2347606D02*
X2170448Y-2348673D01*
X2169560Y-2350806D01*
X2169560Y-2352940D01*
X2170448Y-2355073D01*
X2172226Y-2356140D01*
X2176671Y-2356140D01*
X2177560Y-2356140D01*
X2175782Y-2352940D01*
X2175782Y-2350806D01*
X2176671Y-2348673D01*
X2178448Y-2347606D01*
X2181115Y-2347606D01*
X2182893Y-2348673D01*
X2183782Y-2350806D01*
X2183782Y-2352940D01*
X2182893Y-2355073D01*
X2181115Y-2356140D01*
X2176671Y-2356140D01*
G54D10*
X2243086Y-2419904D02*
X2237848Y-2419904D01*
X2237848Y-2410079D01*
G54D10*
X2263150Y-2419904D02*
X2268386Y-2419904D01*
X2268386Y-2410079D01*
G54D11*
X2245012Y-2365384D02*
X2247678Y-2360051D01*
G54D11*
X2236123Y-2361118D02*
X2245012Y-2361118D01*
X2246790Y-2362184D01*
X2247678Y-2364318D01*
X2247678Y-2366451D01*
X2246790Y-2368584D01*
X2245012Y-2369651D01*
X2236123Y-2369651D01*
X2234345Y-2368584D01*
X2233456Y-2366451D01*
X2233456Y-2364318D01*
X2234345Y-2362184D01*
X2236123Y-2361118D01*
G54D11*
X2247678Y-2346540D02*
X2247678Y-2355073D01*
X2246790Y-2355073D01*
X2245012Y-2354006D01*
X2239678Y-2347606D01*
X2237901Y-2346540D01*
X2236123Y-2346540D01*
X2234345Y-2347606D01*
X2233456Y-2349740D01*
X2233456Y-2351873D01*
X2234345Y-2354006D01*
X2236123Y-2355073D01*
G54D10*
X2293886Y-2419904D02*
X2288648Y-2419904D01*
X2288648Y-2410079D01*
G54D10*
X2313950Y-2419904D02*
X2319186Y-2419904D01*
X2319186Y-2410079D01*
G54D11*
X2343040Y-2393562D02*
X2345707Y-2388229D01*
G54D11*
X2334151Y-2389296D02*
X2343040Y-2389296D01*
X2344818Y-2390362D01*
X2345707Y-2392496D01*
X2345707Y-2394629D01*
X2344818Y-2396762D01*
X2343040Y-2397829D01*
X2334151Y-2397829D01*
X2332374Y-2396762D01*
X2331484Y-2394629D01*
X2331484Y-2392496D01*
X2332374Y-2390362D01*
X2334151Y-2389296D01*
G54D11*
X2334151Y-2383251D02*
X2332374Y-2382184D01*
X2331484Y-2380051D01*
X2331484Y-2377918D01*
X2332374Y-2375784D01*
X2334151Y-2374718D01*
X2335929Y-2374718D01*
X2337707Y-2375784D01*
X2338596Y-2377918D01*
X2339484Y-2375784D01*
X2341262Y-2374718D01*
X2343040Y-2374718D01*
X2344818Y-2375784D01*
X2345707Y-2377918D01*
X2345707Y-2380051D01*
X2344818Y-2382184D01*
X2343040Y-2383251D01*
G54D10*
X2293886Y-2350054D02*
X2288648Y-2350054D01*
X2288648Y-2340229D01*
G54D10*
X2313950Y-2350054D02*
X2319186Y-2350054D01*
X2319186Y-2340229D01*
G54D11*
X2313560Y-2297022D02*
X2299338Y-2297022D01*
X2299338Y-2291689D01*
X2300226Y-2289556D01*
X2302004Y-2288489D01*
X2310893Y-2288489D01*
X2312671Y-2289556D01*
X2313560Y-2291689D01*
X2313560Y-2297022D01*
G54D11*
X2299338Y-2283512D02*
X2299338Y-2274978D01*
X2301115Y-2276045D01*
X2303782Y-2278178D01*
X2307338Y-2280312D01*
X2310004Y-2281378D01*
X2313560Y-2281378D01*
G54D10*
X2547886Y-2324257D02*
X2542648Y-2324256D01*
X2542648Y-2314432D01*
G54D10*
X2567950Y-2324256D02*
X2573186Y-2324257D01*
X2573186Y-2314432D01*
G54D11*
X2560416Y-2272813D02*
X2546194Y-2272813D01*
X2546194Y-2267480D01*
X2547083Y-2265346D01*
X2548860Y-2264280D01*
X2557749Y-2264280D01*
X2559527Y-2265346D01*
X2560416Y-2267480D01*
X2560416Y-2272813D01*
G54D11*
X2553305Y-2253969D02*
X2553305Y-2256102D01*
X2552416Y-2258235D01*
X2550638Y-2259302D01*
X2548860Y-2259302D01*
X2547083Y-2258235D01*
X2546194Y-2256102D01*
X2546194Y-2253969D01*
X2547083Y-2251835D01*
X2548860Y-2250769D01*
X2550638Y-2250769D01*
X2552416Y-2251835D01*
X2553305Y-2253969D01*
X2554194Y-2251835D01*
X2555972Y-2250769D01*
X2557749Y-2250769D01*
X2559527Y-2251835D01*
X2560416Y-2253969D01*
X2560416Y-2256102D01*
X2559527Y-2258235D01*
X2557749Y-2259302D01*
X2555972Y-2259302D01*
X2554194Y-2258235D01*
X2553305Y-2256102D01*
G54D10*
X2598686Y-2324257D02*
X2593448Y-2324256D01*
X2593448Y-2314432D01*
G54D10*
X2618750Y-2324256D02*
X2623986Y-2324257D01*
X2623986Y-2314432D01*
G54D11*
X2613200Y-2270829D02*
X2598978Y-2270829D01*
X2598978Y-2265496D01*
X2599867Y-2263362D01*
X2601645Y-2262296D01*
X2610534Y-2262296D01*
X2612312Y-2263362D01*
X2613200Y-2265496D01*
X2613200Y-2270829D01*
G54D11*
X2610534Y-2257318D02*
X2612312Y-2256251D01*
X2613200Y-2254118D01*
X2613200Y-2251984D01*
X2612312Y-2249851D01*
X2610534Y-2248784D01*
X2606090Y-2248784D01*
X2605200Y-2248784D01*
X2606978Y-2251984D01*
X2606978Y-2254118D01*
X2606090Y-2256251D01*
X2604312Y-2257318D01*
X2601645Y-2257318D01*
X2599867Y-2256251D01*
X2598978Y-2254118D01*
X2598978Y-2251984D01*
X2599867Y-2249851D01*
X2601645Y-2248784D01*
X2606090Y-2248784D01*
G54D10*
X2649486Y-2324257D02*
X2644248Y-2324256D01*
X2644248Y-2314432D01*
G54D10*
X2669550Y-2324256D02*
X2674786Y-2324257D01*
X2674786Y-2314432D01*
G54D11*
X2653396Y-2257037D02*
X2656063Y-2251704D01*
G54D11*
X2644507Y-2252770D02*
X2653396Y-2252770D01*
X2655174Y-2253837D01*
X2656063Y-2255970D01*
X2656063Y-2258104D01*
X2655174Y-2260237D01*
X2653396Y-2261304D01*
X2644507Y-2261304D01*
X2642730Y-2260237D01*
X2641840Y-2258104D01*
X2641840Y-2255970D01*
X2642730Y-2253837D01*
X2644507Y-2252770D01*
G54D11*
X2656063Y-2240326D02*
X2641840Y-2240326D01*
X2650730Y-2246726D01*
X2652507Y-2246726D01*
X2652507Y-2238192D01*
G54D13*
X2185052Y-2923462D02*
X2172300Y-2923462D01*
X2172241Y-2923520D01*
X2172242Y-2911182D01*
X2172300Y-2911123D01*
G54D13*
X2507996Y-2923462D02*
X2520746Y-2923461D01*
X2520806Y-2923520D01*
X2520806Y-2911182D01*
X2520746Y-2911123D01*
G54D13*
X2185052Y-2760369D02*
X2172300Y-2760369D01*
X2172242Y-2760311D01*
X2172241Y-2772648D01*
X2172300Y-2772707D01*
G54D13*
X2507996Y-2760369D02*
X2520746Y-2760369D01*
X2520806Y-2760311D01*
X2520806Y-2772648D01*
X2520746Y-2772707D01*
G54D15*
X2568536Y-2857534D02*
X2555204Y-2857534D01*
G54D15*
X2561870Y-2863090D02*
X2561870Y-2851978D01*
G54D11*
X2550424Y-2869514D02*
X2536202Y-2869514D01*
X2536202Y-2864180D01*
X2537091Y-2862047D01*
X2538868Y-2860980D01*
X2540646Y-2860980D01*
X2542424Y-2862047D01*
X2543313Y-2864180D01*
X2544202Y-2862047D01*
X2545980Y-2860980D01*
X2547757Y-2860980D01*
X2549535Y-2862047D01*
X2550424Y-2864180D01*
X2550424Y-2869514D01*
G54D11*
X2543313Y-2869514D02*
X2543313Y-2864180D01*
G54D11*
X2550424Y-2851736D02*
X2536202Y-2851736D01*
G54D11*
X2536202Y-2856002D02*
X2536202Y-2847469D01*
G54D11*
X2541535Y-2842492D02*
X2536202Y-2837158D01*
X2550424Y-2837158D01*
G54D10*
X2690019Y-2385616D02*
X2690019Y-2372916D01*
X2728516Y-2372916D01*
X2728516Y-2386012D01*
G54D10*
X2731690Y-2382044D02*
X2731690Y-2368947D01*
X2718197Y-2368947D01*
G54D10*
X2699940Y-2368947D02*
X2686844Y-2368947D01*
X2686844Y-2382440D01*
G54D10*
X2690019Y-2462114D02*
X2690019Y-2474814D01*
X2728516Y-2474814D01*
X2728516Y-2461718D01*
G54D10*
X2731690Y-2465686D02*
X2731690Y-2478783D01*
X2718197Y-2478783D01*
G54D10*
X2699940Y-2478783D02*
X2686844Y-2478783D01*
X2686844Y-2465290D01*
G54D11*
X2754574Y-2464360D02*
X2740352Y-2464360D01*
X2740352Y-2456893D01*
G54D11*
X2747463Y-2464360D02*
X2747463Y-2456893D01*
G54D11*
X2743018Y-2451914D02*
X2741241Y-2450848D01*
X2740352Y-2448714D01*
X2740352Y-2446581D01*
X2741241Y-2444448D01*
X2743018Y-2443381D01*
X2744796Y-2443381D01*
X2746574Y-2444448D01*
X2747463Y-2446581D01*
X2748352Y-2444448D01*
X2750130Y-2443381D01*
X2751907Y-2443381D01*
X2753685Y-2444448D01*
X2754574Y-2446581D01*
X2754574Y-2448714D01*
X2753685Y-2450848D01*
X2751907Y-2451914D01*
G54D10*
X1871662Y-490538D02*
X1871662Y-477838D01*
X1910159Y-477838D01*
X1910159Y-490934D01*
G54D10*
X1913334Y-486966D02*
X1913334Y-473869D01*
X1899841Y-473869D01*
G54D10*
X1881584Y-473869D02*
X1868488Y-473869D01*
X1868488Y-487362D01*
G54D10*
X1871662Y-567036D02*
X1871662Y-579736D01*
X1910159Y-579736D01*
X1910159Y-566640D01*
G54D10*
X1913334Y-570608D02*
X1913334Y-583705D01*
X1899841Y-583705D01*
G54D10*
X1881584Y-583705D02*
X1868488Y-583705D01*
X1868488Y-570212D01*
G54D11*
X1938202Y-554597D02*
X1923980Y-554597D01*
X1923980Y-547130D01*
G54D11*
X1931091Y-554597D02*
X1931091Y-547130D01*
G54D11*
X1938202Y-533618D02*
X1938202Y-542152D01*
X1937313Y-542152D01*
X1935535Y-541086D01*
X1930202Y-534686D01*
X1928424Y-533618D01*
X1926647Y-533618D01*
X1924869Y-534686D01*
X1923980Y-536818D01*
X1923980Y-538952D01*
X1924869Y-541086D01*
X1926647Y-542152D01*
G54D10*
X219692Y-504061D02*
X232392Y-504061D01*
X232392Y-542558D01*
X219295Y-542558D01*
G54D10*
X223264Y-545733D02*
X236360Y-545733D01*
X236360Y-532240D01*
G54D10*
X236360Y-513983D02*
X236360Y-500886D01*
X222867Y-500886D01*
G54D10*
X143193Y-504061D02*
X130493Y-504061D01*
X130493Y-542558D01*
X143590Y-542558D01*
G54D10*
X139621Y-545733D02*
X126524Y-545733D01*
X126524Y-532240D01*
G54D10*
X126524Y-513983D02*
X126524Y-500886D01*
X140018Y-500886D01*
G54D11*
X239211Y-489804D02*
X224988Y-489804D01*
X224988Y-482338D01*
G54D11*
X232100Y-489804D02*
X232100Y-482338D01*
G54D11*
X230322Y-477359D02*
X224988Y-472026D01*
X239211Y-472026D01*
G54D10*
X198040Y-465534D02*
X198040Y-435769D01*
X276225Y-435769D01*
X276225Y-465534D01*
X198040Y-465534D01*
G36*
X243362Y-450578D02*
X228362Y-441918D01*
X228362Y-459238D01*
X243362Y-450578D01*
G37*
G54D17*
X243362Y-450578D02*
X228362Y-441918D01*
X228362Y-459238D01*
X243362Y-450578D01*
G54D10*
X243362Y-450578D02*
X243284Y-439738D01*
X243284Y-461169D01*
X243362Y-450578D01*
X247850Y-450572D01*
G54D11*
X302932Y-451867D02*
X288710Y-451867D01*
X288710Y-446534D01*
X289599Y-444400D01*
X291377Y-443334D01*
X300266Y-443334D01*
X302043Y-444400D01*
X302932Y-446534D01*
X302932Y-451867D01*
G54D11*
X302932Y-429822D02*
X302932Y-438356D01*
X302043Y-438356D01*
X300266Y-437289D01*
X294932Y-430889D01*
X293154Y-429822D01*
X291377Y-429822D01*
X289599Y-430889D01*
X288710Y-433022D01*
X288710Y-435156D01*
X289599Y-437289D01*
X291377Y-438356D01*
G54D10*
X96440Y-465534D02*
X96440Y-435769D01*
X174625Y-435769D01*
X174625Y-465534D01*
X96440Y-465534D01*
G36*
X141762Y-450578D02*
X126762Y-441918D01*
X126762Y-459238D01*
X141762Y-450578D01*
G37*
G54D17*
X141762Y-450578D02*
X126762Y-441918D01*
X126762Y-459238D01*
X141762Y-450578D01*
G54D10*
X141762Y-450578D02*
X141684Y-439738D01*
X141684Y-461169D01*
X141762Y-450578D01*
X146250Y-450572D01*
G54D11*
X114814Y-497508D02*
X100591Y-497508D01*
X100591Y-492174D01*
X101480Y-490041D01*
X103258Y-488974D01*
X112147Y-488974D01*
X113924Y-490041D01*
X114814Y-492174D01*
X114814Y-497508D01*
G54D11*
X105924Y-483996D02*
X100591Y-478663D01*
X114814Y-478663D01*
G54D12*
X1981597Y-1168797D02*
X1968103Y-1168797D01*
X1968103Y-1181894D01*
G54D12*
X1981597Y-1511927D02*
X1968103Y-1511927D01*
X1968103Y-1498830D01*
G54D12*
X2298136Y-1511927D02*
X2311630Y-1511927D01*
X2311630Y-1498830D01*
G54D12*
X2311797Y-1195388D02*
X2311797Y-1181894D01*
X2311630Y-1181894D01*
X2298533Y-1168797D01*
X2284412Y-1168797D01*
G54D11*
X2324293Y-1254752D02*
X2335849Y-1254752D01*
X2337626Y-1253685D01*
X2338516Y-1251552D01*
X2338516Y-1249418D01*
X2337626Y-1247285D01*
X2335849Y-1246218D01*
X2324293Y-1246218D01*
G54D11*
X2338516Y-1241241D02*
X2324293Y-1241241D01*
G54D11*
X2334071Y-1241241D02*
X2324293Y-1232708D01*
G54D11*
X2331404Y-1238041D02*
X2338516Y-1232708D01*
G54D11*
X2329626Y-1227730D02*
X2324293Y-1222396D01*
X2338516Y-1222396D01*
G54D11*
X2326960Y-1208886D02*
X2335849Y-1208886D01*
X2337626Y-1209952D01*
X2338516Y-1212086D01*
X2338516Y-1214219D01*
X2337626Y-1216352D01*
X2335849Y-1217419D01*
X2326960Y-1217419D01*
X2325182Y-1216352D01*
X2324293Y-1214219D01*
X2324293Y-1212086D01*
X2325182Y-1209952D01*
X2326960Y-1208886D01*
G54D11*
X2353265Y-1256154D02*
X2351488Y-1257220D01*
X2350598Y-1259354D01*
X2350598Y-1261487D01*
X2351488Y-1263620D01*
X2353265Y-1264687D01*
X2357710Y-1264687D01*
X2358598Y-1264687D01*
X2356821Y-1261487D01*
X2356821Y-1259354D01*
X2357710Y-1257220D01*
X2359488Y-1256154D01*
X2362154Y-1256154D01*
X2363932Y-1257220D01*
X2364821Y-1259354D01*
X2364821Y-1261487D01*
X2363932Y-1263620D01*
X2362154Y-1264687D01*
X2357710Y-1264687D01*
G54D11*
X2357710Y-1245842D02*
X2357710Y-1247976D01*
X2356821Y-1250109D01*
X2355043Y-1251176D01*
X2353265Y-1251176D01*
X2351488Y-1250109D01*
X2350598Y-1247976D01*
X2350598Y-1245842D01*
X2351488Y-1243709D01*
X2353265Y-1242642D01*
X2355043Y-1242642D01*
X2356821Y-1243709D01*
X2357710Y-1245842D01*
X2358598Y-1243709D01*
X2360376Y-1242642D01*
X2362154Y-1242642D01*
X2363932Y-1243709D01*
X2364821Y-1245842D01*
X2364821Y-1247976D01*
X2363932Y-1250109D01*
X2362154Y-1251176D01*
X2360376Y-1251176D01*
X2358598Y-1250109D01*
X2357710Y-1247976D01*
G54D11*
X2353265Y-1229132D02*
X2362154Y-1229132D01*
X2363932Y-1230198D01*
X2364821Y-1232332D01*
X2364821Y-1234465D01*
X2363932Y-1236598D01*
X2362154Y-1237665D01*
X2353265Y-1237665D01*
X2351488Y-1236598D01*
X2350598Y-1234465D01*
X2350598Y-1232332D01*
X2351488Y-1230198D01*
X2353265Y-1229132D01*
G54D11*
X2353265Y-1224154D02*
X2351488Y-1223087D01*
X2350598Y-1220954D01*
X2350598Y-1218820D01*
X2351488Y-1216687D01*
X2353265Y-1215620D01*
X2355043Y-1215620D01*
X2356821Y-1216687D01*
X2357710Y-1218820D01*
X2358598Y-1216687D01*
X2360376Y-1215620D01*
X2362154Y-1215620D01*
X2363932Y-1216687D01*
X2364821Y-1218820D01*
X2364821Y-1220954D01*
X2363932Y-1223087D01*
X2362154Y-1224154D01*
G54D11*
X2353265Y-1202110D02*
X2362154Y-1202110D01*
X2363932Y-1203176D01*
X2364821Y-1205310D01*
X2364821Y-1207443D01*
X2363932Y-1209576D01*
X2362154Y-1210643D01*
X2353265Y-1210643D01*
X2351488Y-1209576D01*
X2350598Y-1207443D01*
X2350598Y-1205310D01*
X2351488Y-1203176D01*
X2353265Y-1202110D01*
G54D10*
X1559519Y-1954753D02*
X1499519Y-1954753D01*
X1499519Y-2083050D01*
X1559519Y-2083050D01*
X1559519Y-1954753D01*
G54D10*
X1554519Y-1954753D02*
X1504519Y-1954753D01*
X1504519Y-1959753D01*
X1554519Y-1959753D01*
X1554519Y-1954753D01*
G54D11*
X1619651Y-1968076D02*
X1631207Y-1968076D01*
X1632984Y-1967010D01*
X1633873Y-1964876D01*
X1633873Y-1962743D01*
X1632984Y-1960610D01*
X1631207Y-1959543D01*
X1619651Y-1959543D01*
G54D11*
X1626762Y-1950299D02*
X1626762Y-1946032D01*
X1631207Y-1946032D01*
X1632984Y-1947099D01*
X1633873Y-1949232D01*
X1633873Y-1951366D01*
X1632984Y-1953499D01*
X1631207Y-1954566D01*
X1622318Y-1954566D01*
X1620540Y-1953499D01*
X1619651Y-1951366D01*
X1619651Y-1949232D01*
X1620540Y-1947099D01*
X1622318Y-1946032D01*
G54D11*
X1619651Y-1941054D02*
X1619651Y-1932521D01*
X1621429Y-1933588D01*
X1624096Y-1935721D01*
X1627651Y-1937854D01*
X1630318Y-1938921D01*
X1633873Y-1938921D01*
G54D11*
X1642482Y-2019106D02*
X1642482Y-2010572D01*
X1644260Y-2011639D01*
X1646927Y-2013772D01*
X1650482Y-2015906D01*
X1653149Y-2016972D01*
X1656705Y-2016972D01*
G54D11*
X1656705Y-1999195D02*
X1642482Y-1999195D01*
X1651371Y-2005595D01*
X1653149Y-2005595D01*
X1653149Y-1997062D01*
G54D11*
X1656705Y-1992084D02*
X1642482Y-1992084D01*
X1642482Y-1984617D01*
G54D11*
X1649594Y-1992084D02*
X1649594Y-1984617D01*
G54D11*
X1656705Y-1971106D02*
X1656705Y-1979639D01*
X1655816Y-1979639D01*
X1654038Y-1978572D01*
X1648705Y-1972172D01*
X1646927Y-1971106D01*
X1645149Y-1971106D01*
X1643371Y-1972172D01*
X1642482Y-1974306D01*
X1642482Y-1976439D01*
X1643371Y-1978572D01*
X1645149Y-1979639D01*
G54D11*
X1656705Y-1959728D02*
X1642482Y-1959728D01*
X1651371Y-1966128D01*
X1653149Y-1966128D01*
X1653149Y-1957594D01*
G54D11*
X1645149Y-1944084D02*
X1654038Y-1944084D01*
X1655816Y-1945150D01*
X1656705Y-1947284D01*
X1656705Y-1949417D01*
X1655816Y-1951550D01*
X1654038Y-1952617D01*
X1645149Y-1952617D01*
X1643371Y-1951550D01*
X1642482Y-1949417D01*
X1642482Y-1947284D01*
X1643371Y-1945150D01*
X1645149Y-1944084D01*
G54D10*
X1356319Y-1954753D02*
X1296319Y-1954753D01*
X1296319Y-2083050D01*
X1356319Y-2083050D01*
X1356319Y-1954753D01*
G54D10*
X1351319Y-1954753D02*
X1301319Y-1954753D01*
X1301319Y-1959753D01*
X1351319Y-1959753D01*
X1351319Y-1954753D01*
G54D11*
X1410101Y-1980776D02*
X1421657Y-1980776D01*
X1423434Y-1979710D01*
X1424323Y-1977576D01*
X1424323Y-1975443D01*
X1423434Y-1973310D01*
X1421657Y-1972243D01*
X1410101Y-1972243D01*
G54D11*
X1424323Y-1967266D02*
X1410101Y-1967266D01*
X1410101Y-1959799D01*
G54D11*
X1417212Y-1967266D02*
X1417212Y-1959799D01*
G54D11*
X1410101Y-1954820D02*
X1410101Y-1946287D01*
X1411879Y-1947354D01*
X1414546Y-1949487D01*
X1418101Y-1951620D01*
X1420768Y-1952687D01*
X1424323Y-1952687D01*
G54D11*
X1428964Y-2019106D02*
X1428964Y-2010572D01*
X1430742Y-2011639D01*
X1433408Y-2013772D01*
X1436964Y-2015906D01*
X1439630Y-2016972D01*
X1443186Y-2016972D01*
G54D11*
X1443186Y-1999195D02*
X1428964Y-1999195D01*
X1437853Y-2005595D01*
X1439630Y-2005595D01*
X1439630Y-1997062D01*
G54D11*
X1443186Y-1992084D02*
X1428964Y-1992084D01*
X1428964Y-1984617D01*
G54D11*
X1436075Y-1992084D02*
X1436075Y-1984617D01*
G54D11*
X1443186Y-1971106D02*
X1443186Y-1979639D01*
X1442297Y-1979639D01*
X1440519Y-1978572D01*
X1435186Y-1972172D01*
X1433408Y-1971106D01*
X1431630Y-1971106D01*
X1429853Y-1972172D01*
X1428964Y-1974306D01*
X1428964Y-1976439D01*
X1429853Y-1978572D01*
X1431630Y-1979639D01*
G54D11*
X1443186Y-1959728D02*
X1428964Y-1959728D01*
X1437853Y-1966128D01*
X1439630Y-1966128D01*
X1439630Y-1957594D01*
G54D11*
X1431630Y-1944084D02*
X1440519Y-1944084D01*
X1442297Y-1945150D01*
X1443186Y-1947284D01*
X1443186Y-1949417D01*
X1442297Y-1951550D01*
X1440519Y-1952617D01*
X1431630Y-1952617D01*
X1429853Y-1951550D01*
X1428964Y-1949417D01*
X1428964Y-1947284D01*
X1429853Y-1945150D01*
X1431630Y-1944084D01*
G54D10*
X1406722Y-1039162D02*
X1346722Y-1039162D01*
X1346722Y-1167460D01*
X1406722Y-1167460D01*
X1406722Y-1039162D01*
G54D10*
X1401722Y-1039162D02*
X1351722Y-1039162D01*
X1351722Y-1044162D01*
X1401722Y-1044162D01*
X1401722Y-1039162D01*
G54D11*
X1426373Y-1218380D02*
X1437928Y-1218380D01*
X1439706Y-1217313D01*
X1440595Y-1215180D01*
X1440595Y-1213046D01*
X1439706Y-1210913D01*
X1437928Y-1209846D01*
X1426373Y-1209846D01*
G54D11*
X1440595Y-1204869D02*
X1426373Y-1204869D01*
X1426373Y-1197402D01*
G54D11*
X1433484Y-1204869D02*
X1433484Y-1197402D01*
G54D11*
X1431706Y-1192424D02*
X1426373Y-1187090D01*
X1440595Y-1187090D01*
G54D11*
X1431706Y-1182113D02*
X1426373Y-1176780D01*
X1440595Y-1176780D01*
G54D11*
X1444045Y-1277346D02*
X1444045Y-1268813D01*
X1445823Y-1269880D01*
X1448490Y-1272013D01*
X1452045Y-1274146D01*
X1454712Y-1275213D01*
X1458267Y-1275213D01*
G54D11*
X1458267Y-1257436D02*
X1444045Y-1257436D01*
X1452934Y-1263836D01*
X1454712Y-1263836D01*
X1454712Y-1255302D01*
G54D11*
X1458267Y-1250324D02*
X1444045Y-1244991D01*
X1458267Y-1239658D01*
G54D11*
X1452934Y-1248191D02*
X1452934Y-1241791D01*
G54D11*
X1444045Y-1234680D02*
X1458267Y-1234680D01*
X1458267Y-1227213D01*
G54D11*
X1455601Y-1222234D02*
X1457378Y-1221168D01*
X1458267Y-1219034D01*
X1458267Y-1216901D01*
X1457378Y-1214768D01*
X1455601Y-1213701D01*
X1453823Y-1213701D01*
X1452045Y-1214768D01*
X1451156Y-1216901D01*
X1451156Y-1219034D01*
X1450267Y-1221168D01*
X1448490Y-1222234D01*
X1446712Y-1222234D01*
X1444934Y-1221168D01*
X1444045Y-1219034D01*
X1444045Y-1216901D01*
X1444934Y-1214768D01*
X1446712Y-1213701D01*
G54D11*
X1446712Y-1208724D02*
X1444934Y-1207657D01*
X1444045Y-1205524D01*
X1444045Y-1203390D01*
X1444934Y-1201257D01*
X1446712Y-1200190D01*
X1448490Y-1200190D01*
X1450267Y-1201257D01*
X1451156Y-1203390D01*
X1452045Y-1201257D01*
X1453823Y-1200190D01*
X1455601Y-1200190D01*
X1457378Y-1201257D01*
X1458267Y-1203390D01*
X1458267Y-1205524D01*
X1457378Y-1207657D01*
X1455601Y-1208724D01*
G54D11*
X1444045Y-1195212D02*
X1444045Y-1186679D01*
X1445823Y-1187746D01*
X1448490Y-1189879D01*
X1452045Y-1192012D01*
X1454712Y-1193079D01*
X1458267Y-1193079D01*
G54D11*
X1458267Y-1175302D02*
X1444045Y-1175302D01*
X1452934Y-1181702D01*
X1454712Y-1181702D01*
X1454712Y-1173168D01*
G54D10*
X1584522Y-1039162D02*
X1524522Y-1039162D01*
X1524522Y-1167460D01*
X1584522Y-1167460D01*
X1584522Y-1039162D01*
G54D10*
X1579522Y-1039162D02*
X1529522Y-1039162D01*
X1529522Y-1044162D01*
X1579522Y-1044162D01*
X1579522Y-1039162D01*
G54D11*
X1646638Y-1167580D02*
X1658194Y-1167580D01*
X1659972Y-1166513D01*
X1660861Y-1164380D01*
X1660861Y-1162246D01*
X1659972Y-1160113D01*
X1658194Y-1159046D01*
X1646638Y-1159046D01*
G54D11*
X1653750Y-1149802D02*
X1653750Y-1145536D01*
X1658194Y-1145536D01*
X1659972Y-1146602D01*
X1660861Y-1148736D01*
X1660861Y-1150869D01*
X1659972Y-1153002D01*
X1658194Y-1154069D01*
X1649305Y-1154069D01*
X1647527Y-1153002D01*
X1646638Y-1150869D01*
X1646638Y-1148736D01*
X1647527Y-1146602D01*
X1649305Y-1145536D01*
G54D11*
X1651972Y-1140558D02*
X1646638Y-1135224D01*
X1660861Y-1135224D01*
G54D11*
X1651972Y-1130247D02*
X1646638Y-1124914D01*
X1660861Y-1124914D01*
G54D11*
X1665501Y-1171381D02*
X1665501Y-1162848D01*
X1667279Y-1163914D01*
X1669946Y-1166048D01*
X1673501Y-1168181D01*
X1676168Y-1169248D01*
X1679724Y-1169248D01*
G54D11*
X1679724Y-1151470D02*
X1665501Y-1151470D01*
X1674390Y-1157870D01*
X1676168Y-1157870D01*
X1676168Y-1149336D01*
G54D11*
X1679724Y-1144359D02*
X1665501Y-1144359D01*
X1665501Y-1136892D01*
G54D11*
X1672612Y-1144359D02*
X1672612Y-1136892D01*
G54D11*
X1679724Y-1123380D02*
X1679724Y-1131914D01*
X1678835Y-1131914D01*
X1677057Y-1130847D01*
X1671724Y-1124447D01*
X1669946Y-1123380D01*
X1668168Y-1123380D01*
X1666390Y-1124447D01*
X1665501Y-1126580D01*
X1665501Y-1128714D01*
X1666390Y-1130847D01*
X1668168Y-1131914D01*
G54D11*
X1679724Y-1112003D02*
X1665501Y-1112003D01*
X1674390Y-1118403D01*
X1676168Y-1118403D01*
X1676168Y-1109870D01*
G54D11*
X1668168Y-1096358D02*
X1677057Y-1096358D01*
X1678835Y-1097425D01*
X1679724Y-1099558D01*
X1679724Y-1101692D01*
X1678835Y-1103825D01*
X1677057Y-1104892D01*
X1668168Y-1104892D01*
X1666390Y-1103825D01*
X1665501Y-1101692D01*
X1665501Y-1099558D01*
X1666390Y-1097425D01*
X1668168Y-1096358D01*
G54D10*
X1157344Y-1980153D02*
X1114344Y-1980153D01*
X1114344Y-2082053D01*
X1157344Y-2082053D01*
X1157344Y-1980153D01*
G54D10*
X1152344Y-1980153D02*
X1119344Y-1980153D01*
X1119344Y-1985153D01*
X1152344Y-1985153D01*
X1152344Y-1980153D01*
G54D11*
X1194788Y-1981079D02*
X1196565Y-1977879D01*
X1198343Y-1976812D01*
X1201898Y-1976812D01*
G54D11*
X1201898Y-1985346D02*
X1187676Y-1985346D01*
X1187676Y-1980012D01*
X1188565Y-1977879D01*
X1190343Y-1976812D01*
X1192121Y-1976812D01*
X1193898Y-1977879D01*
X1194788Y-1980012D01*
X1194788Y-1985346D01*
G54D11*
X1201898Y-1971834D02*
X1187676Y-1971834D01*
X1187676Y-1966501D01*
X1188565Y-1964368D01*
X1190343Y-1963301D01*
X1192121Y-1963301D01*
X1193898Y-1964368D01*
X1194788Y-1966501D01*
X1194788Y-1971834D01*
G54D11*
X1187676Y-1958324D02*
X1187676Y-1949790D01*
X1189454Y-1950857D01*
X1192121Y-1952990D01*
X1195676Y-1955124D01*
X1198343Y-1956190D01*
X1201898Y-1956190D01*
G54D10*
X954144Y-1980153D02*
X911144Y-1980153D01*
X911144Y-2082053D01*
X954144Y-2082053D01*
X954144Y-1980153D01*
G54D10*
X949144Y-1980153D02*
X916144Y-1980153D01*
X916144Y-1985153D01*
X949144Y-1985153D01*
X949144Y-1980153D01*
G54D11*
X994762Y-2021560D02*
X996540Y-2018360D01*
X998318Y-2017294D01*
X1001874Y-2017294D01*
G54D11*
X1001874Y-2025827D02*
X987651Y-2025827D01*
X987651Y-2020494D01*
X988540Y-2018360D01*
X990318Y-2017294D01*
X992096Y-2017294D01*
X993874Y-2018360D01*
X994762Y-2020494D01*
X994762Y-2025827D01*
G54D11*
X1001874Y-2012316D02*
X987651Y-2012316D01*
X987651Y-2006982D01*
X988540Y-2004849D01*
X990318Y-2003782D01*
X992096Y-2003782D01*
X993874Y-2004849D01*
X994762Y-2006982D01*
X994762Y-2012316D01*
G54D11*
X987651Y-1990272D02*
X987651Y-1998805D01*
X993874Y-1998805D01*
X993874Y-1997738D01*
X992984Y-1995605D01*
X992984Y-1993472D01*
X993874Y-1991338D01*
X995651Y-1990272D01*
X999207Y-1990272D01*
X1000984Y-1991338D01*
X1001874Y-1993472D01*
X1001874Y-1995605D01*
X1000984Y-1997738D01*
X999207Y-1998805D01*
G54D10*
X670519Y-1954756D02*
X610519Y-1954756D01*
X610519Y-2083052D01*
X670519Y-2083052D01*
X670519Y-1954756D01*
G54D10*
X665519Y-1954756D02*
X615519Y-1954756D01*
X615519Y-1959756D01*
X665519Y-1959756D01*
X665519Y-1954756D01*
G54D11*
X711601Y-1981176D02*
X723156Y-1981176D01*
X724934Y-1980110D01*
X725823Y-1977976D01*
X725823Y-1975843D01*
X724934Y-1973710D01*
X723156Y-1972643D01*
X711601Y-1972643D01*
G54D11*
X725823Y-1967666D02*
X711601Y-1967666D01*
X711601Y-1962332D01*
X712490Y-1960199D01*
X714268Y-1959132D01*
X716046Y-1959132D01*
X717823Y-1960199D01*
X718712Y-1962332D01*
X719601Y-1960199D01*
X721379Y-1959132D01*
X723156Y-1959132D01*
X724934Y-1960199D01*
X725823Y-1962332D01*
X725823Y-1967666D01*
G54D11*
X718712Y-1967666D02*
X718712Y-1962332D01*
G54D11*
X711601Y-1954154D02*
X711601Y-1945621D01*
X713379Y-1946688D01*
X716046Y-1948821D01*
X719601Y-1950954D01*
X722268Y-1952021D01*
X725823Y-1952021D01*
G54D11*
X739989Y-2027046D02*
X739989Y-2018513D01*
X741766Y-2019580D01*
X744433Y-2021713D01*
X747989Y-2023846D01*
X750656Y-2024913D01*
X754211Y-2024913D01*
G54D11*
X754211Y-2007136D02*
X739989Y-2007136D01*
X748878Y-2013536D01*
X750656Y-2013536D01*
X750656Y-2005002D01*
G54D11*
X754211Y-2000024D02*
X739989Y-2000024D01*
X739989Y-1992558D01*
G54D11*
X747100Y-2000024D02*
X747100Y-1992558D01*
G54D11*
X754211Y-1979046D02*
X754211Y-1987580D01*
X753322Y-1987580D01*
X751544Y-1986513D01*
X746211Y-1980113D01*
X744433Y-1979046D01*
X742656Y-1979046D01*
X740878Y-1980113D01*
X739989Y-1982246D01*
X739989Y-1984380D01*
X740878Y-1986513D01*
X742656Y-1987580D01*
G54D11*
X754211Y-1967668D02*
X739989Y-1967668D01*
X748878Y-1974068D01*
X750656Y-1974068D01*
X750656Y-1965535D01*
G54D11*
X742656Y-1952024D02*
X751544Y-1952024D01*
X753322Y-1953091D01*
X754211Y-1955224D01*
X754211Y-1957358D01*
X753322Y-1959491D01*
X751544Y-1960558D01*
X742656Y-1960558D01*
X740878Y-1959491D01*
X739989Y-1957358D01*
X739989Y-1955224D01*
X740878Y-1953091D01*
X742656Y-1952024D01*
G54D10*
X467319Y-1954756D02*
X407319Y-1954756D01*
X407319Y-2083052D01*
X467319Y-2083052D01*
X467319Y-1954756D01*
G54D10*
X462319Y-1954756D02*
X412319Y-1954756D01*
X412319Y-1959756D01*
X462319Y-1959756D01*
X462319Y-1954756D01*
G54D11*
X503242Y-2008164D02*
X514797Y-2008164D01*
X516575Y-2007098D01*
X517464Y-2004964D01*
X517464Y-2002830D01*
X516575Y-2000698D01*
X514797Y-1999630D01*
X503242Y-1999630D01*
G54D11*
X517464Y-1994653D02*
X503242Y-1989320D01*
X517464Y-1983986D01*
G54D11*
X512130Y-1992520D02*
X512130Y-1986120D01*
G54D11*
X503242Y-1979008D02*
X503242Y-1970474D01*
X505020Y-1971542D01*
X507686Y-1973674D01*
X511242Y-1975808D01*
X513908Y-1976874D01*
X517464Y-1976874D01*
G54D11*
X525676Y-2044112D02*
X525676Y-2035578D01*
X527454Y-2036646D01*
X530121Y-2038778D01*
X533676Y-2040912D01*
X536343Y-2041978D01*
X539898Y-2041978D01*
G54D11*
X539898Y-2024201D02*
X525676Y-2024201D01*
X534565Y-2030601D01*
X536343Y-2030601D01*
X536343Y-2022068D01*
G54D11*
X539898Y-2017090D02*
X525676Y-2017090D01*
X525676Y-2009624D01*
G54D11*
X532788Y-2017090D02*
X532788Y-2009624D01*
G54D11*
X539898Y-1996112D02*
X539898Y-2004645D01*
X539010Y-2004645D01*
X537232Y-2003578D01*
X531898Y-1997178D01*
X530121Y-1996112D01*
X528343Y-1996112D01*
X526565Y-1997178D01*
X525676Y-1999312D01*
X525676Y-2001445D01*
X526565Y-2003578D01*
X528343Y-2004645D01*
G54D11*
X539898Y-1984734D02*
X525676Y-1984734D01*
X534565Y-1991134D01*
X536343Y-1991134D01*
X536343Y-1982600D01*
G54D11*
X528343Y-1969090D02*
X537232Y-1969090D01*
X539010Y-1970156D01*
X539898Y-1972290D01*
X539898Y-1974423D01*
X539010Y-1976556D01*
X537232Y-1977623D01*
X528343Y-1977623D01*
X526565Y-1976556D01*
X525676Y-1974423D01*
X525676Y-1972290D01*
X526565Y-1970156D01*
X528343Y-1969090D01*
G54D10*
X800328Y-773256D02*
X736328Y-773256D01*
X736328Y-926956D01*
X800328Y-926956D01*
X800328Y-773256D01*
G54D10*
X795328Y-773256D02*
X741328Y-773256D01*
X741328Y-778256D01*
X795328Y-778256D01*
X795328Y-773256D01*
G54D11*
X838844Y-879929D02*
X850399Y-879929D01*
X852177Y-878862D01*
X853066Y-876729D01*
X853066Y-874596D01*
X852177Y-872462D01*
X850399Y-871396D01*
X838844Y-871396D01*
G54D11*
X850399Y-857885D02*
X852177Y-858952D01*
X853066Y-861085D01*
X853066Y-863218D01*
X852177Y-865352D01*
X850399Y-866418D01*
X841510Y-866418D01*
X839732Y-865352D01*
X838844Y-863218D01*
X838844Y-861085D01*
X839732Y-858952D01*
X841510Y-857885D01*
G54D11*
X844177Y-852907D02*
X838844Y-847574D01*
X853066Y-847574D01*
G54D11*
X841510Y-842596D02*
X839732Y-841530D01*
X838844Y-839396D01*
X838844Y-837263D01*
X839732Y-835130D01*
X841510Y-834063D01*
X843288Y-834063D01*
X845066Y-835130D01*
X845955Y-837263D01*
X846844Y-835130D01*
X848622Y-834063D01*
X850399Y-834063D01*
X852177Y-835130D01*
X853066Y-837263D01*
X853066Y-839396D01*
X852177Y-841530D01*
X850399Y-842596D01*
G54D10*
X1002933Y-773256D02*
X938933Y-773256D01*
X938933Y-926956D01*
X1002933Y-926956D01*
X1002933Y-773256D01*
G54D10*
X997933Y-773256D02*
X943933Y-773256D01*
X943933Y-778256D01*
X997933Y-778256D01*
X997933Y-773256D01*
G54D11*
X1049782Y-875564D02*
X1061338Y-875564D01*
X1063116Y-874497D01*
X1064005Y-872364D01*
X1064005Y-870230D01*
X1063116Y-868097D01*
X1061338Y-867030D01*
X1049782Y-867030D01*
G54D11*
X1064005Y-862052D02*
X1049782Y-862052D01*
X1049782Y-856719D01*
X1050672Y-854586D01*
X1052450Y-853519D01*
X1061338Y-853519D01*
X1063116Y-854586D01*
X1064005Y-856719D01*
X1064005Y-862052D01*
G54D11*
X1055116Y-848542D02*
X1049782Y-843208D01*
X1064005Y-843208D01*
G54D11*
X1052450Y-838230D02*
X1050672Y-837164D01*
X1049782Y-835030D01*
X1049782Y-832897D01*
X1050672Y-830764D01*
X1052450Y-829697D01*
X1054227Y-829697D01*
X1056005Y-830764D01*
X1056894Y-832897D01*
X1057782Y-830764D01*
X1059560Y-829697D01*
X1061338Y-829697D01*
X1063116Y-830764D01*
X1064005Y-832897D01*
X1064005Y-835030D01*
X1063116Y-837164D01*
X1061338Y-838230D01*
G54D10*
X800328Y-963756D02*
X736328Y-963756D01*
X736328Y-1117456D01*
X800328Y-1117456D01*
X800328Y-963756D01*
G54D10*
X795328Y-963756D02*
X741328Y-963756D01*
X741328Y-968756D01*
X795328Y-968756D01*
X795328Y-963756D01*
G54D11*
X838844Y-1070429D02*
X850399Y-1070429D01*
X852177Y-1069362D01*
X853066Y-1067229D01*
X853066Y-1065096D01*
X852177Y-1062962D01*
X850399Y-1061896D01*
X838844Y-1061896D01*
G54D11*
X850399Y-1048385D02*
X852177Y-1049452D01*
X853066Y-1051585D01*
X853066Y-1053718D01*
X852177Y-1055852D01*
X850399Y-1056918D01*
X841510Y-1056918D01*
X839732Y-1055852D01*
X838844Y-1053718D01*
X838844Y-1051585D01*
X839732Y-1049452D01*
X841510Y-1048385D01*
G54D11*
X844177Y-1043407D02*
X838844Y-1038074D01*
X853066Y-1038074D01*
G54D11*
X853066Y-1024563D02*
X853066Y-1033096D01*
X852177Y-1033096D01*
X850399Y-1032030D01*
X845066Y-1025630D01*
X843288Y-1024563D01*
X841510Y-1024563D01*
X839732Y-1025630D01*
X838844Y-1027763D01*
X838844Y-1029896D01*
X839732Y-1032030D01*
X841510Y-1033096D01*
G54D10*
X1002933Y-963756D02*
X938933Y-963756D01*
X938933Y-1117456D01*
X1002933Y-1117456D01*
X1002933Y-963756D01*
G54D10*
X997933Y-963756D02*
X943933Y-963756D01*
X943933Y-968756D01*
X997933Y-968756D01*
X997933Y-963756D01*
G54D11*
X1043432Y-1072414D02*
X1054988Y-1072414D01*
X1056766Y-1071347D01*
X1057655Y-1069214D01*
X1057655Y-1067080D01*
X1056766Y-1064947D01*
X1054988Y-1063880D01*
X1043432Y-1063880D01*
G54D11*
X1057655Y-1058902D02*
X1043432Y-1058902D01*
X1043432Y-1053569D01*
X1044322Y-1051436D01*
X1046099Y-1050369D01*
X1054988Y-1050369D01*
X1056766Y-1051436D01*
X1057655Y-1053569D01*
X1057655Y-1058902D01*
G54D11*
X1048766Y-1045392D02*
X1043432Y-1040058D01*
X1057655Y-1040058D01*
G54D11*
X1057655Y-1026547D02*
X1057655Y-1035080D01*
X1056766Y-1035080D01*
X1054988Y-1034014D01*
X1049655Y-1027614D01*
X1047877Y-1026547D01*
X1046099Y-1026547D01*
X1044322Y-1027614D01*
X1043432Y-1029747D01*
X1043432Y-1031880D01*
X1044322Y-1034014D01*
X1046099Y-1035080D01*
G54D10*
X800328Y-1154256D02*
X736328Y-1154256D01*
X736328Y-1307956D01*
X800328Y-1307956D01*
X800328Y-1154256D01*
G54D10*
X795328Y-1154256D02*
X741328Y-1154256D01*
X741328Y-1159256D01*
X795328Y-1159256D01*
X795328Y-1154256D01*
G54D11*
X842812Y-1260929D02*
X854368Y-1260929D01*
X856146Y-1259862D01*
X857034Y-1257729D01*
X857034Y-1255596D01*
X856146Y-1253462D01*
X854368Y-1252396D01*
X842812Y-1252396D01*
G54D11*
X854368Y-1238885D02*
X856146Y-1239952D01*
X857034Y-1242085D01*
X857034Y-1244218D01*
X856146Y-1246352D01*
X854368Y-1247418D01*
X845479Y-1247418D01*
X843701Y-1246352D01*
X842812Y-1244218D01*
X842812Y-1242085D01*
X843701Y-1239952D01*
X845479Y-1238885D01*
G54D11*
X848146Y-1233907D02*
X842812Y-1228574D01*
X857034Y-1228574D01*
G54D11*
X845479Y-1215063D02*
X854368Y-1215063D01*
X856146Y-1216130D01*
X857034Y-1218263D01*
X857034Y-1220396D01*
X856146Y-1222530D01*
X854368Y-1223596D01*
X845479Y-1223596D01*
X843701Y-1222530D01*
X842812Y-1220396D01*
X842812Y-1218263D01*
X843701Y-1216130D01*
X845479Y-1215063D01*
G54D10*
X1002933Y-1154256D02*
X938933Y-1154256D01*
X938933Y-1307956D01*
X1002933Y-1307956D01*
X1002933Y-1154256D01*
G54D10*
X997933Y-1154256D02*
X943933Y-1154256D01*
X943933Y-1159256D01*
X997933Y-1159256D01*
X997933Y-1154256D01*
G54D11*
X1042242Y-1271645D02*
X1053798Y-1271645D01*
X1055576Y-1270578D01*
X1056464Y-1268445D01*
X1056464Y-1266312D01*
X1055576Y-1264178D01*
X1053798Y-1263112D01*
X1042242Y-1263112D01*
G54D11*
X1056464Y-1258134D02*
X1042242Y-1258134D01*
X1042242Y-1252800D01*
X1043131Y-1250667D01*
X1044909Y-1249600D01*
X1053798Y-1249600D01*
X1055576Y-1250667D01*
X1056464Y-1252800D01*
X1056464Y-1258134D01*
G54D11*
X1047576Y-1244623D02*
X1042242Y-1239290D01*
X1056464Y-1239290D01*
G54D11*
X1044909Y-1225778D02*
X1053798Y-1225778D01*
X1055576Y-1226845D01*
X1056464Y-1228978D01*
X1056464Y-1231112D01*
X1055576Y-1233245D01*
X1053798Y-1234312D01*
X1044909Y-1234312D01*
X1043131Y-1233245D01*
X1042242Y-1231112D01*
X1042242Y-1228978D01*
X1043131Y-1226845D01*
X1044909Y-1225778D01*
G54D10*
X800328Y-1344756D02*
X736328Y-1344756D01*
X736328Y-1498456D01*
X800328Y-1498456D01*
X800328Y-1344756D01*
G54D10*
X795328Y-1344756D02*
X741328Y-1344756D01*
X741328Y-1349756D01*
X795328Y-1349756D01*
X795328Y-1344756D01*
G54D11*
X842812Y-1440316D02*
X854368Y-1440316D01*
X856146Y-1439250D01*
X857034Y-1437116D01*
X857034Y-1434983D01*
X856146Y-1432850D01*
X854368Y-1431783D01*
X842812Y-1431783D01*
G54D11*
X854368Y-1418272D02*
X856146Y-1419339D01*
X857034Y-1421472D01*
X857034Y-1423606D01*
X856146Y-1425739D01*
X854368Y-1426806D01*
X845479Y-1426806D01*
X843701Y-1425739D01*
X842812Y-1423606D01*
X842812Y-1421472D01*
X843701Y-1419339D01*
X845479Y-1418272D01*
G54D11*
X854368Y-1413294D02*
X856146Y-1412228D01*
X857034Y-1410094D01*
X857034Y-1407961D01*
X856146Y-1405828D01*
X854368Y-1404761D01*
X849924Y-1404761D01*
X849034Y-1404761D01*
X850812Y-1407961D01*
X850812Y-1410094D01*
X849924Y-1412228D01*
X848146Y-1413294D01*
X845479Y-1413294D01*
X843701Y-1412228D01*
X842812Y-1410094D01*
X842812Y-1407961D01*
X843701Y-1405828D01*
X845479Y-1404761D01*
X849924Y-1404761D01*
G54D10*
X1002933Y-1344756D02*
X938933Y-1344756D01*
X938933Y-1498456D01*
X1002933Y-1498456D01*
X1002933Y-1344756D01*
G54D10*
X997933Y-1344756D02*
X943933Y-1344756D01*
X943933Y-1349756D01*
X997933Y-1349756D01*
X997933Y-1344756D01*
G54D11*
X1039067Y-1478416D02*
X1050622Y-1478416D01*
X1052400Y-1477350D01*
X1053289Y-1475216D01*
X1053289Y-1473083D01*
X1052400Y-1470950D01*
X1050622Y-1469883D01*
X1039067Y-1469883D01*
G54D11*
X1053289Y-1464906D02*
X1039067Y-1464906D01*
X1039067Y-1459572D01*
X1039956Y-1457439D01*
X1041734Y-1456372D01*
X1050622Y-1456372D01*
X1052400Y-1457439D01*
X1053289Y-1459572D01*
X1053289Y-1464906D01*
G54D11*
X1050622Y-1451394D02*
X1052400Y-1450328D01*
X1053289Y-1448194D01*
X1053289Y-1446061D01*
X1052400Y-1443928D01*
X1050622Y-1442861D01*
X1046178Y-1442861D01*
X1045289Y-1442861D01*
X1047067Y-1446061D01*
X1047067Y-1448194D01*
X1046178Y-1450328D01*
X1044400Y-1451394D01*
X1041734Y-1451394D01*
X1039956Y-1450328D01*
X1039067Y-1448194D01*
X1039067Y-1446061D01*
X1039956Y-1443928D01*
X1041734Y-1442861D01*
X1046178Y-1442861D01*
G54D10*
X271122Y-946690D02*
X228122Y-946690D01*
X228122Y-1048590D01*
X271122Y-1048590D01*
X271122Y-946690D01*
G54D10*
X266122Y-946690D02*
X233122Y-946690D01*
X233122Y-951690D01*
X266122Y-951690D01*
X266122Y-946690D01*
G54D11*
X225618Y-924200D02*
X227396Y-921000D01*
X229174Y-919934D01*
X232730Y-919934D01*
G54D11*
X232730Y-928467D02*
X218508Y-928467D01*
X218508Y-923134D01*
X219396Y-921000D01*
X221174Y-919934D01*
X222952Y-919934D01*
X224730Y-921000D01*
X225618Y-923134D01*
X225618Y-928467D01*
G54D11*
X232730Y-914956D02*
X218508Y-914956D01*
X218508Y-909623D01*
X219396Y-907490D01*
X221174Y-906423D01*
X222952Y-906423D01*
X224730Y-907490D01*
X225618Y-909623D01*
X225618Y-914956D01*
G54D11*
X232730Y-895045D02*
X218508Y-895045D01*
X227396Y-901445D01*
X229174Y-901445D01*
X229174Y-892912D01*
G54D10*
X271122Y-1086390D02*
X228122Y-1086390D01*
X228122Y-1188289D01*
X271122Y-1188289D01*
X271122Y-1086390D01*
G54D10*
X266122Y-1086390D02*
X233122Y-1086390D01*
X233122Y-1091390D01*
X266122Y-1091390D01*
X266122Y-1086390D01*
G54D11*
X308566Y-1110731D02*
X310343Y-1107531D01*
X312121Y-1106464D01*
X315676Y-1106464D01*
G54D11*
X315676Y-1114998D02*
X301454Y-1114998D01*
X301454Y-1109664D01*
X302343Y-1107531D01*
X304121Y-1106464D01*
X305899Y-1106464D01*
X307676Y-1107531D01*
X308566Y-1109664D01*
X308566Y-1114998D01*
G54D11*
X315676Y-1101487D02*
X301454Y-1101487D01*
X301454Y-1096154D01*
X302343Y-1094020D01*
X304121Y-1092954D01*
X305899Y-1092954D01*
X307676Y-1094020D01*
X308566Y-1096154D01*
X308566Y-1101487D01*
G54D11*
X304121Y-1087976D02*
X302343Y-1086909D01*
X301454Y-1084776D01*
X301454Y-1082642D01*
X302343Y-1080509D01*
X304121Y-1079442D01*
X305899Y-1079442D01*
X307676Y-1080509D01*
X308566Y-1082642D01*
X309454Y-1080509D01*
X311232Y-1079442D01*
X313010Y-1079442D01*
X314788Y-1080509D01*
X315676Y-1082642D01*
X315676Y-1084776D01*
X314788Y-1086909D01*
X313010Y-1087976D01*
G54D10*
X271122Y-1226089D02*
X228122Y-1226089D01*
X228122Y-1327988D01*
X271122Y-1327988D01*
X271122Y-1226089D01*
G54D10*
X266122Y-1226089D02*
X233122Y-1226089D01*
X233122Y-1231089D01*
X266122Y-1231089D01*
X266122Y-1226089D01*
G54D11*
X308566Y-1250430D02*
X310343Y-1247230D01*
X312121Y-1246164D01*
X315676Y-1246164D01*
G54D11*
X315676Y-1254697D02*
X301454Y-1254697D01*
X301454Y-1249364D01*
X302343Y-1247230D01*
X304121Y-1246164D01*
X305899Y-1246164D01*
X307676Y-1247230D01*
X308566Y-1249364D01*
X308566Y-1254697D01*
G54D11*
X315676Y-1241186D02*
X301454Y-1241186D01*
X301454Y-1235853D01*
X302343Y-1233720D01*
X304121Y-1232653D01*
X305899Y-1232653D01*
X307676Y-1233720D01*
X308566Y-1235853D01*
X308566Y-1241186D01*
G54D11*
X315676Y-1219142D02*
X315676Y-1227675D01*
X314788Y-1227675D01*
X313010Y-1226608D01*
X307676Y-1220208D01*
X305899Y-1219142D01*
X304121Y-1219142D01*
X302343Y-1220208D01*
X301454Y-1222342D01*
X301454Y-1224475D01*
X302343Y-1226608D01*
X304121Y-1227675D01*
G54D10*
X271122Y-1365788D02*
X228122Y-1365788D01*
X228122Y-1467688D01*
X271122Y-1467688D01*
X271122Y-1365788D01*
G54D10*
X266122Y-1365788D02*
X233122Y-1365788D01*
X233122Y-1370788D01*
X266122Y-1370788D01*
X266122Y-1365788D01*
G54D11*
X290309Y-1502842D02*
X292087Y-1499642D01*
X293865Y-1498576D01*
X297420Y-1498576D01*
G54D11*
X297420Y-1507109D02*
X283198Y-1507109D01*
X283198Y-1501776D01*
X284087Y-1499642D01*
X285865Y-1498576D01*
X287642Y-1498576D01*
X289420Y-1499642D01*
X290309Y-1501776D01*
X290309Y-1507109D01*
G54D11*
X297420Y-1493598D02*
X283198Y-1493598D01*
X283198Y-1488264D01*
X284087Y-1486132D01*
X285865Y-1485064D01*
X287642Y-1485064D01*
X289420Y-1486132D01*
X290309Y-1488264D01*
X290309Y-1493598D01*
G54D11*
X288532Y-1480087D02*
X283198Y-1474754D01*
X297420Y-1474754D01*
G54D10*
X1703047Y-480164D02*
X1660047Y-480164D01*
X1660047Y-582063D01*
X1703047Y-582063D01*
X1703047Y-480164D01*
G54D10*
X1698047Y-480164D02*
X1665047Y-480164D01*
X1665047Y-485164D01*
X1698047Y-485164D01*
X1698047Y-480164D01*
G54D11*
X1745253Y-485852D02*
X1747031Y-482652D01*
X1748809Y-481585D01*
X1752364Y-481585D01*
G54D11*
X1752364Y-490119D02*
X1738142Y-490119D01*
X1738142Y-484785D01*
X1739031Y-482652D01*
X1740809Y-481585D01*
X1742586Y-481585D01*
X1744364Y-482652D01*
X1745253Y-484785D01*
X1745253Y-490119D01*
G54D11*
X1752364Y-476608D02*
X1738142Y-476608D01*
X1738142Y-471274D01*
X1739031Y-469141D01*
X1740809Y-468074D01*
X1742586Y-468074D01*
X1744364Y-469141D01*
X1745253Y-471274D01*
X1745253Y-476608D01*
G54D11*
X1749698Y-463097D02*
X1751475Y-462030D01*
X1752364Y-459897D01*
X1752364Y-457763D01*
X1751475Y-455630D01*
X1749698Y-454563D01*
X1745253Y-454563D01*
X1744364Y-454563D01*
X1746142Y-457763D01*
X1746142Y-459897D01*
X1745253Y-462030D01*
X1743475Y-463097D01*
X1740809Y-463097D01*
X1739031Y-462030D01*
X1738142Y-459897D01*
X1738142Y-457763D01*
X1739031Y-455630D01*
X1740809Y-454563D01*
X1745253Y-454563D01*
G54D10*
X2264308Y-236028D02*
X2264309Y-279028D01*
X2366208Y-279028D01*
X2366208Y-236028D01*
X2264308Y-236028D01*
G54D10*
X2264308Y-241028D02*
X2264308Y-274028D01*
X2269309Y-274028D01*
X2269309Y-241028D01*
X2264308Y-241028D01*
G54D11*
X2383590Y-281040D02*
X2385368Y-277840D01*
X2387146Y-276774D01*
X2390701Y-276774D01*
G54D11*
X2390701Y-285307D02*
X2376478Y-285307D01*
X2376478Y-279974D01*
X2377368Y-277840D01*
X2379146Y-276774D01*
X2380923Y-276774D01*
X2382701Y-277840D01*
X2383590Y-279974D01*
X2383590Y-285307D01*
G54D11*
X2390701Y-271796D02*
X2376478Y-271796D01*
X2376478Y-266463D01*
X2377368Y-264329D01*
X2379146Y-263263D01*
X2380923Y-263263D01*
X2382701Y-264329D01*
X2383590Y-266463D01*
X2383590Y-271796D01*
G54D11*
X2381812Y-258285D02*
X2376478Y-252952D01*
X2390701Y-252952D01*
G54D11*
X2379146Y-247974D02*
X2377368Y-246907D01*
X2376478Y-244774D01*
X2376478Y-242641D01*
X2377368Y-240507D01*
X2379146Y-239441D01*
X2380923Y-239441D01*
X2382701Y-240507D01*
X2383590Y-242641D01*
X2384478Y-240507D01*
X2386256Y-239441D01*
X2388034Y-239441D01*
X2389812Y-240507D01*
X2390701Y-242641D01*
X2390701Y-244774D01*
X2389812Y-246907D01*
X2388034Y-247974D01*
G54D10*
X1014953Y-401953D02*
X1014953Y-421953D01*
X1117853Y-421953D01*
X1117853Y-401953D01*
X1014953Y-401953D01*
G54D10*
X1014953Y-406953D02*
X1014953Y-416953D01*
X1019953Y-416953D01*
X1019953Y-406953D01*
X1014953Y-406953D01*
G54D11*
X1124929Y-426124D02*
X1136484Y-426124D01*
X1138262Y-425058D01*
X1139151Y-422924D01*
X1139151Y-420791D01*
X1138262Y-418658D01*
X1136484Y-417591D01*
X1124929Y-417591D01*
G54D11*
X1139151Y-405147D02*
X1139151Y-412614D01*
X1124929Y-412614D01*
X1124929Y-405147D01*
G54D11*
X1132040Y-412614D02*
X1132040Y-405147D01*
G54D11*
X1130262Y-400168D02*
X1124929Y-394835D01*
X1139151Y-394835D01*
G54D11*
X1124929Y-381324D02*
X1124929Y-389858D01*
X1131151Y-389858D01*
X1131151Y-388791D01*
X1130262Y-386658D01*
X1130262Y-384524D01*
X1131151Y-382391D01*
X1132929Y-381324D01*
X1136484Y-381324D01*
X1138262Y-382391D01*
X1139151Y-384524D01*
X1139151Y-386658D01*
X1138262Y-388791D01*
X1136484Y-389858D01*
G54D11*
X1148052Y-465231D02*
X1148052Y-456698D01*
X1149830Y-457764D01*
X1152497Y-459898D01*
X1156052Y-462031D01*
X1158719Y-463098D01*
X1162274Y-463098D01*
G54D11*
X1148052Y-443187D02*
X1148052Y-451720D01*
X1154274Y-451720D01*
X1154274Y-450654D01*
X1153386Y-448520D01*
X1153386Y-446387D01*
X1154274Y-444254D01*
X1156052Y-443187D01*
X1159608Y-443187D01*
X1161386Y-444254D01*
X1162274Y-446387D01*
X1162274Y-448520D01*
X1161386Y-450654D01*
X1159608Y-451720D01*
G54D11*
X1153386Y-438209D02*
X1148052Y-432876D01*
X1162274Y-432876D01*
G54D11*
X1148052Y-427898D02*
X1148052Y-419365D01*
X1149830Y-420432D01*
X1152497Y-422565D01*
X1156052Y-424698D01*
X1158719Y-425765D01*
X1162274Y-425765D01*
G54D11*
X1148052Y-405854D02*
X1148052Y-414387D01*
X1154274Y-414387D01*
X1154274Y-413320D01*
X1153386Y-411187D01*
X1153386Y-409054D01*
X1154274Y-406920D01*
X1156052Y-405854D01*
X1159608Y-405854D01*
X1161386Y-406920D01*
X1162274Y-409054D01*
X1162274Y-411187D01*
X1161386Y-413320D01*
X1159608Y-414387D01*
G54D10*
X862553Y-401953D02*
X862553Y-421953D01*
X965453Y-421953D01*
X965453Y-401953D01*
X862553Y-401953D01*
G54D10*
X862553Y-406953D02*
X862553Y-416953D01*
X867553Y-416953D01*
X867553Y-406953D01*
X862553Y-406953D01*
G54D11*
X969354Y-397946D02*
X980910Y-397946D01*
X982687Y-396880D01*
X983576Y-394746D01*
X983576Y-392613D01*
X982687Y-390480D01*
X980910Y-389413D01*
X969354Y-389413D01*
G54D11*
X983576Y-384435D02*
X969354Y-384435D01*
X969354Y-379102D01*
X970242Y-376968D01*
X972020Y-375902D01*
X980910Y-375902D01*
X982687Y-376968D01*
X983576Y-379102D01*
X983576Y-384435D01*
G54D11*
X974687Y-370924D02*
X969354Y-365591D01*
X983576Y-365591D01*
G54D11*
X969354Y-352080D02*
X969354Y-360613D01*
X975576Y-360613D01*
X975576Y-359546D01*
X974687Y-357413D01*
X974687Y-355280D01*
X975576Y-353146D01*
X977354Y-352080D01*
X980910Y-352080D01*
X982687Y-353146D01*
X983576Y-355280D01*
X983576Y-357413D01*
X982687Y-359546D01*
X980910Y-360613D01*
G54D11*
X992080Y-410066D02*
X992080Y-401532D01*
X993858Y-402599D01*
X996525Y-404732D01*
X1000080Y-406866D01*
X1002747Y-407932D01*
X1006302Y-407932D01*
G54D11*
X992080Y-388021D02*
X992080Y-396554D01*
X998302Y-396554D01*
X998302Y-395488D01*
X997414Y-393354D01*
X997414Y-391221D01*
X998302Y-389088D01*
X1000080Y-388021D01*
X1003636Y-388021D01*
X1005414Y-389088D01*
X1006302Y-391221D01*
X1006302Y-393354D01*
X1005414Y-395488D01*
X1003636Y-396554D01*
G54D11*
X997414Y-383044D02*
X992080Y-377710D01*
X1006302Y-377710D01*
G54D11*
X992080Y-372732D02*
X992080Y-364199D01*
X993858Y-365266D01*
X996525Y-367399D01*
X1000080Y-369532D01*
X1002747Y-370599D01*
X1006302Y-370599D01*
G54D11*
X992080Y-350688D02*
X992080Y-359222D01*
X998302Y-359222D01*
X998302Y-358155D01*
X997414Y-356022D01*
X997414Y-353888D01*
X998302Y-351755D01*
X1000080Y-350688D01*
X1003636Y-350688D01*
X1005414Y-351755D01*
X1006302Y-353888D01*
X1006302Y-356022D01*
X1005414Y-358155D01*
X1003636Y-359222D01*
G54D10*
X831002Y-230128D02*
X831002Y-290128D01*
X959299Y-290128D01*
X959299Y-230128D01*
X831002Y-230128D01*
G54D10*
X831002Y-235128D02*
X831002Y-285128D01*
X836002Y-285128D01*
X836002Y-235128D01*
X831002Y-235128D01*
G54D11*
X978310Y-259422D02*
X980088Y-256222D01*
X981866Y-255156D01*
X985421Y-255156D01*
G54D11*
X985421Y-263689D02*
X971199Y-263689D01*
X971199Y-258356D01*
X972088Y-256222D01*
X973866Y-255156D01*
X975643Y-255156D01*
X977421Y-256222D01*
X978310Y-258356D01*
X978310Y-263689D01*
G54D11*
X985421Y-250178D02*
X971199Y-250178D01*
X971199Y-244845D01*
X972088Y-242711D01*
X973866Y-241645D01*
X975643Y-241645D01*
X977421Y-242711D01*
X978310Y-244845D01*
X978310Y-250178D01*
G54D11*
X973866Y-228134D02*
X972088Y-229200D01*
X971199Y-231334D01*
X971199Y-233467D01*
X972088Y-235600D01*
X973866Y-236667D01*
X978310Y-236667D01*
X979199Y-236667D01*
X977421Y-233467D01*
X977421Y-231334D01*
X978310Y-229200D01*
X980088Y-228134D01*
X982754Y-228134D01*
X984532Y-229200D01*
X985421Y-231334D01*
X985421Y-233467D01*
X984532Y-235600D01*
X982754Y-236667D01*
X978310Y-236667D01*
G54D10*
X1034199Y-230128D02*
X1034199Y-290128D01*
X1162496Y-290128D01*
X1162496Y-230128D01*
X1034199Y-230128D01*
G54D10*
X1034199Y-235128D02*
X1034199Y-285128D01*
X1039199Y-285128D01*
X1039199Y-235128D01*
X1034199Y-235128D01*
G54D11*
X1181507Y-257438D02*
X1183285Y-254238D01*
X1185063Y-253171D01*
X1188618Y-253171D01*
G54D11*
X1188618Y-261705D02*
X1174396Y-261705D01*
X1174396Y-256371D01*
X1175285Y-254238D01*
X1177063Y-253171D01*
X1178840Y-253171D01*
X1180618Y-254238D01*
X1181507Y-256371D01*
X1181507Y-261705D01*
G54D11*
X1188618Y-248194D02*
X1174396Y-248194D01*
X1174396Y-242860D01*
X1175285Y-240727D01*
X1177063Y-239660D01*
X1178840Y-239660D01*
X1180618Y-240727D01*
X1181507Y-242860D01*
X1181507Y-248194D01*
G54D11*
X1181507Y-229349D02*
X1181507Y-231483D01*
X1180618Y-233616D01*
X1178840Y-234683D01*
X1177063Y-234683D01*
X1175285Y-233616D01*
X1174396Y-231483D01*
X1174396Y-229349D01*
X1175285Y-227216D01*
X1177063Y-226149D01*
X1178840Y-226149D01*
X1180618Y-227216D01*
X1181507Y-229349D01*
X1182396Y-227216D01*
X1184174Y-226149D01*
X1185952Y-226149D01*
X1187730Y-227216D01*
X1188618Y-229349D01*
X1188618Y-231483D01*
X1187730Y-233616D01*
X1185952Y-234683D01*
X1184174Y-234683D01*
X1182396Y-233616D01*
X1181507Y-231483D01*
G54D14*
X535384Y-279400D02*
X535384Y-203994D01*
X497284Y-203994D01*
X497284Y-279400D01*
X535384Y-279400D01*
G54D11*
X543105Y-266711D02*
X557327Y-266711D01*
X557327Y-259244D01*
G54D11*
X545772Y-254266D02*
X543994Y-253199D01*
X543105Y-251066D01*
X543105Y-248932D01*
X543994Y-246799D01*
X545772Y-245732D01*
X547550Y-245732D01*
X549327Y-246799D01*
X550216Y-248932D01*
X551105Y-246799D01*
X552883Y-245732D01*
X554660Y-245732D01*
X556438Y-246799D01*
X557327Y-248932D01*
X557327Y-251066D01*
X556438Y-253199D01*
X554660Y-254266D01*
G54D14*
X535384Y-360362D02*
X535384Y-284956D01*
X497284Y-284956D01*
X497284Y-360362D01*
X535384Y-360362D01*
G54D11*
X542708Y-334973D02*
X556930Y-334973D01*
X556930Y-327506D01*
G54D11*
X556930Y-313995D02*
X556930Y-322528D01*
X556042Y-322528D01*
X554264Y-321462D01*
X548930Y-315062D01*
X547152Y-313995D01*
X545375Y-313995D01*
X543597Y-315062D01*
X542708Y-317195D01*
X542708Y-319328D01*
X543597Y-321462D01*
X545375Y-322528D01*
G54D14*
X617140Y-279400D02*
X617140Y-203994D01*
X579040Y-203994D01*
X579040Y-279400D01*
X617140Y-279400D01*
G54D11*
X624861Y-266711D02*
X639084Y-266711D01*
X639084Y-259244D01*
G54D11*
X627528Y-245732D02*
X625750Y-246799D01*
X624861Y-248932D01*
X624861Y-251066D01*
X625750Y-253199D01*
X627528Y-254266D01*
X631972Y-254266D01*
X632861Y-254266D01*
X631084Y-251066D01*
X631084Y-248932D01*
X631972Y-246799D01*
X633750Y-245732D01*
X636417Y-245732D01*
X638194Y-246799D01*
X639084Y-248932D01*
X639084Y-251066D01*
X638194Y-253199D01*
X636417Y-254266D01*
X631972Y-254266D01*
G54D14*
X617140Y-360362D02*
X617140Y-284956D01*
X579040Y-284956D01*
X579040Y-360362D01*
X617140Y-360362D01*
G54D11*
X624464Y-334973D02*
X638686Y-334973D01*
X638686Y-327506D01*
G54D11*
X624464Y-313995D02*
X624464Y-322528D01*
X630686Y-322528D01*
X630686Y-321462D01*
X629798Y-319328D01*
X629798Y-317195D01*
X630686Y-315062D01*
X632464Y-313995D01*
X636020Y-313995D01*
X637798Y-315062D01*
X638686Y-317195D01*
X638686Y-319328D01*
X637798Y-321462D01*
X636020Y-322528D01*
G54D14*
X698103Y-279400D02*
X698103Y-203994D01*
X660003Y-203994D01*
X660003Y-279400D01*
X698103Y-279400D01*
G54D11*
X705824Y-266711D02*
X720046Y-266711D01*
X720046Y-259244D01*
G54D11*
X712935Y-248932D02*
X712935Y-251066D01*
X712046Y-253199D01*
X710268Y-254266D01*
X708490Y-254266D01*
X706713Y-253199D01*
X705824Y-251066D01*
X705824Y-248932D01*
X706713Y-246799D01*
X708490Y-245732D01*
X710268Y-245732D01*
X712046Y-246799D01*
X712935Y-248932D01*
X713824Y-246799D01*
X715602Y-245732D01*
X717380Y-245732D01*
X719157Y-246799D01*
X720046Y-248932D01*
X720046Y-251066D01*
X719157Y-253199D01*
X717380Y-254266D01*
X715602Y-254266D01*
X713824Y-253199D01*
X712935Y-251066D01*
G54D14*
X698103Y-360362D02*
X698103Y-284956D01*
X660003Y-284956D01*
X660003Y-360362D01*
X698103Y-360362D01*
G54D11*
X705427Y-334973D02*
X719649Y-334973D01*
X719649Y-327506D01*
G54D11*
X705427Y-322528D02*
X705427Y-313995D01*
X707205Y-315062D01*
X709872Y-317195D01*
X713427Y-319328D01*
X716094Y-320395D01*
X719649Y-320395D01*
G54D14*
X599083Y-678458D02*
X599083Y-603052D01*
X560983Y-603052D01*
X560983Y-678458D01*
X599083Y-678458D01*
G54D11*
X606406Y-660609D02*
X620629Y-660609D01*
X620629Y-653142D01*
G54D11*
X620629Y-641764D02*
X606406Y-641764D01*
X615296Y-648164D01*
X617073Y-648164D01*
X617073Y-639631D01*
G54D14*
X1803598Y-562570D02*
X1803598Y-487164D01*
X1765498Y-487164D01*
X1765498Y-562570D01*
X1803598Y-562570D01*
G54D11*
X1778378Y-597109D02*
X1792600Y-597109D01*
X1792600Y-589642D01*
G54D11*
X1789934Y-584664D02*
X1791712Y-583598D01*
X1792600Y-581464D01*
X1792600Y-579331D01*
X1791712Y-577198D01*
X1789934Y-576131D01*
X1785489Y-576131D01*
X1784600Y-576131D01*
X1786378Y-579331D01*
X1786378Y-581464D01*
X1785489Y-583598D01*
X1783712Y-584664D01*
X1781045Y-584664D01*
X1779267Y-583598D01*
X1778378Y-581464D01*
X1778378Y-579331D01*
X1779267Y-577198D01*
X1781045Y-576131D01*
X1785489Y-576131D01*
G54D14*
X2616002Y-1986558D02*
X2616002Y-1911152D01*
X2577902Y-1911152D01*
X2577902Y-1986558D01*
X2616002Y-1986558D01*
G54D11*
X2589988Y-2038162D02*
X2604210Y-2038162D01*
X2604210Y-2030696D01*
G54D11*
X2595321Y-2025718D02*
X2589988Y-2020384D01*
X2604210Y-2020384D01*
G54D11*
X2592654Y-2006873D02*
X2601543Y-2006873D01*
X2603321Y-2007940D01*
X2604210Y-2010073D01*
X2604210Y-2012206D01*
X2603321Y-2014340D01*
X2601543Y-2015406D01*
X2592654Y-2015406D01*
X2590877Y-2014340D01*
X2589988Y-2012206D01*
X2589988Y-2010073D01*
X2590877Y-2007940D01*
X2592654Y-2006873D01*
G54D14*
X2666802Y-1986558D02*
X2666802Y-1911152D01*
X2628702Y-1911152D01*
X2628702Y-1986558D01*
X2666802Y-1986558D01*
G54D11*
X2639597Y-2049275D02*
X2653819Y-2049275D01*
X2653819Y-2041808D01*
G54D11*
X2644930Y-2036830D02*
X2639597Y-2031496D01*
X2653819Y-2031496D01*
G54D11*
X2644930Y-2026519D02*
X2639597Y-2021186D01*
X2653819Y-2021186D01*
G54D14*
X2717602Y-1986558D02*
X2717602Y-1911152D01*
X2679502Y-1911152D01*
X2679502Y-1986558D01*
X2717602Y-1986558D01*
G54D11*
X2690404Y-2039346D02*
X2704627Y-2039346D01*
X2704627Y-2031879D01*
G54D11*
X2695738Y-2026901D02*
X2690404Y-2021568D01*
X2704627Y-2021568D01*
G54D11*
X2704627Y-2008056D02*
X2704627Y-2016590D01*
X2703738Y-2016590D01*
X2701960Y-2015523D01*
X2696627Y-2009123D01*
X2694849Y-2008056D01*
X2693071Y-2008056D01*
X2691293Y-2009123D01*
X2690404Y-2011256D01*
X2690404Y-2013390D01*
X2691293Y-2015523D01*
X2693071Y-2016590D01*
G54D13*
X1051926Y-481034D02*
X1064435Y-481034D01*
X1064666Y-480804D01*
X1064666Y-478118D01*
X1076561Y-478118D01*
X1076638Y-478195D01*
G54D13*
X1051926Y-506693D02*
X1064435Y-506693D01*
X1064666Y-506923D01*
X1064666Y-509609D01*
X1076561Y-509609D01*
X1076638Y-509532D01*
G54D13*
X1135375Y-477974D02*
X1148075Y-477974D01*
X1148075Y-509724D01*
X1135375Y-509724D01*
G54D16*
X1159975Y-507434D02*
X1165753Y-503101D01*
X1171530Y-503101D01*
G54D16*
X1165753Y-503101D02*
X1159975Y-498768D01*
G54D16*
X1164308Y-494723D02*
X1159975Y-490390D01*
X1171530Y-490390D01*
G54D16*
X1044298Y-493086D02*
X1048631Y-488752D01*
X1048631Y-500308D01*
G54D16*
X1059608Y-490919D02*
X1058742Y-489474D01*
X1057008Y-488752D01*
X1055275Y-488752D01*
X1053542Y-489474D01*
X1052675Y-490919D01*
X1052675Y-494530D01*
X1052675Y-495252D01*
X1055275Y-493808D01*
X1057008Y-493808D01*
X1058742Y-494530D01*
X1059608Y-495974D01*
X1059608Y-498141D01*
X1058742Y-499586D01*
X1057008Y-500308D01*
X1055275Y-500308D01*
X1053542Y-499586D01*
X1052675Y-498141D01*
X1052675Y-494530D01*
G54D16*
X1063652Y-500308D02*
X1063652Y-500308D01*
G54D16*
X1067696Y-498141D02*
X1068562Y-499586D01*
X1070296Y-500308D01*
X1072029Y-500308D01*
X1073762Y-499586D01*
X1074629Y-498141D01*
X1074629Y-494530D01*
X1074629Y-493808D01*
X1072029Y-495252D01*
X1070296Y-495252D01*
X1068562Y-494530D01*
X1067696Y-493086D01*
X1067696Y-490919D01*
X1068562Y-489474D01*
X1070296Y-488752D01*
X1072029Y-488752D01*
X1073762Y-489474D01*
X1074629Y-490919D01*
X1074629Y-494530D01*
G54D16*
X1078673Y-490919D02*
X1079540Y-489474D01*
X1081273Y-488752D01*
X1083006Y-488752D01*
X1084740Y-489474D01*
X1085606Y-490919D01*
X1085606Y-492364D01*
X1084740Y-493808D01*
X1083006Y-494530D01*
X1084740Y-495252D01*
X1085606Y-496697D01*
X1085606Y-498141D01*
X1084740Y-499586D01*
X1083006Y-500308D01*
X1081273Y-500308D01*
X1079540Y-499586D01*
X1078673Y-498141D01*
G54D16*
X1094850Y-500308D02*
X1094850Y-488752D01*
X1089650Y-495974D01*
X1089650Y-497419D01*
X1096583Y-497419D01*
G54D16*
X1105827Y-500308D02*
X1105827Y-488752D01*
X1100627Y-495974D01*
X1100627Y-497419D01*
X1107560Y-497419D01*
G54D16*
X1111604Y-500308D02*
X1111604Y-488752D01*
X1115937Y-495974D01*
X1120270Y-488752D01*
X1120270Y-500308D01*
G54D16*
X1124315Y-500308D02*
X1124315Y-488752D01*
G54D16*
X1131248Y-500308D02*
X1131248Y-488752D01*
G54D16*
X1124315Y-494530D02*
X1131248Y-494530D01*
G54D16*
X1135292Y-488752D02*
X1142225Y-488752D01*
X1135292Y-500308D01*
X1142225Y-500308D01*
G54D13*
X226939Y-2323564D02*
X207099Y-2323564D01*
X206954Y-2323420D01*
X206954Y-2270390D01*
X211788Y-2265556D01*
X226580Y-2265556D01*
X226723Y-2265411D01*
G54D13*
X245054Y-2323564D02*
X264896Y-2323564D01*
X265040Y-2323420D01*
X265039Y-2270390D01*
X260205Y-2265556D01*
X245415Y-2265556D01*
X245272Y-2265411D01*
G54D15*
X230402Y-2233528D02*
X217069Y-2233528D01*
G54D15*
X223736Y-2239082D02*
X223736Y-2227972D01*
G54D11*
X239349Y-2208706D02*
X241126Y-2209772D01*
X242016Y-2211906D01*
X242016Y-2214039D01*
X241126Y-2216172D01*
X239349Y-2217239D01*
X230460Y-2217239D01*
X228682Y-2216172D01*
X227793Y-2214039D01*
X227793Y-2211906D01*
X228682Y-2209772D01*
X230460Y-2208706D01*
G54D11*
X242016Y-2197328D02*
X227793Y-2197328D01*
X236682Y-2203728D01*
X238460Y-2203728D01*
X238460Y-2195194D01*
G54D12*
X2267744Y-1865710D02*
X2303462Y-1865710D01*
X2303462Y-1870472D01*
X2322512Y-1870472D01*
X2322512Y-1865710D01*
X2360612Y-1865710D01*
X2360612Y-1804988D01*
X2351881Y-1796256D01*
X2267744Y-1796256D01*
X2267744Y-1865710D01*
G54D11*
X2370495Y-1823856D02*
X2382051Y-1823856D01*
X2383829Y-1824922D01*
X2384718Y-1827056D01*
X2384718Y-1829188D01*
X2383829Y-1831322D01*
X2382051Y-1832388D01*
G54D11*
X2375829Y-1818878D02*
X2370495Y-1813544D01*
X2384718Y-1813544D01*
G54D11*
X2382051Y-1808566D02*
X2383829Y-1807500D01*
X2384718Y-1805366D01*
X2384718Y-1803234D01*
X2383829Y-1801100D01*
X2382051Y-1800034D01*
X2377606Y-1800034D01*
X2376718Y-1800034D01*
X2378495Y-1803234D01*
X2378495Y-1805366D01*
X2377606Y-1807500D01*
X2375829Y-1808566D01*
X2373162Y-1808566D01*
X2371384Y-1807500D01*
X2370495Y-1805366D01*
X2370495Y-1803234D01*
X2371384Y-1801100D01*
X2373162Y-1800034D01*
X2377606Y-1800034D01*
G54D12*
X2479675Y-1876028D02*
X2479675Y-1889522D01*
X2505472Y-1889522D01*
G54D12*
X2479675Y-1831975D02*
X2479675Y-1819672D01*
X2492375Y-1806972D01*
G54D12*
X2711681Y-1876028D02*
X2711681Y-1889522D01*
X2685884Y-1889522D01*
G54D12*
X2685653Y-1806972D02*
X2701528Y-1806972D01*
X2711450Y-1816894D01*
G54D10*
X2395368Y-1530756D02*
X2435368Y-1530756D01*
X2445368Y-1540756D01*
X2455368Y-1530756D01*
X2615368Y-1530756D01*
X2615368Y-1630756D01*
X2455368Y-1630756D01*
X2445368Y-1620756D01*
X2435368Y-1630756D01*
X2395368Y-1630756D01*
X2395368Y-1530756D01*
G54D10*
X2395368Y-1580756D02*
X2355368Y-1580756D01*
G54D10*
X2655368Y-1580756D02*
X2615368Y-1580756D01*
G54D18*
X2425368Y-1581056D02*
X2409368Y-1581056D01*
G54D18*
X2417368Y-1574456D02*
X2417368Y-1587756D01*
G54D11*
X2690100Y-1552514D02*
X2691878Y-1553581D01*
X2692766Y-1555714D01*
X2692766Y-1557848D01*
X2691878Y-1559981D01*
X2690100Y-1561048D01*
X2681211Y-1561048D01*
X2679433Y-1559981D01*
X2678544Y-1557848D01*
X2678544Y-1555714D01*
X2679433Y-1553581D01*
X2681211Y-1552514D01*
G54D11*
X2683878Y-1547536D02*
X2678544Y-1542204D01*
X2692766Y-1542204D01*
G54D11*
X2681211Y-1537226D02*
X2679433Y-1536159D01*
X2678544Y-1534026D01*
X2678544Y-1531892D01*
X2679433Y-1529759D01*
X2681211Y-1528692D01*
X2682988Y-1528692D01*
X2684766Y-1529759D01*
X2685655Y-1531892D01*
X2686544Y-1529759D01*
X2688322Y-1528692D01*
X2690100Y-1528692D01*
X2691878Y-1529759D01*
X2692766Y-1531892D01*
X2692766Y-1534026D01*
X2691878Y-1536159D01*
X2690100Y-1537226D01*
G54D10*
X2395368Y-1403756D02*
X2435368Y-1403756D01*
X2445368Y-1413756D01*
X2455368Y-1403756D01*
X2615368Y-1403756D01*
X2615368Y-1503756D01*
X2455368Y-1503756D01*
X2445368Y-1493756D01*
X2435368Y-1503756D01*
X2395368Y-1503756D01*
X2395368Y-1403756D01*
G54D10*
X2395368Y-1453756D02*
X2355368Y-1453756D01*
G54D10*
X2655368Y-1453756D02*
X2615368Y-1453756D01*
G54D18*
X2425368Y-1454056D02*
X2409368Y-1454056D01*
G54D18*
X2417368Y-1447456D02*
X2417368Y-1460756D01*
G54D11*
X2684850Y-1417494D02*
X2686628Y-1418561D01*
X2687517Y-1420694D01*
X2687517Y-1422828D01*
X2686628Y-1424961D01*
X2684850Y-1426028D01*
X2675962Y-1426028D01*
X2674184Y-1424961D01*
X2673295Y-1422828D01*
X2673295Y-1420694D01*
X2674184Y-1418561D01*
X2675962Y-1417494D01*
G54D11*
X2678628Y-1412517D02*
X2673295Y-1407184D01*
X2687517Y-1407184D01*
G54D11*
X2687517Y-1395806D02*
X2673295Y-1395806D01*
X2682184Y-1402206D01*
X2683962Y-1402206D01*
X2683962Y-1393672D01*
G54D10*
X2294165Y-933062D02*
X2334165Y-933062D01*
X2344165Y-943062D01*
X2354165Y-933062D01*
X2514165Y-933062D01*
X2514165Y-1033062D01*
X2354165Y-1033062D01*
X2344165Y-1023062D01*
X2334165Y-1033062D01*
X2294165Y-1033062D01*
X2294165Y-933062D01*
G54D10*
X2294165Y-983062D02*
X2254165Y-983062D01*
G54D10*
X2554165Y-983062D02*
X2514165Y-983062D01*
G54D18*
X2324165Y-983362D02*
X2308165Y-983362D01*
G54D18*
X2316165Y-976762D02*
X2316165Y-990062D01*
G54D11*
X2532450Y-1078166D02*
X2534228Y-1079233D01*
X2535117Y-1081366D01*
X2535117Y-1083500D01*
X2534228Y-1085633D01*
X2532450Y-1086700D01*
X2523562Y-1086700D01*
X2521784Y-1085633D01*
X2520895Y-1083500D01*
X2520895Y-1081366D01*
X2521784Y-1079233D01*
X2523562Y-1078166D01*
G54D11*
X2526228Y-1073188D02*
X2520895Y-1067856D01*
X2535117Y-1067856D01*
G54D11*
X2535117Y-1054344D02*
X2535117Y-1062878D01*
X2534228Y-1062878D01*
X2532450Y-1061811D01*
X2527117Y-1055411D01*
X2525340Y-1054344D01*
X2523562Y-1054344D01*
X2521784Y-1055411D01*
X2520895Y-1057544D01*
X2520895Y-1059678D01*
X2521784Y-1061811D01*
X2523562Y-1062878D01*
G54D10*
X254624Y-596512D02*
X294624Y-596512D01*
X304624Y-606512D01*
X314624Y-596512D01*
X474624Y-596512D01*
X474624Y-696512D01*
X314624Y-696512D01*
X304624Y-686512D01*
X294624Y-696512D01*
X254624Y-696512D01*
X254624Y-596512D01*
G54D10*
X254624Y-646512D02*
X214624Y-646512D01*
G54D10*
X514624Y-646512D02*
X474624Y-646512D01*
G54D18*
X284624Y-646812D02*
X268624Y-646812D01*
G54D18*
X276624Y-640212D02*
X276624Y-653512D01*
G54D11*
X531406Y-609060D02*
X533184Y-610127D01*
X534073Y-612260D01*
X534073Y-614394D01*
X533184Y-616527D01*
X531406Y-617594D01*
X522518Y-617594D01*
X520740Y-616527D01*
X519851Y-614394D01*
X519851Y-612260D01*
X520740Y-610127D01*
X522518Y-609060D01*
G54D11*
X522518Y-595549D02*
X520740Y-596616D01*
X519851Y-598749D01*
X519851Y-600882D01*
X520740Y-603016D01*
X522518Y-604082D01*
X526962Y-604082D01*
X527851Y-604082D01*
X526073Y-600882D01*
X526073Y-598749D01*
X526962Y-596616D01*
X528740Y-595549D01*
X531406Y-595549D01*
X533184Y-596616D01*
X534073Y-598749D01*
X534073Y-600882D01*
X533184Y-603016D01*
X531406Y-604082D01*
X526962Y-604082D01*
G54D12*
X146844Y-198834D02*
X146844Y-186134D01*
X166290Y-186134D01*
G54D12*
X236371Y-198834D02*
X236371Y-186134D01*
X216924Y-186134D01*
G54D12*
X146844Y-249070D02*
X146844Y-261770D01*
X166290Y-261770D01*
G54D12*
X236371Y-249070D02*
X236371Y-261770D01*
X216924Y-261770D01*
G54D11*
X257302Y-202237D02*
X259080Y-203304D01*
X259969Y-205437D01*
X259969Y-207570D01*
X259080Y-209704D01*
X257302Y-210770D01*
X248414Y-210770D01*
X246636Y-209704D01*
X245747Y-207570D01*
X245747Y-205437D01*
X246636Y-203304D01*
X248414Y-202237D01*
G54D11*
X248414Y-197259D02*
X246636Y-196192D01*
X245747Y-194059D01*
X245747Y-191926D01*
X246636Y-189792D01*
X248414Y-188726D01*
X250192Y-188726D01*
X251969Y-189792D01*
X252858Y-191926D01*
X253747Y-189792D01*
X255525Y-188726D01*
X257302Y-188726D01*
X259080Y-189792D01*
X259969Y-191926D01*
X259969Y-194059D01*
X259080Y-196192D01*
X257302Y-197259D01*
G54D12*
X2128838Y-155972D02*
X2115344Y-155972D01*
X2115344Y-142478D01*
G54D12*
X2114947Y-42862D02*
X2114947Y-35719D01*
G54D12*
X2550686Y-156369D02*
X2564180Y-156369D01*
X2564180Y-142875D01*
G54D12*
X2564577Y-43260D02*
X2564577Y-36116D01*
G54D12*
X2053799Y-155575D02*
X2067292Y-155575D01*
X2067292Y-142081D01*
G54D12*
X2067690Y-42466D02*
X2067690Y-35322D01*
G54D11*
X2572518Y-155574D02*
X2584074Y-155574D01*
X2585852Y-156640D01*
X2586740Y-158774D01*
X2586740Y-160907D01*
X2585852Y-163040D01*
X2584074Y-164107D01*
G54D11*
X2586740Y-142062D02*
X2586740Y-150596D01*
X2585852Y-150596D01*
X2584074Y-149529D01*
X2578740Y-143129D01*
X2576963Y-142062D01*
X2575185Y-142062D01*
X2573408Y-143129D01*
X2572518Y-145262D01*
X2572518Y-147396D01*
X2573408Y-149529D01*
X2575185Y-150596D01*
G54D11*
X2575185Y-128552D02*
X2584074Y-128552D01*
X2585852Y-129618D01*
X2586740Y-131752D01*
X2586740Y-133885D01*
X2585852Y-136018D01*
X2584074Y-137085D01*
X2575185Y-137085D01*
X2573408Y-136018D01*
X2572518Y-133885D01*
X2572518Y-131752D01*
X2573408Y-129618D01*
X2575185Y-128552D01*
G54D12*
X1551920Y-155575D02*
X1538426Y-155575D01*
X1538426Y-142081D01*
G54D12*
X1538029Y-42466D02*
X1538029Y-35322D01*
G54D11*
X2077544Y-173726D02*
X2089100Y-173726D01*
X2090878Y-174793D01*
X2091766Y-176926D01*
X2091766Y-179060D01*
X2090878Y-181193D01*
X2089100Y-182260D01*
G54D11*
X2082878Y-168748D02*
X2077544Y-163415D01*
X2091766Y-163415D01*
G54D11*
X2077544Y-149904D02*
X2077544Y-158438D01*
X2083766Y-158438D01*
X2083766Y-157371D01*
X2082878Y-155238D01*
X2082878Y-153104D01*
X2083766Y-150971D01*
X2085544Y-149904D01*
X2089100Y-149904D01*
X2090878Y-150971D01*
X2091766Y-153104D01*
X2091766Y-155238D01*
X2090878Y-157371D01*
X2089100Y-158438D01*
G54D13*
X160211Y-145296D02*
X160211Y-157488D01*
X160341Y-157618D01*
X172793Y-157618D01*
G54D13*
X294143Y-145296D02*
X294143Y-157488D01*
X294013Y-157618D01*
X281562Y-157618D01*
G54D11*
X303737Y-167251D02*
X315292Y-167251D01*
X317070Y-168318D01*
X317959Y-170451D01*
X317959Y-172584D01*
X317070Y-174718D01*
X315292Y-175784D01*
G54D11*
X317959Y-153740D02*
X317959Y-162274D01*
X317070Y-162274D01*
X315292Y-161207D01*
X309959Y-154807D01*
X308181Y-153740D01*
X306404Y-153740D01*
X304626Y-154807D01*
X303737Y-156940D01*
X303737Y-159074D01*
X304626Y-161207D01*
X306404Y-162274D01*
G54D11*
X343271Y-190828D02*
X329049Y-185495D01*
X343271Y-180162D01*
G54D11*
X337938Y-188695D02*
X337938Y-182295D01*
G54D11*
X343271Y-175183D02*
X329049Y-175183D01*
X329049Y-169850D01*
X329938Y-167716D01*
X331716Y-166650D01*
X340604Y-166650D01*
X342382Y-167716D01*
X343271Y-169850D01*
X343271Y-175183D01*
G54D11*
X343271Y-161672D02*
X329049Y-161672D01*
X329049Y-156339D01*
X329938Y-154206D01*
X331716Y-153139D01*
X333493Y-153139D01*
X335271Y-154206D01*
X336160Y-156339D01*
X337049Y-154206D01*
X338826Y-153139D01*
X340604Y-153139D01*
X342382Y-154206D01*
X343271Y-156339D01*
X343271Y-161672D01*
G54D11*
X336160Y-161672D02*
X336160Y-156339D01*
G54D13*
X352696Y-145296D02*
X352696Y-157488D01*
X352826Y-157618D01*
X365278Y-157618D01*
G54D13*
X486628Y-145296D02*
X486628Y-157488D01*
X486498Y-157618D01*
X474046Y-157618D01*
G54D11*
X499793Y-168442D02*
X511348Y-168442D01*
X513126Y-169508D01*
X514015Y-171642D01*
X514015Y-173775D01*
X513126Y-175908D01*
X511348Y-176975D01*
G54D11*
X514015Y-157064D02*
X499793Y-157064D01*
X508682Y-163464D01*
X510460Y-163464D01*
X510460Y-154931D01*
G54D11*
X532977Y-178524D02*
X518755Y-173191D01*
X532977Y-167858D01*
G54D11*
X527644Y-176391D02*
X527644Y-169991D01*
G54D11*
X532977Y-162879D02*
X518755Y-162879D01*
X518755Y-157546D01*
X519644Y-155413D01*
X521421Y-154346D01*
X530310Y-154346D01*
X532088Y-155413D01*
X532977Y-157546D01*
X532977Y-162879D01*
G54D11*
X532977Y-149368D02*
X518755Y-149368D01*
X518755Y-144035D01*
X519644Y-141902D01*
X521421Y-140835D01*
X523199Y-140835D01*
X524977Y-141902D01*
X525866Y-144035D01*
X526754Y-141902D01*
X528532Y-140835D01*
X530310Y-140835D01*
X532088Y-141902D01*
X532977Y-144035D01*
X532977Y-149368D01*
G54D11*
X525866Y-149368D02*
X525866Y-144035D01*
G54D13*
X703930Y-143710D02*
X703930Y-155902D01*
X704060Y-156031D01*
X716511Y-156031D01*
G54D13*
X839449Y-143710D02*
X839449Y-155902D01*
X839320Y-156031D01*
X826868Y-156031D01*
G54D11*
X753265Y-213154D02*
X764820Y-213154D01*
X766598Y-214220D01*
X767487Y-216354D01*
X767487Y-218487D01*
X766598Y-220620D01*
X764820Y-221687D01*
G54D11*
X760376Y-202843D02*
X760376Y-204976D01*
X759487Y-207109D01*
X757709Y-208176D01*
X755932Y-208176D01*
X754154Y-207109D01*
X753265Y-204976D01*
X753265Y-202843D01*
X754154Y-200709D01*
X755932Y-199643D01*
X757709Y-199643D01*
X759487Y-200709D01*
X760376Y-202843D01*
X761265Y-200709D01*
X763042Y-199643D01*
X764820Y-199643D01*
X766598Y-200709D01*
X767487Y-202843D01*
X767487Y-204976D01*
X766598Y-207109D01*
X764820Y-208176D01*
X763042Y-208176D01*
X761265Y-207109D01*
X760376Y-204976D01*
G54D11*
X792844Y-266769D02*
X778622Y-266769D01*
X787511Y-261436D01*
X778622Y-256102D01*
X792844Y-256102D01*
G54D11*
X781289Y-242590D02*
X790178Y-242590D01*
X791956Y-243657D01*
X792844Y-245790D01*
X792844Y-247924D01*
X791956Y-250057D01*
X790178Y-251124D01*
X781289Y-251124D01*
X779511Y-250057D01*
X778622Y-247924D01*
X778622Y-245790D01*
X779511Y-243657D01*
X781289Y-242590D01*
G54D11*
X792844Y-237613D02*
X778622Y-237613D01*
X778622Y-232280D01*
X779511Y-230146D01*
X781289Y-229080D01*
X790178Y-229080D01*
X791956Y-230146D01*
X792844Y-232280D01*
X792844Y-237613D01*
G54D11*
X792844Y-216635D02*
X792844Y-224102D01*
X778622Y-224102D01*
X778622Y-216635D01*
G54D11*
X785734Y-224102D02*
X785734Y-216635D01*
G54D11*
X792844Y-211657D02*
X778622Y-211657D01*
X787511Y-206324D01*
X778622Y-200990D01*
X792844Y-200990D01*
G54D13*
X896018Y-143710D02*
X896018Y-155902D01*
X896148Y-156031D01*
X908598Y-156031D01*
G54D13*
X1031536Y-143710D02*
X1031536Y-155902D01*
X1031408Y-156031D01*
X1018956Y-156031D01*
G54D11*
X1054890Y-140922D02*
X1066446Y-140922D01*
X1068223Y-141989D01*
X1069112Y-144122D01*
X1069112Y-146256D01*
X1068223Y-148389D01*
X1066446Y-149456D01*
G54D11*
X1060223Y-135945D02*
X1054890Y-130612D01*
X1069112Y-130612D01*
G54D11*
X1057556Y-117100D02*
X1066446Y-117100D01*
X1068223Y-118167D01*
X1069112Y-120300D01*
X1069112Y-122434D01*
X1068223Y-124567D01*
X1066446Y-125634D01*
X1057556Y-125634D01*
X1055778Y-124567D01*
X1054890Y-122434D01*
X1054890Y-120300D01*
X1055778Y-118167D01*
X1057556Y-117100D01*
G54D11*
X1091852Y-172370D02*
X1077630Y-172370D01*
X1077630Y-167036D01*
X1078519Y-164903D01*
X1080297Y-163836D01*
X1082074Y-163836D01*
X1083852Y-164903D01*
X1084741Y-167036D01*
X1084741Y-172370D01*
G54D11*
X1084741Y-154592D02*
X1086519Y-151392D01*
X1088297Y-150325D01*
X1091852Y-150325D01*
G54D11*
X1091852Y-158859D02*
X1077630Y-158859D01*
X1077630Y-153525D01*
X1078519Y-151392D01*
X1080297Y-150325D01*
X1082074Y-150325D01*
X1083852Y-151392D01*
X1084741Y-153525D01*
X1084741Y-158859D01*
G54D11*
X1091852Y-145348D02*
X1077630Y-145348D01*
G54D11*
X1091852Y-140370D02*
X1077630Y-140370D01*
X1091852Y-131836D01*
X1077630Y-131836D01*
G54D11*
X1091852Y-122592D02*
X1077630Y-122592D01*
G54D11*
X1077630Y-126859D02*
X1077630Y-118325D01*
G54D11*
X1091852Y-105881D02*
X1091852Y-113348D01*
X1077630Y-113348D01*
X1077630Y-105881D01*
G54D11*
X1084741Y-113348D02*
X1084741Y-105881D01*
G54D11*
X1084741Y-96636D02*
X1086519Y-93436D01*
X1088297Y-92369D01*
X1091852Y-92369D01*
G54D11*
X1091852Y-100903D02*
X1077630Y-100903D01*
X1077630Y-95569D01*
X1078519Y-93436D01*
X1080297Y-92369D01*
X1082074Y-92369D01*
X1083852Y-93436D01*
X1084741Y-95569D01*
X1084741Y-100903D01*
G54D13*
X551260Y-201216D02*
X538162Y-201216D01*
X538162Y-188912D01*
G54D13*
X644128Y-201612D02*
X657225Y-201612D01*
X657225Y-189310D01*
G54D13*
X2594769Y-1002903D02*
X2637631Y-1002903D01*
X2637631Y-966390D01*
X2690416Y-966390D01*
X2690416Y-1271984D01*
X2636440Y-1271984D01*
X2636440Y-1236266D01*
X2594769Y-1236266D01*
X2594769Y-1002903D01*
G54D11*
X2312662Y-1109036D02*
X2326884Y-1109036D01*
X2317996Y-1103702D01*
X2326884Y-1098369D01*
X2312662Y-1098369D01*
G54D11*
X2315329Y-1093391D02*
X2313551Y-1092324D01*
X2312662Y-1090191D01*
X2312662Y-1088058D01*
X2313551Y-1085924D01*
X2315329Y-1084858D01*
X2317106Y-1084858D01*
X2318884Y-1085924D01*
X2319773Y-1088058D01*
X2320662Y-1085924D01*
X2322440Y-1084858D01*
X2324218Y-1084858D01*
X2325996Y-1085924D01*
X2326884Y-1088058D01*
X2326884Y-1090191D01*
X2325996Y-1092324D01*
X2324218Y-1093391D01*
G54D12*
X2268934Y-1073547D02*
X2254647Y-1073547D01*
X2254647Y-1124744D01*
X2268140Y-1124744D01*
G54D12*
X2289572Y-1124744D02*
X2303066Y-1124744D01*
X2303066Y-1073547D01*
X2289572Y-1073547D01*
G54D12*
X2254647Y-1096566D02*
X2303066Y-1096566D01*
G54D13*
X516592Y-1898798D02*
X529024Y-1898798D01*
X529101Y-1898721D01*
X529101Y-1885982D01*
G54D13*
X491001Y-1898798D02*
X478568Y-1898798D01*
X478491Y-1898720D01*
X478491Y-1885982D01*
G54D13*
X516592Y-1833594D02*
X529024Y-1833594D01*
X529101Y-1833671D01*
X529101Y-1846410D01*
G54D13*
X491001Y-1833594D02*
X478568Y-1833594D01*
X478491Y-1833670D01*
X478491Y-1846410D01*
G54D13*
X528812Y-1892512D02*
X479114Y-1892512D01*
G54D11*
X538882Y-1861756D02*
X553104Y-1861756D01*
X544216Y-1856423D01*
X553104Y-1851090D01*
X538882Y-1851090D01*
G54D11*
X544216Y-1846112D02*
X538882Y-1840778D01*
X553104Y-1840778D01*
G54D12*
X797719Y-2010569D02*
X784622Y-2010569D01*
X784622Y-2023269D01*
G54D12*
X784622Y-2056606D02*
X784622Y-2068910D01*
X797322Y-2068910D01*
G54D12*
X841208Y-2010569D02*
X854305Y-2010569D01*
X854305Y-2023269D01*
G54D12*
X854305Y-2056606D02*
X854305Y-2068910D01*
X841605Y-2068910D01*
G54D12*
X809625Y-2023666D02*
X809625Y-2010569D01*
X828675Y-2010569D01*
X828675Y-2024062D01*
G54D12*
X809625Y-2055646D02*
X809625Y-2068743D01*
X828675Y-2068743D01*
X828675Y-2055250D01*
G54D12*
X784622Y-2062162D02*
X784622Y-2062560D01*
X854075Y-2062560D01*
G54D11*
X785370Y-1998660D02*
X799593Y-1998660D01*
X790704Y-1993326D01*
X799593Y-1987993D01*
X785370Y-1987993D01*
G54D11*
X799593Y-1974481D02*
X799593Y-1983014D01*
X798704Y-1983014D01*
X796926Y-1981948D01*
X791593Y-1975548D01*
X789815Y-1974481D01*
X788037Y-1974481D01*
X786260Y-1975548D01*
X785370Y-1977681D01*
X785370Y-1979814D01*
X786260Y-1981948D01*
X788037Y-1983014D01*
G54D12*
X2505869Y-2964656D02*
X2493169Y-2964656D01*
X2493169Y-2977356D01*
G54D12*
X2505869Y-3027210D02*
X2493169Y-3027210D01*
X2493169Y-3014510D01*
G54D12*
X2618851Y-3027211D02*
X2631551Y-3027211D01*
X2631551Y-3014511D01*
G54D12*
X2618851Y-2964656D02*
X2631551Y-2964656D01*
X2631551Y-2977356D01*
G54D11*
X2588232Y-2951982D02*
X2574010Y-2951982D01*
X2574010Y-2946649D01*
X2574899Y-2944516D01*
X2576677Y-2943449D01*
X2585566Y-2943449D01*
X2587344Y-2944516D01*
X2588232Y-2946649D01*
X2588232Y-2951982D01*
G54D11*
X2585566Y-2938472D02*
X2587344Y-2937405D01*
X2588232Y-2935272D01*
X2588232Y-2933138D01*
X2587344Y-2931005D01*
X2585566Y-2929938D01*
X2583788Y-2929938D01*
X2582010Y-2931005D01*
X2581122Y-2933138D01*
X2581122Y-2935272D01*
X2580232Y-2937405D01*
X2578455Y-2938472D01*
X2576677Y-2938472D01*
X2574899Y-2937405D01*
X2574010Y-2935272D01*
X2574010Y-2933138D01*
X2574899Y-2931005D01*
X2576677Y-2929938D01*
G54D11*
X2579344Y-2924960D02*
X2574010Y-2919627D01*
X2588232Y-2919627D01*
G54D12*
X154781Y-2974380D02*
X142081Y-2974380D01*
X142081Y-2987278D01*
G54D12*
X248990Y-2974380D02*
X261690Y-2974380D01*
X261690Y-2987278D01*
G54D12*
X154781Y-3102205D02*
X142081Y-3102205D01*
X142081Y-3089307D01*
G54D12*
X248990Y-3102205D02*
X261690Y-3102205D01*
X261690Y-3089307D01*
G54D12*
X189310Y-3025378D02*
X189310Y-2974578D01*
X215106Y-2974578D01*
X215106Y-3025378D01*
G54D11*
X287547Y-2993538D02*
X289325Y-2992471D01*
X290214Y-2990338D01*
X290214Y-2988205D01*
X289325Y-2986071D01*
X287547Y-2985005D01*
X285770Y-2985005D01*
X283992Y-2986071D01*
X283103Y-2988205D01*
X283103Y-2990338D01*
X282214Y-2992471D01*
X280436Y-2993538D01*
X278658Y-2993538D01*
X276881Y-2992471D01*
X275992Y-2990338D01*
X275992Y-2988205D01*
X276881Y-2986071D01*
X278658Y-2985005D01*
G54D11*
X281325Y-2980027D02*
X275992Y-2974694D01*
X290214Y-2974694D01*
G54D11*
X311648Y-3013961D02*
X313425Y-3010761D01*
X315203Y-3009694D01*
X318758Y-3009694D01*
G54D11*
X318758Y-3018228D02*
X304536Y-3018228D01*
X304536Y-3012894D01*
X305425Y-3010761D01*
X307203Y-3009694D01*
X308981Y-3009694D01*
X310758Y-3010761D01*
X311648Y-3012894D01*
X311648Y-3018228D01*
G54D11*
X318758Y-2997250D02*
X318758Y-3004716D01*
X304536Y-3004716D01*
X304536Y-2997250D01*
G54D11*
X311648Y-3004716D02*
X311648Y-2997250D01*
G54D11*
X316092Y-2992272D02*
X317870Y-2991205D01*
X318758Y-2989072D01*
X318758Y-2986938D01*
X317870Y-2984805D01*
X316092Y-2983738D01*
X314314Y-2983738D01*
X312536Y-2984805D01*
X311648Y-2986938D01*
X311648Y-2989072D01*
X310758Y-2991205D01*
X308981Y-2992272D01*
X307203Y-2992272D01*
X305425Y-2991205D01*
X304536Y-2989072D01*
X304536Y-2986938D01*
X305425Y-2984805D01*
X307203Y-2983738D01*
G54D11*
X318758Y-2971294D02*
X318758Y-2978760D01*
X304536Y-2978760D01*
X304536Y-2971294D01*
G54D11*
X311648Y-2978760D02*
X311648Y-2971294D01*
G54D11*
X318758Y-2962049D02*
X304536Y-2962049D01*
G54D11*
X304536Y-2966316D02*
X304536Y-2957782D01*
G54D12*
X398066Y-2974380D02*
X385366Y-2974380D01*
X385366Y-2987278D01*
G54D12*
X492275Y-2974380D02*
X504975Y-2974380D01*
X504975Y-2987278D01*
G54D12*
X398066Y-3102205D02*
X385366Y-3102205D01*
X385366Y-3089307D01*
G54D12*
X492275Y-3102205D02*
X504975Y-3102205D01*
X504975Y-3089307D01*
G54D12*
X432594Y-3025378D02*
X432594Y-2974578D01*
X458390Y-2974578D01*
X458390Y-3025378D01*
G54D11*
X528450Y-2998699D02*
X530228Y-2997632D01*
X531117Y-2995499D01*
X531117Y-2993366D01*
X530228Y-2991232D01*
X528450Y-2990166D01*
X526672Y-2990166D01*
X524895Y-2991232D01*
X524006Y-2993366D01*
X524006Y-2995499D01*
X523117Y-2997632D01*
X521339Y-2998699D01*
X519562Y-2998699D01*
X517784Y-2997632D01*
X516895Y-2995499D01*
X516895Y-2993366D01*
X517784Y-2991232D01*
X519562Y-2990166D01*
G54D11*
X531117Y-2976655D02*
X531117Y-2985188D01*
X530228Y-2985188D01*
X528450Y-2984121D01*
X523117Y-2977721D01*
X521339Y-2976655D01*
X519562Y-2976655D01*
X517784Y-2977721D01*
X516895Y-2979855D01*
X516895Y-2981988D01*
X517784Y-2984121D01*
X519562Y-2985188D01*
G54D11*
X558207Y-3005119D02*
X543984Y-3005119D01*
X558207Y-2996586D01*
X543984Y-2996586D01*
G54D11*
X558207Y-2991608D02*
X543984Y-2991608D01*
X552874Y-2986275D01*
X543984Y-2980941D01*
X558207Y-2980941D01*
G54D11*
X558207Y-2975963D02*
X543984Y-2975963D01*
G54D11*
X2546171Y-3103123D02*
X2557726Y-3103123D01*
X2559504Y-3104190D01*
X2560393Y-3106323D01*
X2560393Y-3108456D01*
X2559504Y-3110590D01*
X2557726Y-3111656D01*
G54D11*
X2551504Y-3098146D02*
X2546171Y-3092812D01*
X2560393Y-3092812D01*
G54D11*
X2546171Y-3087834D02*
X2546171Y-3079301D01*
X2547949Y-3080368D01*
X2550616Y-3082501D01*
X2554171Y-3084634D01*
X2556838Y-3085701D01*
X2560393Y-3085701D01*
G54D12*
X2644775Y-108744D02*
X2632869Y-108744D01*
X2632869Y-121840D01*
G54D12*
X2728776Y-108744D02*
X2740682Y-108744D01*
X2740682Y-121840D01*
G54D12*
X2644775Y-302252D02*
X2632869Y-302252D01*
X2632869Y-289156D01*
G54D12*
X2728776Y-302252D02*
X2740682Y-302252D01*
X2740682Y-289156D01*
G54D11*
X2734045Y-341320D02*
X2735823Y-340254D01*
X2736712Y-338120D01*
X2736712Y-335987D01*
X2735823Y-333854D01*
X2734045Y-332787D01*
X2732268Y-332787D01*
X2730490Y-333854D01*
X2729601Y-335987D01*
X2729601Y-338120D01*
X2728712Y-340254D01*
X2726934Y-341320D01*
X2725156Y-341320D01*
X2723379Y-340254D01*
X2722490Y-338120D01*
X2722490Y-335987D01*
X2723379Y-333854D01*
X2725156Y-332787D01*
G54D11*
X2725156Y-327810D02*
X2723379Y-326743D01*
X2722490Y-324610D01*
X2722490Y-322476D01*
X2723379Y-320343D01*
X2725156Y-319276D01*
X2726934Y-319276D01*
X2728712Y-320343D01*
X2729601Y-322476D01*
X2730490Y-320343D01*
X2732268Y-319276D01*
X2734045Y-319276D01*
X2735823Y-320343D01*
X2736712Y-322476D01*
X2736712Y-324610D01*
X2735823Y-326743D01*
X2734045Y-327810D01*
G36*
X1835779Y-532768D02*
X1844439Y-517768D01*
X1827119Y-517768D01*
X1835779Y-532768D01*
G37*
G54D17*
X1835779Y-532768D02*
X1844439Y-517768D01*
X1827119Y-517768D01*
X1835779Y-532768D01*
G54D10*
X1835876Y-533488D02*
X1846716Y-533409D01*
X1825285Y-533409D01*
X1835876Y-533488D01*
X1835882Y-537975D01*
G54D12*
X1853406Y-479028D02*
X1817688Y-479028D01*
X1817688Y-575072D01*
X1853406Y-575072D01*
X1853406Y-479028D01*
G54D11*
X1840810Y-612274D02*
X1826588Y-612274D01*
X1826588Y-606941D01*
X1827476Y-604808D01*
X1829254Y-603741D01*
X1838143Y-603741D01*
X1839921Y-604808D01*
X1840810Y-606941D01*
X1840810Y-612274D01*
G54D11*
X1829254Y-598764D02*
X1827476Y-597697D01*
X1826588Y-595564D01*
X1826588Y-593430D01*
X1827476Y-591297D01*
X1829254Y-590230D01*
X1831032Y-590230D01*
X1832810Y-591297D01*
X1833699Y-593430D01*
X1834588Y-591297D01*
X1836366Y-590230D01*
X1838143Y-590230D01*
X1839921Y-591297D01*
X1840810Y-593430D01*
X1840810Y-595564D01*
X1839921Y-597697D01*
X1838143Y-598764D01*
G54D14*
G75*
G01X1562753Y-664272D02*
G03X1554753Y-672272I0J-8000D01*
G01*
G54D14*
G75*
G01X1758755Y-672172D02*
G03X1750755Y-664172I-8000J0D01*
G01*
G54D14*
G75*
G01X1750855Y-791172D02*
G03X1758855Y-783172I0J8000D01*
G01*
G54D14*
X1751855Y-791272D02*
X1657854Y-791272D01*
G54D14*
X1758855Y-671272D02*
X1758855Y-784272D01*
G54D14*
X1751855Y-664272D02*
X1561853Y-664272D01*
G54D14*
X1554853Y-672272D02*
X1554853Y-763272D01*
G54D14*
X1657854Y-791272D02*
X1554853Y-791272D01*
X1554853Y-763272D01*
G54D19*
X1680754Y-763972D02*
X1685555Y-763972D01*
X1685555Y-768972D01*
X1684355Y-770972D01*
X1681954Y-771972D01*
X1679554Y-771972D01*
X1677154Y-770972D01*
X1675954Y-768972D01*
X1675954Y-758972D01*
X1677154Y-756972D01*
X1679554Y-755972D01*
X1681954Y-755972D01*
X1684355Y-756972D01*
X1685555Y-758972D01*
G54D19*
X1691155Y-771972D02*
X1691155Y-755972D01*
X1700755Y-771972D01*
X1700755Y-755972D01*
G54D19*
X1706355Y-771972D02*
X1706355Y-755972D01*
X1712355Y-755972D01*
X1714755Y-756972D01*
X1715955Y-758972D01*
X1715955Y-768972D01*
X1714755Y-770972D01*
X1712355Y-771972D01*
X1706355Y-771972D01*
G54D19*
X1599754Y-688772D02*
X1609354Y-688772D01*
G54D19*
X1604554Y-684772D02*
X1604554Y-692772D01*
G54D19*
X1685555Y-682772D02*
X1685555Y-692772D01*
X1684355Y-694772D01*
X1681954Y-695772D01*
X1679554Y-695772D01*
X1677154Y-694772D01*
X1675954Y-692772D01*
X1675954Y-682772D01*
X1677154Y-680772D01*
X1679554Y-679772D01*
X1681954Y-679772D01*
X1684355Y-680772D01*
X1685555Y-682772D01*
G54D19*
X1691155Y-679772D02*
X1691155Y-692772D01*
X1692355Y-694772D01*
X1694755Y-695772D01*
X1697155Y-695772D01*
X1699555Y-694772D01*
X1700755Y-692772D01*
X1700755Y-679772D01*
G54D19*
X1711155Y-695772D02*
X1711155Y-679772D01*
G54D19*
X1706355Y-679772D02*
X1715955Y-679772D01*
G54D20*
X1769616Y-762414D02*
X1776728Y-757081D01*
X1783839Y-757081D01*
G54D20*
X1776728Y-757081D02*
X1769616Y-751748D01*
G54D20*
X1772283Y-747836D02*
X1770505Y-746770D01*
X1769616Y-744636D01*
X1769616Y-742503D01*
X1770505Y-740370D01*
X1772283Y-739303D01*
X1774061Y-739303D01*
X1775839Y-740370D01*
X1776728Y-742503D01*
X1777616Y-740370D01*
X1779394Y-739303D01*
X1781172Y-739303D01*
X1782950Y-740370D01*
X1783839Y-742503D01*
X1783839Y-744636D01*
X1782950Y-746770D01*
X1781172Y-747836D01*
G54D20*
X1807059Y-765356D02*
X1792836Y-765356D01*
X1801725Y-771756D01*
X1803503Y-771756D01*
X1803503Y-763222D01*
G54D20*
X1795503Y-750778D02*
X1804392Y-750778D01*
X1806170Y-751845D01*
X1807059Y-753978D01*
X1807059Y-756112D01*
X1806170Y-758245D01*
X1804392Y-759312D01*
X1795503Y-759312D01*
X1793725Y-758245D01*
X1792836Y-756112D01*
X1792836Y-753978D01*
X1793725Y-751845D01*
X1795503Y-750778D01*
G54D20*
X1807059Y-746868D02*
X1807059Y-746868D01*
G54D20*
X1795503Y-734423D02*
X1804392Y-734423D01*
X1806170Y-735490D01*
X1807059Y-737623D01*
X1807059Y-739756D01*
X1806170Y-741890D01*
X1804392Y-742956D01*
X1795503Y-742956D01*
X1793725Y-741890D01*
X1792836Y-739756D01*
X1792836Y-737623D01*
X1793725Y-735490D01*
X1795503Y-734423D01*
G54D20*
X1795503Y-721979D02*
X1804392Y-721979D01*
X1806170Y-723046D01*
X1807059Y-725179D01*
X1807059Y-727312D01*
X1806170Y-729446D01*
X1804392Y-730512D01*
X1795503Y-730512D01*
X1793725Y-729446D01*
X1792836Y-727312D01*
X1792836Y-725179D01*
X1793725Y-723046D01*
X1795503Y-721979D01*
G54D20*
X1807059Y-718068D02*
X1792836Y-718068D01*
X1801725Y-712735D01*
X1792836Y-707402D01*
X1807059Y-707402D01*
G54D20*
X1807059Y-703490D02*
X1792836Y-703490D01*
G54D20*
X1807059Y-694957D02*
X1792836Y-694957D01*
G54D20*
X1799948Y-703490D02*
X1799948Y-694957D01*
G54D20*
X1792836Y-691046D02*
X1792836Y-682513D01*
X1807059Y-691046D01*
X1807059Y-682513D01*
G54D14*
G75*
G01X1562753Y-817862D02*
G03X1554753Y-825862I0J-8000D01*
G01*
G54D14*
G75*
G01X1758755Y-825762D02*
G03X1750755Y-817762I-8000J0D01*
G01*
G54D14*
G75*
G01X1750855Y-944762D02*
G03X1758855Y-936762I0J8000D01*
G01*
G54D14*
X1751855Y-944862D02*
X1657854Y-944862D01*
G54D14*
X1758855Y-824862D02*
X1758855Y-937862D01*
G54D14*
X1751855Y-817862D02*
X1561853Y-817862D01*
G54D14*
X1554853Y-825862D02*
X1554853Y-916862D01*
G54D14*
X1657854Y-944862D02*
X1554853Y-944862D01*
X1554853Y-916862D01*
G54D19*
X1680754Y-917562D02*
X1685555Y-917562D01*
X1685555Y-922562D01*
X1684355Y-924562D01*
X1681954Y-925562D01*
X1679554Y-925562D01*
X1677154Y-924562D01*
X1675954Y-922562D01*
X1675954Y-912562D01*
X1677154Y-910562D01*
X1679554Y-909562D01*
X1681954Y-909562D01*
X1684355Y-910562D01*
X1685555Y-912562D01*
G54D19*
X1691155Y-925562D02*
X1691155Y-909562D01*
X1700755Y-925562D01*
X1700755Y-909562D01*
G54D19*
X1706355Y-925562D02*
X1706355Y-909562D01*
X1712355Y-909562D01*
X1714755Y-910562D01*
X1715955Y-912562D01*
X1715955Y-922562D01*
X1714755Y-924562D01*
X1712355Y-925562D01*
X1706355Y-925562D01*
G54D19*
X1599754Y-842362D02*
X1609354Y-842362D01*
G54D19*
X1604554Y-838362D02*
X1604554Y-846362D01*
G54D19*
X1685555Y-836362D02*
X1685555Y-846362D01*
X1684355Y-848362D01*
X1681954Y-849362D01*
X1679554Y-849362D01*
X1677154Y-848362D01*
X1675954Y-846362D01*
X1675954Y-836362D01*
X1677154Y-834362D01*
X1679554Y-833362D01*
X1681954Y-833362D01*
X1684355Y-834362D01*
X1685555Y-836362D01*
G54D19*
X1691155Y-833362D02*
X1691155Y-846362D01*
X1692355Y-848362D01*
X1694755Y-849362D01*
X1697155Y-849362D01*
X1699555Y-848362D01*
X1700755Y-846362D01*
X1700755Y-833362D01*
G54D19*
X1711155Y-849362D02*
X1711155Y-833362D01*
G54D19*
X1706355Y-833362D02*
X1715955Y-833362D01*
G54D20*
X1770106Y-896916D02*
X1777218Y-891583D01*
X1784329Y-891583D01*
G54D20*
X1777218Y-891583D02*
X1770106Y-886250D01*
G54D20*
X1784329Y-873805D02*
X1784329Y-882338D01*
X1783440Y-882338D01*
X1781662Y-881272D01*
X1776329Y-874872D01*
X1774551Y-873805D01*
X1772773Y-873805D01*
X1770995Y-874872D01*
X1770106Y-877005D01*
X1770106Y-879138D01*
X1770995Y-881272D01*
X1772773Y-882338D01*
G54D20*
X1797948Y-909924D02*
X1796170Y-908858D01*
X1795281Y-906724D01*
X1795281Y-904592D01*
X1796170Y-902458D01*
X1797948Y-901392D01*
X1799726Y-901392D01*
X1801503Y-902458D01*
X1802392Y-904592D01*
X1803281Y-902458D01*
X1805059Y-901392D01*
X1806837Y-901392D01*
X1808614Y-902458D01*
X1809503Y-904592D01*
X1809503Y-906724D01*
X1808614Y-908858D01*
X1806837Y-909924D01*
G54D20*
X1800614Y-897480D02*
X1795281Y-892148D01*
X1809503Y-892148D01*
G54D20*
X1809503Y-888236D02*
X1809503Y-888236D01*
G54D20*
X1797948Y-884326D02*
X1796170Y-883259D01*
X1795281Y-881126D01*
X1795281Y-878992D01*
X1796170Y-876859D01*
X1797948Y-875792D01*
X1799726Y-875792D01*
X1801503Y-876859D01*
X1802392Y-878992D01*
X1803281Y-876859D01*
X1805059Y-875792D01*
X1806837Y-875792D01*
X1808614Y-876859D01*
X1809503Y-878992D01*
X1809503Y-881126D01*
X1808614Y-883259D01*
X1806837Y-884326D01*
G54D20*
X1797948Y-871882D02*
X1796170Y-870815D01*
X1795281Y-868682D01*
X1795281Y-866548D01*
X1796170Y-864415D01*
X1797948Y-863348D01*
X1799726Y-863348D01*
X1801503Y-864415D01*
X1802392Y-866548D01*
X1803281Y-864415D01*
X1805059Y-863348D01*
X1806837Y-863348D01*
X1808614Y-864415D01*
X1809503Y-866548D01*
X1809503Y-868682D01*
X1808614Y-870815D01*
X1806837Y-871882D01*
G54D20*
X1809503Y-853038D02*
X1795281Y-853038D01*
X1804170Y-859438D01*
X1805948Y-859438D01*
X1805948Y-850904D01*
G54D20*
X1809503Y-840594D02*
X1795281Y-840594D01*
X1804170Y-846994D01*
X1805948Y-846994D01*
X1805948Y-838460D01*
G54D20*
X1809503Y-834550D02*
X1795281Y-834550D01*
X1804170Y-829216D01*
X1795281Y-823883D01*
X1809503Y-823883D01*
G54D20*
X1809503Y-819972D02*
X1795281Y-819972D01*
G54D20*
X1809503Y-811438D02*
X1795281Y-811438D01*
G54D20*
X1802392Y-819972D02*
X1802392Y-811438D01*
G54D20*
X1795281Y-807528D02*
X1795281Y-798994D01*
X1809503Y-807528D01*
X1809503Y-798994D01*
G54D13*
X767884Y-3031561D02*
X755452Y-3031561D01*
X755374Y-3031638D01*
X755374Y-3044377D01*
G54D13*
X793475Y-3031561D02*
X805908Y-3031561D01*
X805984Y-3031638D01*
X805984Y-3044377D01*
G54D13*
X767884Y-3096765D02*
X755452Y-3096765D01*
X755374Y-3096688D01*
X755374Y-3083948D01*
G54D13*
X793474Y-3096765D02*
X805908Y-3096765D01*
X805984Y-3096688D01*
X805984Y-3083948D01*
G54D13*
X755664Y-3037847D02*
X805362Y-3037847D01*
G54D11*
X788081Y-3015563D02*
X799637Y-3015563D01*
X801414Y-3016630D01*
X802304Y-3018763D01*
X802304Y-3020896D01*
X801414Y-3023030D01*
X799637Y-3024096D01*
G54D11*
X788081Y-3010586D02*
X788081Y-3002052D01*
X789859Y-3003119D01*
X792526Y-3005252D01*
X796081Y-3007386D01*
X798748Y-3008452D01*
X802304Y-3008452D01*
G54D17*
G75*
G01X1504203Y-831850D02*
G03X1504203Y-831850I-6000J0D01*
G01*
G36*
G75*
G01X1504203Y-831850D02*
G03X1504203Y-831850I-6000J0D01*
G01*
G37*
X1504203Y-831850D01*
G54D17*
G75*
G01X1308544Y-520700D02*
G03X1308544Y-520700I-6000J0D01*
G01*
G36*
G75*
G01X1308544Y-520700D02*
G03X1308544Y-520700I-6000J0D01*
G01*
G37*
X1308544Y-520700D01*
G54D17*
G75*
G01X1308147Y-368696D02*
G03X1308147Y-368696I-6000J0D01*
G01*
G36*
G75*
G01X1308147Y-368696D02*
G03X1308147Y-368696I-6000J0D01*
G01*
G37*
X1308147Y-368696D01*
G54D17*
G75*
G01X1016444Y-440531D02*
G03X1016444Y-440531I-6000J0D01*
G01*
G36*
G75*
G01X1016444Y-440531D02*
G03X1016444Y-440531I-6000J0D01*
G01*
G37*
X1016444Y-440531D01*
G54D17*
G75*
G01X876347Y-460772D02*
G03X876347Y-460772I-6000J0D01*
G01*
G36*
G75*
G01X876347Y-460772D02*
G03X876347Y-460772I-6000J0D01*
G01*
G37*
X876347Y-460772D01*
G54D17*
G75*
G01X654494Y-387350D02*
G03X654494Y-387350I-6000J0D01*
G01*
G36*
G75*
G01X654494Y-387350D02*
G03X654494Y-387350I-6000J0D01*
G01*
G37*
X654494Y-387350D01*
G54D17*
G75*
G01X441769Y-387350D02*
G03X441769Y-387350I-6000J0D01*
G01*
G36*
G75*
G01X441769Y-387350D02*
G03X441769Y-387350I-6000J0D01*
G01*
G37*
X441769Y-387350D01*
G54D17*
G75*
G01X182213Y-478234D02*
G03X182213Y-478234I-6000J0D01*
G01*
G36*
G75*
G01X182213Y-478234D02*
G03X182213Y-478234I-6000J0D01*
G01*
G37*
X182213Y-478234D01*
G54D17*
G75*
G01X278654Y-478234D02*
G03X278654Y-478234I-6000J0D01*
G01*
G36*
G75*
G01X278654Y-478234D02*
G03X278654Y-478234I-6000J0D01*
G01*
G37*
X278654Y-478234D01*
G54D17*
G75*
G01X340169Y-297656D02*
G03X340169Y-297656I-6000J0D01*
G01*
G36*
G75*
G01X340169Y-297656D02*
G03X340169Y-297656I-6000J0D01*
G01*
G37*
X340169Y-297656D01*
G54D17*
G75*
G01X831897Y-311944D02*
G03X831897Y-311944I-6000J0D01*
G01*
G36*
G75*
G01X831897Y-311944D02*
G03X831897Y-311944I-6000J0D01*
G01*
G37*
X831897Y-311944D01*
G54D17*
G75*
G01X1047400Y-329009D02*
G03X1047400Y-329009I-6000J0D01*
G01*
G36*
G75*
G01X1047400Y-329009D02*
G03X1047400Y-329009I-6000J0D01*
G01*
G37*
X1047400Y-329009D01*
G54D17*
G75*
G01X1651841Y-473074D02*
G03X1651841Y-473074I-6000J0D01*
G01*
G36*
G75*
G01X1651841Y-473074D02*
G03X1651841Y-473074I-6000J0D01*
G01*
G37*
X1651841Y-473074D01*
G54D17*
G75*
G01X1993947Y-215106D02*
G03X1993947Y-215106I-6000J0D01*
G01*
G36*
G75*
G01X1993947Y-215106D02*
G03X1993947Y-215106I-6000J0D01*
G01*
G37*
X1993947Y-215106D01*
G54D17*
G75*
G01X2262632Y-297656D02*
G03X2262632Y-297656I-6000J0D01*
G01*
G36*
G75*
G01X2262632Y-297656D02*
G03X2262632Y-297656I-6000J0D01*
G01*
G37*
X2262632Y-297656D01*
G54D17*
G75*
G01X2279697Y-438150D02*
G03X2279697Y-438150I-6000J0D01*
G01*
G36*
G75*
G01X2279697Y-438150D02*
G03X2279697Y-438150I-6000J0D01*
G01*
G37*
X2279697Y-438150D01*
G54D17*
G75*
G01X2488850Y-654050D02*
G03X2488850Y-654050I-6000J0D01*
G01*
G36*
G75*
G01X2488850Y-654050D02*
G03X2488850Y-654050I-6000J0D01*
G01*
G37*
X2488850Y-654050D01*
G54D17*
G75*
G01X2224531Y-844946D02*
G03X2224531Y-844946I-6000J0D01*
G01*
G36*
G75*
G01X2224531Y-844946D02*
G03X2224531Y-844946I-6000J0D01*
G01*
G37*
X2224531Y-844946D01*
G54D17*
G75*
G01X1512141Y-1032272D02*
G03X1512141Y-1032272I-6000J0D01*
G01*
G36*
G75*
G01X1512141Y-1032272D02*
G03X1512141Y-1032272I-6000J0D01*
G01*
G37*
X1512141Y-1032272D01*
G54D17*
G75*
G01X1331562Y-1032272D02*
G03X1331562Y-1032272I-6000J0D01*
G01*
G36*
G75*
G01X1331562Y-1032272D02*
G03X1331562Y-1032272I-6000J0D01*
G01*
G37*
X1331562Y-1032272D01*
G54D17*
G75*
G01X877538Y-719534D02*
G03X877538Y-719534I-6000J0D01*
G01*
G36*
G75*
G01X877538Y-719534D02*
G03X877538Y-719534I-6000J0D01*
G01*
G37*
X877538Y-719534D01*
G54D17*
G75*
G01X927544Y-768746D02*
G03X927544Y-768746I-6000J0D01*
G01*
G36*
G75*
G01X927544Y-768746D02*
G03X927544Y-768746I-6000J0D01*
G01*
G37*
X927544Y-768746D01*
G54D17*
G75*
G01X725534Y-768746D02*
G03X725534Y-768746I-6000J0D01*
G01*
G36*
G75*
G01X725534Y-768746D02*
G03X725534Y-768746I-6000J0D01*
G01*
G37*
X725534Y-768746D01*
G54D17*
G75*
G01X907303Y-971153D02*
G03X907303Y-971153I-6000J0D01*
G01*
G36*
G75*
G01X907303Y-971153D02*
G03X907303Y-971153I-6000J0D01*
G01*
G37*
X907303Y-971153D01*
G54D17*
G75*
G01X722360Y-958850D02*
G03X722360Y-958850I-6000J0D01*
G01*
G36*
G75*
G01X722360Y-958850D02*
G03X722360Y-958850I-6000J0D01*
G01*
G37*
X722360Y-958850D01*
G54D17*
G75*
G01X722360Y-1149350D02*
G03X722360Y-1149350I-6000J0D01*
G01*
G36*
G75*
G01X722360Y-1149350D02*
G03X722360Y-1149350I-6000J0D01*
G01*
G37*
X722360Y-1149350D01*
G54D17*
G75*
G01X924369Y-1149350D02*
G03X924369Y-1149350I-6000J0D01*
G01*
G36*
G75*
G01X924369Y-1149350D02*
G03X924369Y-1149350I-6000J0D01*
G01*
G37*
X924369Y-1149350D01*
G54D17*
G75*
G01X921988Y-1339850D02*
G03X921988Y-1339850I-6000J0D01*
G01*
G36*
G75*
G01X921988Y-1339850D02*
G03X921988Y-1339850I-6000J0D01*
G01*
G37*
X921988Y-1339850D01*
G54D17*
G75*
G01X721566Y-1340246D02*
G03X721566Y-1340246I-6000J0D01*
G01*
G36*
G75*
G01X721566Y-1340246D02*
G03X721566Y-1340246I-6000J0D01*
G01*
G37*
X721566Y-1340246D01*
G54D17*
G75*
G01X218328Y-1360090D02*
G03X218328Y-1360090I-6000J0D01*
G01*
G36*
G75*
G01X218328Y-1360090D02*
G03X218328Y-1360090I-6000J0D01*
G01*
G37*
X218328Y-1360090D01*
G54D17*
G75*
G01X217534Y-1218406D02*
G03X217534Y-1218406I-6000J0D01*
G01*
G36*
G75*
G01X217534Y-1218406D02*
G03X217534Y-1218406I-6000J0D01*
G01*
G37*
X217534Y-1218406D01*
G54D17*
G75*
G01X217931Y-1078309D02*
G03X217931Y-1078309I-6000J0D01*
G01*
G36*
G75*
G01X217931Y-1078309D02*
G03X217931Y-1078309I-6000J0D01*
G01*
G37*
X217931Y-1078309D01*
G54D17*
G75*
G01X217534Y-938212D02*
G03X217534Y-938212I-6000J0D01*
G01*
G36*
G75*
G01X217534Y-938212D02*
G03X217534Y-938212I-6000J0D01*
G01*
G37*
X217534Y-938212D01*
G54D17*
G75*
G01X1064069Y-1787922D02*
G03X1064069Y-1787922I-6000J0D01*
G01*
G36*
G75*
G01X1064069Y-1787922D02*
G03X1064069Y-1787922I-6000J0D01*
G01*
G37*
X1064069Y-1787922D01*
G54D17*
G75*
G01X1460150Y-1853803D02*
G03X1460150Y-1853803I-6000J0D01*
G01*
G36*
G75*
G01X1460150Y-1853803D02*
G03X1460150Y-1853803I-6000J0D01*
G01*
G37*
X1460150Y-1853803D01*
G54D21*
X719138Y-754856D02*
X693738Y-754856D01*
X693738Y-1516856D01*
X705644Y-1516856D01*
G54D21*
X1047750Y-754856D02*
X1074340Y-754856D01*
X1074340Y-1060847D01*
G54D21*
X1073547Y-1200547D02*
X1073547Y-1505347D01*
X1048147Y-1505347D01*
G54D22*
X1069848Y-1191267D02*
X1069848Y-1180600D01*
X1072070Y-1181934D01*
X1075404Y-1184600D01*
X1079848Y-1187267D01*
X1083181Y-1188600D01*
X1087626Y-1188600D01*
G54D22*
X1087626Y-1167711D02*
X1069848Y-1167711D01*
X1080959Y-1175711D01*
X1083182Y-1175711D01*
X1083181Y-1165044D01*
G54D22*
X1087626Y-1160155D02*
X1069848Y-1153488D01*
X1087626Y-1146822D01*
G54D22*
X1080959Y-1157488D02*
X1080959Y-1149488D01*
G54D22*
X1069848Y-1141933D02*
X1087626Y-1141933D01*
X1087626Y-1132600D01*
G54D22*
X1084292Y-1127711D02*
X1086514Y-1126378D01*
X1087626Y-1123711D01*
X1087626Y-1121044D01*
X1086514Y-1118378D01*
X1084292Y-1117044D01*
X1082070Y-1117044D01*
X1079848Y-1118378D01*
X1078737Y-1121044D01*
X1078737Y-1123711D01*
X1077626Y-1126378D01*
X1075404Y-1127711D01*
X1073181Y-1127711D01*
X1070959Y-1126378D01*
X1069848Y-1123711D01*
X1069848Y-1121044D01*
X1070959Y-1118378D01*
X1073181Y-1117044D01*
G54D22*
X1073181Y-1101488D02*
X1070959Y-1102822D01*
X1069848Y-1105488D01*
X1069848Y-1108155D01*
X1070959Y-1110822D01*
X1073181Y-1112155D01*
X1078737Y-1112155D01*
X1079848Y-1112155D01*
X1077626Y-1108155D01*
X1077626Y-1105488D01*
X1078737Y-1102822D01*
X1080959Y-1101488D01*
X1084292Y-1101488D01*
X1086514Y-1102822D01*
X1087626Y-1105488D01*
X1087626Y-1108155D01*
X1086514Y-1110822D01*
X1084292Y-1112155D01*
X1078737Y-1112155D01*
G54D22*
X1069848Y-1085932D02*
X1069848Y-1096599D01*
X1077626Y-1096599D01*
X1077626Y-1095266D01*
X1076514Y-1092599D01*
X1076514Y-1089932D01*
X1077626Y-1087266D01*
X1079848Y-1085932D01*
X1084292Y-1085932D01*
X1086514Y-1087266D01*
X1087626Y-1089932D01*
X1087626Y-1092599D01*
X1086514Y-1095266D01*
X1084292Y-1096599D01*
G54D22*
X1076514Y-1081043D02*
X1069848Y-1074376D01*
X1087626Y-1074376D01*
G54D22*
X987425Y-2104628D02*
X987425Y-2086850D01*
X994092Y-2086850D01*
X996758Y-2087962D01*
X998092Y-2090184D01*
X998092Y-2092406D01*
X996758Y-2094628D01*
X994092Y-2095739D01*
X996758Y-2096850D01*
X998092Y-2099072D01*
X998092Y-2101294D01*
X996758Y-2103517D01*
X994092Y-2104628D01*
X987425Y-2104628D01*
G54D22*
X987425Y-2095739D02*
X994092Y-2095739D01*
G54D22*
X1002981Y-2104628D02*
X1009648Y-2086850D01*
X1016314Y-2104628D01*
G54D22*
X1005648Y-2097962D02*
X1013648Y-2097962D01*
G54D22*
X1021203Y-2104628D02*
X1021203Y-2086850D01*
X1031870Y-2104628D01*
X1031870Y-2086850D01*
G54D22*
X1036759Y-2104628D02*
X1036759Y-2086850D01*
G54D22*
X1036759Y-2099072D02*
X1047426Y-2086850D01*
G54D22*
X1040759Y-2095739D02*
X1047426Y-2104628D01*
G54D22*
X1057471Y-2104628D02*
X1057471Y-2086850D01*
X1064138Y-2086850D01*
X1066804Y-2087962D01*
X1068138Y-2090184D01*
X1068138Y-2092406D01*
X1066804Y-2094628D01*
X1064138Y-2095739D01*
X1066804Y-2096850D01*
X1068138Y-2099072D01*
X1068138Y-2101294D01*
X1066804Y-2103517D01*
X1064138Y-2104628D01*
X1057471Y-2104628D01*
G54D22*
X1057471Y-2095739D02*
X1064138Y-2095739D01*
G54D22*
X1388666Y-2104231D02*
X1388666Y-2086454D01*
X1395332Y-2086454D01*
X1397999Y-2087565D01*
X1399332Y-2089787D01*
X1399332Y-2092009D01*
X1397999Y-2094231D01*
X1395332Y-2095342D01*
X1397999Y-2096454D01*
X1399332Y-2098676D01*
X1399332Y-2100898D01*
X1397999Y-2103120D01*
X1395332Y-2104231D01*
X1388666Y-2104231D01*
G54D22*
X1388666Y-2095342D02*
X1395332Y-2095342D01*
G54D22*
X1404222Y-2104231D02*
X1410888Y-2086454D01*
X1417555Y-2104231D01*
G54D22*
X1406888Y-2097565D02*
X1414888Y-2097565D01*
G54D22*
X1422444Y-2104231D02*
X1422444Y-2086454D01*
X1433110Y-2104231D01*
X1433110Y-2086454D01*
G54D22*
X1438000Y-2104231D02*
X1438000Y-2086454D01*
G54D22*
X1438000Y-2098676D02*
X1448666Y-2086454D01*
G54D22*
X1442000Y-2095342D02*
X1448666Y-2104231D01*
G54D22*
X1458712Y-2104231D02*
X1465378Y-2086454D01*
X1472045Y-2104231D01*
G54D22*
X1461378Y-2097565D02*
X1469378Y-2097565D01*
G54D21*
X748110Y-2128440D02*
X773112Y-2128440D01*
X773112Y-2446338D01*
G54D21*
X773112Y-2611040D02*
X773112Y-2940447D01*
X746919Y-2940447D01*
G54D22*
X772534Y-2576288D02*
X774756Y-2572288D01*
X776978Y-2570954D01*
X781423Y-2570954D01*
G54D22*
X781423Y-2581621D02*
X763645Y-2581621D01*
X763645Y-2574954D01*
X764756Y-2572288D01*
X766978Y-2570955D01*
X769200Y-2570954D01*
X771422Y-2572288D01*
X772534Y-2574954D01*
X772534Y-2581621D01*
G54D22*
X766978Y-2555399D02*
X778090Y-2555398D01*
X780312Y-2556732D01*
X781422Y-2559398D01*
X781422Y-2562065D01*
X780312Y-2564732D01*
X778090Y-2566065D01*
X766978Y-2566065D01*
X764756Y-2564732D01*
X763645Y-2562065D01*
X763645Y-2559398D01*
X764756Y-2556732D01*
X766978Y-2555399D01*
G54D22*
X781423Y-2550509D02*
X763645Y-2550509D01*
X774756Y-2543842D01*
X763645Y-2537176D01*
X781423Y-2537176D01*
G54D22*
X781423Y-2527131D02*
X763645Y-2527131D01*
X763645Y-2520464D01*
X764756Y-2517798D01*
X766978Y-2516465D01*
X778090Y-2516464D01*
X780312Y-2517798D01*
X781422Y-2520464D01*
X781423Y-2527131D01*
G54D22*
X781423Y-2511575D02*
X763645Y-2511575D01*
G54D22*
X781422Y-2506686D02*
X763645Y-2506686D01*
X763645Y-2500019D01*
X764756Y-2497353D01*
X766978Y-2496020D01*
X769200Y-2496020D01*
X771422Y-2497353D01*
X772534Y-2500020D01*
X772534Y-2506686D01*
G54D22*
X778090Y-2491130D02*
X780312Y-2489797D01*
X781423Y-2487130D01*
X781422Y-2484463D01*
X780312Y-2481797D01*
X778089Y-2480463D01*
X775867Y-2480464D01*
X773645Y-2481796D01*
X772534Y-2484464D01*
X772534Y-2487130D01*
X771422Y-2489797D01*
X769200Y-2491130D01*
X766978Y-2491130D01*
X764756Y-2489797D01*
X763645Y-2487130D01*
X763645Y-2484463D01*
X764756Y-2481797D01*
X766978Y-2480464D01*
G54D21*
X337740Y-2233216D02*
X337740Y-2128440D01*
X362744Y-2128440D01*
G54D21*
X337740Y-2281634D02*
X337740Y-2404269D01*
G54D21*
X337740Y-2452290D02*
X337740Y-2620566D01*
G54D21*
X337740Y-2675334D02*
X337740Y-2807494D01*
G54D21*
X337740Y-2870597D02*
X337740Y-2942034D01*
X361156Y-2942034D01*
G54D22*
X327819Y-2828528D02*
X345596Y-2828528D01*
G54D22*
X327819Y-2839195D02*
X345596Y-2839195D01*
G54D22*
X336708Y-2828528D02*
X336708Y-2839195D01*
G54D22*
X327819Y-2844084D02*
X345596Y-2844084D01*
G54D22*
X327819Y-2854751D02*
X345596Y-2854751D01*
G54D22*
X336708Y-2844084D02*
X336708Y-2854751D01*
G54D22*
X344090Y-2659460D02*
X326313Y-2659460D01*
X337424Y-2652793D01*
X326313Y-2646126D01*
X344090Y-2646126D01*
G54D22*
X344090Y-2641238D02*
X326313Y-2641238D01*
G54D22*
X344090Y-2630571D02*
X326313Y-2630571D01*
G54D22*
X335202Y-2641238D02*
X335202Y-2630571D01*
G54D22*
X342106Y-2439590D02*
X324328Y-2439590D01*
X335440Y-2432924D01*
X324328Y-2426257D01*
X342106Y-2426257D01*
G54D22*
X324328Y-2421368D02*
X342106Y-2421368D01*
X342106Y-2412035D01*
G54D22*
X324328Y-2267744D02*
X342106Y-2267744D01*
X342106Y-2258410D01*
G54D22*
X324328Y-2253522D02*
X342106Y-2253522D01*
X342106Y-2244188D01*
G54D21*
X1820862Y-2548731D02*
X1820862Y-2473325D01*
X1846262Y-2473325D01*
G54D21*
X1820466Y-2842419D02*
X1820466Y-2918222D01*
X1844675Y-2918222D01*
G54D21*
X2098278Y-2842816D02*
X2098278Y-2919016D01*
X2073275Y-2919016D01*
G54D21*
X2099866Y-2548731D02*
X2099866Y-2473325D01*
X2074069Y-2473325D01*
G54D22*
X1955485Y-2741216D02*
X1955485Y-2730549D01*
X1957707Y-2731882D01*
X1961040Y-2734549D01*
X1965485Y-2737216D01*
X1968818Y-2738549D01*
X1973262Y-2738549D01*
G54D22*
X1973262Y-2717660D02*
X1955485Y-2717660D01*
X1966596Y-2725660D01*
X1968818Y-2725660D01*
X1968818Y-2714993D01*
G54D22*
X1973262Y-2710104D02*
X1955485Y-2710104D01*
X1955485Y-2700770D01*
G54D22*
X1964374Y-2710104D02*
X1964374Y-2700770D01*
G54D22*
X1973262Y-2685215D02*
X1973262Y-2695882D01*
X1972152Y-2695882D01*
X1969929Y-2694548D01*
X1963262Y-2686548D01*
X1961040Y-2685215D01*
X1958818Y-2685215D01*
X1956596Y-2686548D01*
X1955485Y-2689215D01*
X1955485Y-2691882D01*
X1956596Y-2694548D01*
X1958818Y-2695882D01*
G54D22*
X1955485Y-2669659D02*
X1955485Y-2680326D01*
X1963262Y-2680326D01*
X1963262Y-2678992D01*
X1962152Y-2676326D01*
X1962152Y-2673659D01*
X1963262Y-2670992D01*
X1965485Y-2669659D01*
X1969929Y-2669659D01*
X1972152Y-2670992D01*
X1973262Y-2673659D01*
X1973262Y-2676326D01*
X1972152Y-2678992D01*
X1969929Y-2680326D01*
G54D22*
X1964374Y-2658103D02*
X1964374Y-2660770D01*
X1963262Y-2663436D01*
X1961040Y-2664770D01*
X1958818Y-2664770D01*
X1956596Y-2663436D01*
X1955485Y-2660770D01*
X1955485Y-2658103D01*
X1956596Y-2655436D01*
X1958818Y-2654103D01*
X1961040Y-2654103D01*
X1963262Y-2655436D01*
X1964374Y-2658103D01*
X1965485Y-2655436D01*
X1967707Y-2654103D01*
X1969929Y-2654103D01*
X1972152Y-2655436D01*
X1973262Y-2658103D01*
X1973262Y-2660770D01*
X1972152Y-2663436D01*
X1969929Y-2664770D01*
X1967707Y-2664770D01*
X1965485Y-2663436D01*
X1964374Y-2660770D01*
G54D11*
X669730Y-169443D02*
X681285Y-169443D01*
X683063Y-170510D01*
X683952Y-172643D01*
X683952Y-174776D01*
X683063Y-176910D01*
X681285Y-177976D01*
G54D11*
X669730Y-155932D02*
X669730Y-164466D01*
X675952Y-164466D01*
X675952Y-163399D01*
X675063Y-161266D01*
X675063Y-159132D01*
X675952Y-156999D01*
X677730Y-155932D01*
X681285Y-155932D01*
X683063Y-156999D01*
X683952Y-159132D01*
X683952Y-161266D01*
X683063Y-163399D01*
X681285Y-164466D01*
G54D11*
X680613Y-138981D02*
X682391Y-137914D01*
X683280Y-135781D01*
X683280Y-133648D01*
X682391Y-131514D01*
X680613Y-130448D01*
X678835Y-130448D01*
X677058Y-131514D01*
X676168Y-133648D01*
X676168Y-135781D01*
X675280Y-137914D01*
X673502Y-138981D01*
X671724Y-138981D01*
X669946Y-137914D01*
X669058Y-135781D01*
X669058Y-133648D01*
X669946Y-131514D01*
X671724Y-130448D01*
G54D11*
X683280Y-125470D02*
X669058Y-125470D01*
X683280Y-116937D01*
X669058Y-116937D01*
G54D11*
X683280Y-111959D02*
X669058Y-111959D01*
X669058Y-106626D01*
X669946Y-104492D01*
X671724Y-103426D01*
X680613Y-103426D01*
X682391Y-104492D01*
X683280Y-106626D01*
X683280Y-111959D01*
G54D15*
X131366Y-2946400D02*
X109144Y-2946400D01*
X123032Y-2938067D01*
X109144Y-2929734D01*
X131366Y-2929734D01*
G54D15*
X120254Y-2923622D02*
X118866Y-2920289D01*
X118866Y-2916289D01*
X121644Y-2913622D01*
X131366Y-2913622D01*
G54D15*
X127199Y-2913622D02*
X124421Y-2915289D01*
X123866Y-2918622D01*
X124421Y-2921956D01*
X127199Y-2923622D01*
X129976Y-2922956D01*
X131366Y-2920289D01*
X131366Y-2918622D01*
X131366Y-2917956D01*
X129976Y-2915289D01*
X127199Y-2913622D01*
G54D15*
X119699Y-2899178D02*
X118866Y-2902511D01*
X119699Y-2905844D01*
X122476Y-2907511D01*
X128032Y-2907511D01*
X130810Y-2905844D01*
X131366Y-2902511D01*
X130810Y-2899178D01*
G54D15*
X131366Y-2893067D02*
X118866Y-2893067D01*
G54D15*
X114699Y-2893067D02*
X114699Y-2893067D01*
G54D15*
X131366Y-2886956D02*
X118866Y-2886956D01*
G54D15*
X121644Y-2886956D02*
X119699Y-2885290D01*
X118866Y-2881956D01*
X119699Y-2878623D01*
X121644Y-2876956D01*
X131366Y-2876956D01*
G54D15*
X109144Y-2867512D02*
X129976Y-2867512D01*
X131366Y-2865845D01*
X130810Y-2864178D01*
G54D15*
X118866Y-2870845D02*
X118866Y-2864178D01*
G54D15*
X128032Y-2848067D02*
X122476Y-2848067D01*
X119699Y-2849734D01*
X118866Y-2853067D01*
X119699Y-2856400D01*
X122476Y-2858067D01*
X128032Y-2858067D01*
X130810Y-2856400D01*
X131366Y-2853067D01*
X130810Y-2849734D01*
X128032Y-2848067D01*
G54D15*
X129976Y-2841956D02*
X131366Y-2838623D01*
X131366Y-2835290D01*
X129976Y-2831956D01*
X127199Y-2831956D01*
X125810Y-2833623D01*
X124421Y-2840290D01*
X123032Y-2841956D01*
X120254Y-2841956D01*
X118866Y-2838623D01*
X118866Y-2835290D01*
X120254Y-2831956D01*
G54D15*
X131366Y-2825845D02*
X109144Y-2825845D01*
G54D15*
X122476Y-2825845D02*
X119699Y-2824178D01*
X118866Y-2820845D01*
X119699Y-2817512D01*
X122476Y-2815845D01*
X131366Y-2815845D01*
G54D15*
X131366Y-2803290D02*
X109144Y-2803290D01*
G54D15*
X131366Y-2797179D02*
X109144Y-2797179D01*
G54D15*
X119699Y-2782735D02*
X118866Y-2786068D01*
X119699Y-2789402D01*
X122476Y-2791068D01*
X128032Y-2791068D01*
X130810Y-2789402D01*
X131366Y-2786068D01*
X130810Y-2782735D01*
G54D15*
X118866Y-2776624D02*
X131366Y-2763291D01*
G54D15*
X131366Y-2776624D02*
X118866Y-2763291D01*
G54D22*
X161767Y-2937352D02*
X161767Y-2940019D01*
X160656Y-2942686D01*
X158434Y-2944019D01*
X156212Y-2944019D01*
X153990Y-2942686D01*
X152878Y-2940019D01*
X152878Y-2937352D01*
X153990Y-2934686D01*
X156212Y-2933352D01*
X158434Y-2933352D01*
X160656Y-2934686D01*
X161767Y-2937352D01*
X162878Y-2934686D01*
X165101Y-2933352D01*
X167323Y-2933352D01*
X169545Y-2934686D01*
X170656Y-2937352D01*
X170656Y-2940019D01*
X169545Y-2942686D01*
X167323Y-2944019D01*
X165101Y-2944019D01*
X162878Y-2942686D01*
X161767Y-2940019D01*
G54D22*
X170656Y-2917796D02*
X170656Y-2928463D01*
X169545Y-2928463D01*
X167323Y-2927130D01*
X160656Y-2919130D01*
X158434Y-2917796D01*
X156212Y-2917796D01*
X153990Y-2919130D01*
X152878Y-2921796D01*
X152878Y-2924463D01*
X153990Y-2927130D01*
X156212Y-2928463D01*
G54D22*
X156212Y-2902240D02*
X167323Y-2902240D01*
X169545Y-2903574D01*
X170656Y-2906240D01*
X170656Y-2908907D01*
X169545Y-2911574D01*
X167323Y-2912907D01*
X156212Y-2912907D01*
X153990Y-2911574D01*
X152878Y-2908907D01*
X152878Y-2906240D01*
X153990Y-2903574D01*
X156212Y-2902240D01*
G54D22*
X162878Y-2897351D02*
X162878Y-2886684D01*
G54D22*
X156212Y-2871128D02*
X167323Y-2871128D01*
X169545Y-2872462D01*
X170656Y-2875128D01*
X170656Y-2877795D01*
X169545Y-2880462D01*
X167323Y-2881795D01*
X156212Y-2881795D01*
X153990Y-2880462D01*
X152878Y-2877795D01*
X152878Y-2875128D01*
X153990Y-2872462D01*
X156212Y-2871128D01*
G54D22*
X170656Y-2855572D02*
X170656Y-2866239D01*
X169545Y-2866239D01*
X167323Y-2864906D01*
X160656Y-2856906D01*
X158434Y-2855572D01*
X156212Y-2855572D01*
X153990Y-2856906D01*
X152878Y-2859572D01*
X152878Y-2862239D01*
X153990Y-2864906D01*
X156212Y-2866239D01*
G54D22*
X156212Y-2850683D02*
X153990Y-2849350D01*
X152878Y-2846683D01*
X152878Y-2844016D01*
X153990Y-2841350D01*
X156212Y-2840016D01*
X158434Y-2840016D01*
X160656Y-2841350D01*
X161767Y-2844016D01*
X162878Y-2841350D01*
X165101Y-2840016D01*
X167323Y-2840016D01*
X169545Y-2841350D01*
X170656Y-2844016D01*
X170656Y-2846683D01*
X169545Y-2849350D01*
X167323Y-2850683D01*
G54D22*
X156212Y-2824460D02*
X167323Y-2824460D01*
X169545Y-2825794D01*
X170656Y-2828460D01*
X170656Y-2831127D01*
X169545Y-2833794D01*
X167323Y-2835127D01*
X156212Y-2835127D01*
X153990Y-2833794D01*
X152878Y-2831127D01*
X152878Y-2828460D01*
X153990Y-2825794D01*
X156212Y-2824460D01*
G54D22*
X162878Y-2819571D02*
X162878Y-2808904D01*
G54D22*
X170656Y-2804015D02*
X152878Y-2804015D01*
X152878Y-2797348D01*
X153990Y-2794682D01*
X156212Y-2793348D01*
X158434Y-2793348D01*
X160656Y-2794682D01*
X161767Y-2797348D01*
X162878Y-2794682D01*
X165101Y-2793348D01*
X167323Y-2793348D01*
X169545Y-2794682D01*
X170656Y-2797348D01*
X170656Y-2804015D01*
G54D22*
X161767Y-2804015D02*
X161767Y-2797348D01*
G54D15*
X133350Y-2728912D02*
X120850Y-2728912D01*
G54D15*
X123072Y-2728912D02*
X120850Y-2725579D01*
X121683Y-2722246D01*
X123628Y-2720579D01*
X133350Y-2720579D01*
G54D15*
X123072Y-2720579D02*
X120850Y-2717246D01*
X121683Y-2713912D01*
X123628Y-2712246D01*
X133350Y-2712246D01*
G54D15*
X122239Y-2706134D02*
X120850Y-2702801D01*
X120850Y-2698801D01*
X123628Y-2696134D01*
X133350Y-2696134D01*
G54D15*
X129183Y-2696134D02*
X126406Y-2697801D01*
X125850Y-2701134D01*
X126406Y-2704468D01*
X129183Y-2706134D01*
X131961Y-2705468D01*
X133350Y-2702801D01*
X133350Y-2701134D01*
X133350Y-2700468D01*
X131961Y-2697801D01*
X129183Y-2696134D01*
G54D15*
X120850Y-2690024D02*
X133350Y-2676690D01*
G54D15*
X133350Y-2690024D02*
X120850Y-2676690D01*
G54D15*
X119461Y-2670580D02*
X111128Y-2662246D01*
X133350Y-2662246D01*
G54D15*
X120850Y-2656136D02*
X120850Y-2646136D01*
X133350Y-2656136D01*
X133350Y-2646136D01*
G54D15*
X120850Y-2640024D02*
X120850Y-2630024D01*
X133350Y-2640024D01*
X133350Y-2630024D01*
G54D15*
X120850Y-2623914D02*
X120850Y-2613914D01*
X133350Y-2623914D01*
X133350Y-2613914D01*
G54D22*
X155418Y-2717450D02*
X166529Y-2717450D01*
X168752Y-2718783D01*
X169862Y-2721450D01*
X169862Y-2724116D01*
X168752Y-2726783D01*
X166529Y-2728116D01*
X155418Y-2728116D01*
X153196Y-2726783D01*
X152085Y-2724116D01*
X152085Y-2721450D01*
X153196Y-2718783D01*
X155418Y-2717450D01*
G54D22*
X152085Y-2701894D02*
X152085Y-2712560D01*
X159862Y-2712560D01*
X159862Y-2711227D01*
X158752Y-2708560D01*
X158752Y-2705894D01*
X159862Y-2703227D01*
X162085Y-2701894D01*
X166529Y-2701894D01*
X168752Y-2703227D01*
X169862Y-2705894D01*
X169862Y-2708560D01*
X168752Y-2711227D01*
X166529Y-2712560D01*
G54D22*
X162085Y-2697004D02*
X162085Y-2686338D01*
G54D22*
X155418Y-2670782D02*
X166529Y-2670782D01*
X168752Y-2672115D01*
X169862Y-2674782D01*
X169862Y-2677448D01*
X168752Y-2680115D01*
X166529Y-2681448D01*
X155418Y-2681448D01*
X153196Y-2680115D01*
X152085Y-2677448D01*
X152085Y-2674782D01*
X153196Y-2672115D01*
X155418Y-2670782D01*
G54D22*
X169862Y-2655226D02*
X169862Y-2665892D01*
X168752Y-2665892D01*
X166529Y-2664559D01*
X159862Y-2656559D01*
X157640Y-2655226D01*
X155418Y-2655226D01*
X153196Y-2656559D01*
X152085Y-2659226D01*
X152085Y-2661892D01*
X153196Y-2664559D01*
X155418Y-2665892D01*
G54D22*
X162085Y-2650336D02*
X162085Y-2639670D01*
G54D22*
X169862Y-2624114D02*
X169862Y-2634780D01*
X168752Y-2634780D01*
X166529Y-2633447D01*
X159862Y-2625447D01*
X157640Y-2624114D01*
X155418Y-2624114D01*
X153196Y-2625447D01*
X152085Y-2628114D01*
X152085Y-2630780D01*
X153196Y-2633447D01*
X155418Y-2634780D01*
G54D22*
X155418Y-2619224D02*
X153196Y-2617891D01*
X152085Y-2615224D01*
X152085Y-2612558D01*
X153196Y-2609891D01*
X155418Y-2608558D01*
X157640Y-2608558D01*
X159862Y-2609891D01*
X160974Y-2612558D01*
X162085Y-2609891D01*
X164307Y-2608558D01*
X166529Y-2608558D01*
X168752Y-2609891D01*
X169862Y-2612558D01*
X169862Y-2615224D01*
X168752Y-2617891D01*
X166529Y-2619224D01*
M02*
